SplineFontDB: 3.0
FontName: Sansita-BoldItalic
FullName: Sansita-BoldItalic
FamilyName: Sansita
Weight: Bold
Copyright: Copyright (c) 2011-2013, Omnibus-Type (www.omnibus-type.com omnibus.type@gmail.com) with Reserved Font Name 'Sansita'
Version: 001.004
ItalicAngle: -11
UnderlinePosition: -49
UnderlineWidth: 49
Ascent: 800
Descent: 200
sfntRevision: 0x00010106
LayerCount: 2
Layer: 0 1 "Back"  1
Layer: 1 1 "Fore"  0
XUID: [1021 809 -2065993493 6316820]
FSType: 8
OS2Version: 3
OS2_WeightWidthSlopeOnly: 0
OS2_UseTypoMetrics: 1
CreationTime: 1387883418
ModificationTime: 1388333179
PfmFamily: 81
TTFWeight: 700
TTFWidth: 5
LineGap: 0
VLineGap: 0
Panose: 0 0 8 0 0 0 0 0 0 0
OS2TypoAscent: 700
OS2TypoAOffset: 0
OS2TypoDescent: -180
OS2TypoDOffset: 0
OS2TypoLinegap: 320
OS2WinAscent: 1020
OS2WinAOffset: 0
OS2WinDescent: 180
OS2WinDOffset: 0
HheadAscent: 1020
HheadAOffset: 0
HheadDescent: -180
HheadDOffset: 0
OS2SubXSize: 650
OS2SubYSize: 600
OS2SubXOff: -15
OS2SubYOff: 75
OS2SupXSize: 650
OS2SupYSize: 600
OS2SupXOff: 68
OS2SupYOff: 350
OS2StrikeYSize: 50
OS2StrikeYPos: 306
OS2Vendor: 'UKWN'
OS2CodePages: 20000093.00000000
OS2UnicodeRanges: 00000007.00000000.00000000.00000000
Lookup: 1 0 0 "'aalt' Access All Alternates lookup 0"  {"'aalt' Access All Alternates lookup 0 subtable"  } ['aalt' ('DFLT' <'dflt' > 'grek' <'dflt' > 'latn' <'AZE ' 'CAT ' 'CRT ' 'ESP ' 'KAZ ' 'MOL ' 'NLD ' 'PLK ' 'ROM ' 'TAT ' 'TRK ' 'dflt' > ) ]
Lookup: 3 0 0 "'aalt' Access All Alternates lookup 1"  {"'aalt' Access All Alternates lookup 1 subtable"  } ['aalt' ('DFLT' <'dflt' > 'grek' <'dflt' > 'latn' <'AZE ' 'CAT ' 'CRT ' 'ESP ' 'KAZ ' 'MOL ' 'NLD ' 'PLK ' 'ROM ' 'TAT ' 'TRK ' 'dflt' > ) ]

StartChar: .notdef
Encoding: 65536 -1 0
Width: 513
Flags: MW
HStem: 0 50<49 389 49 459> 650 50<164 504 164 164>
VStem: -41 636
LayerCount: 2
UndoRedoHistory
Layer: 0
Undoes
EndUndoes
Redoes
EndRedoes
EndUndoRedoHistory
UndoRedoHistory
Layer: 1
Undoes
EndUndoes
Redoes
EndRedoes
EndUndoRedoHistory
Fore
SplineSet
95 700 m 1,0,-1
 595 700 l 1,1,-1
 459 0 l 1,2,-1
 -41 0 l 1,3,-1
 95 700 l 1,0,-1
504 650 m 1,4,-1
 164 650 l 1,5,-1
 286 395 l 1,6,-1
 504 650 l 1,4,-1
26 95 m 1,7,-1
 247 350 l 1,8,-1
 126 605 l 1,9,-1
 26 95 l 1,7,-1
426 95 m 1,10,-1
 526 605 l 1,11,-1
 307 350 l 1,12,-1
 426 95 l 1,10,-1
389 50 m 1,13,-1
 267 305 l 1,14,-1
 49 50 l 1,15,-1
 389 50 l 1,13,-1
EndSplineSet
Validated: 1
EndChar

StartChar: A
Encoding: 65 65 1
Width: 561
Flags: MW
HStem: 164 75<178 324 178 329 149 324> 549 111<307 307> 640 20G<263 448 448 448>
VStem: -44 577
LayerCount: 2
UndoRedoHistory
Layer: 0
Undoes
EndUndoes
Redoes
EndRedoes
EndUndoRedoHistory
UndoRedoHistory
Layer: 1
Undoes
EndUndoes
Redoes
EndRedoes
EndUndoRedoHistory
Fore
SplineSet
487 148 m 1,0,1
 495 61 495 61 533 35 c 1,2,3
 523 10 523 10 498.5 -5 c 128,-1,4
 474 -20 474 -20 441 -20 c 0,5,6
 395 -20 395 -20 371.5 10 c 128,-1,7
 348 40 348 40 338 93 c 0,8,9
 332 128 332 128 329 164 c 1,10,-1
 149 164 l 1,11,12
 117 88 117 88 84 0 c 1,13,-1
 -44 0 l 1,14,-1
 263 660 l 1,15,-1
 448 660 l 1,16,-1
 487 148 l 1,0,1
307 549 m 1,17,18
 274 473 274 473 230.5 366 c 128,-1,19
 187 259 187 259 178 239 c 1,20,-1
 324 239 l 1,21,-1
 307 549 l 1,17,18
EndSplineSet
Validated: 8388609
Substitution2: "Single Substitution lookup 21 subtable" ordfeminine
Substitution2: "'aalt' Access All Alternates lookup 0 subtable" ordfeminine
Position2: "'cpsp' Capital Spacing lookup 3 subtable" dx=5 dy=0 dh=10 dv=0
EndChar

StartChar: Aacute
Encoding: 193 193 2
Width: 561
Flags: MW
HStem: 164 75<178 324 178 329 149 324> 549 111<307 307> 640 20G<263 448 448 448>
VStem: -44 585
LayerCount: 2
UndoRedoHistory
Layer: 0
Undoes
EndUndoes
Redoes
EndRedoes
EndUndoRedoHistory
UndoRedoHistory
Layer: 1
Undoes
EndUndoes
Redoes
EndRedoes
EndUndoRedoHistory
Fore
SplineSet
277 758 m 1,0,-1
 516 853 l 1,1,2
 541 836 541 836 541 804 c 0,3,4
 541 721 541 721 404 717 c 1,5,-1
 287 712 l 1,6,-1
 277 758 l 1,0,-1
487 148 m 1,7,8
 495 61 495 61 533 35 c 1,9,10
 523 10 523 10 498.5 -5 c 128,-1,11
 474 -20 474 -20 441 -20 c 0,12,13
 395 -20 395 -20 371.5 10 c 128,-1,14
 348 40 348 40 338 93 c 0,15,16
 332 128 332 128 329 164 c 1,17,-1
 149 164 l 1,18,19
 117 88 117 88 84 0 c 1,20,-1
 -44 0 l 1,21,-1
 263 660 l 1,22,-1
 448 660 l 1,23,-1
 487 148 l 1,7,8
307 549 m 1,24,25
 274 473 274 473 230.5 366 c 128,-1,26
 187 259 187 259 178 239 c 1,27,-1
 324 239 l 1,28,-1
 307 549 l 1,24,25
EndSplineSet
Validated: 8388609
Position2: "'cpsp' Capital Spacing lookup 3 subtable" dx=5 dy=0 dh=10 dv=0
EndChar

StartChar: Abreve
Encoding: 258 258 3
Width: 561
Flags: MW
HStem: 164 75<178 324 178 329 149 324> 549 111<307 307> 640 20G<263 448 448 448> 700 49<353 394 353 418>
VStem: 210 117<788 805 788 811>
LayerCount: 2
UndoRedoHistory
Layer: 0
Undoes
EndUndoes
Redoes
EndRedoes
EndUndoRedoHistory
UndoRedoHistory
Layer: 1
Undoes
EndUndoes
Redoes
EndRedoes
EndUndoRedoHistory
Fore
SplineSet
331 833 m 1,0,1
 327 814 327 814 327 800 c 0,2,3
 327 779 327 779 337 764 c 128,-1,4
 347 749 347 749 370 749 c 0,5,6
 402 749 402 749 420.5 774 c 128,-1,7
 439 799 439 799 447 833 c 1,8,-1
 559 833 l 1,9,10
 546 772 546 772 495.5 736 c 128,-1,11
 445 700 445 700 360 700 c 0,12,13
 287 700 287 700 248.5 729 c 128,-1,14
 210 758 210 758 210 806 c 0,15,16
 210 818 210 818 213 833 c 1,17,-1
 331 833 l 1,0,1
487 148 m 1,18,19
 495 61 495 61 533 35 c 1,20,21
 523 10 523 10 498.5 -5 c 128,-1,22
 474 -20 474 -20 441 -20 c 0,23,24
 395 -20 395 -20 371.5 10 c 128,-1,25
 348 40 348 40 338 93 c 0,26,27
 332 128 332 128 329 164 c 1,28,-1
 149 164 l 1,29,30
 117 88 117 88 84 0 c 1,31,-1
 -44 0 l 1,32,-1
 263 660 l 1,33,-1
 448 660 l 1,34,-1
 487 148 l 1,18,19
307 549 m 1,35,36
 274 473 274 473 230.5 366 c 128,-1,37
 187 259 187 259 178 239 c 1,38,-1
 324 239 l 1,39,-1
 307 549 l 1,35,36
EndSplineSet
Validated: 8388609
Position2: "'cpsp' Capital Spacing lookup 3 subtable" dx=5 dy=0 dh=10 dv=0
EndChar

StartChar: Acircumflex
Encoding: 194 194 4
Width: 561
Flags: MW
HStem: 164 75<178 324 178 329 149 324> 549 111<307 307> 640 20G<263 448 448 448>
VStem: -44 577
LayerCount: 2
UndoRedoHistory
Layer: 0
Undoes
EndUndoes
Redoes
EndRedoes
EndUndoRedoHistory
UndoRedoHistory
Layer: 1
Undoes
EndUndoes
Redoes
EndRedoes
EndUndoRedoHistory
Fore
SplineSet
470 681 m 1,0,-1
 359 743 l 1,1,-1
 220 681 l 1,2,-1
 191 729 l 1,3,-1
 356 845 l 1,4,-1
 382 845 l 1,5,-1
 515 728 l 1,6,-1
 470 681 l 1,0,-1
487 148 m 1,7,8
 495 61 495 61 533 35 c 1,9,10
 523 10 523 10 498.5 -5 c 128,-1,11
 474 -20 474 -20 441 -20 c 0,12,13
 395 -20 395 -20 371.5 10 c 128,-1,14
 348 40 348 40 338 93 c 0,15,16
 332 128 332 128 329 164 c 1,17,-1
 149 164 l 1,18,19
 117 88 117 88 84 0 c 1,20,-1
 -44 0 l 1,21,-1
 263 660 l 1,22,-1
 448 660 l 1,23,-1
 487 148 l 1,7,8
307 549 m 1,24,25
 274 473 274 473 230.5 366 c 128,-1,26
 187 259 187 259 178 239 c 1,27,-1
 324 239 l 1,28,-1
 307 549 l 1,24,25
EndSplineSet
Validated: 8388609
Position2: "'cpsp' Capital Spacing lookup 3 subtable" dx=5 dy=0 dh=10 dv=0
EndChar

StartChar: Adieresis
Encoding: 196 196 5
Width: 561
Flags: MW
HStem: 164 75<178 324 178 329 149 324> 549 111<307 307> 640 20G<263 448 448 448> 709 139<232 279 455 501>
VStem: 167 177<755 800> 389 177<755 800>
LayerCount: 2
UndoRedoHistory
Layer: 0
Undoes
EndUndoes
Redoes
EndRedoes
EndUndoRedoHistory
UndoRedoHistory
Layer: 1
Undoes
EndUndoes
Redoes
EndRedoes
EndUndoRedoHistory
Fore
SplineSet
258 848 m 0,0,1
 297 848 297 848 320.5 830 c 128,-1,2
 344 812 344 812 344 779 c 0,3,4
 344 745 344 745 319 727 c 128,-1,5
 294 709 294 709 254 709 c 0,6,7
 215 709 215 709 191 726.5 c 128,-1,8
 167 744 167 744 167 777 c 0,9,10
 167 811 167 811 192.5 829.5 c 128,-1,11
 218 848 218 848 258 848 c 0,0,1
480 848 m 0,12,13
 519 848 519 848 542.5 830 c 128,-1,14
 566 812 566 812 566 779 c 0,15,16
 566 745 566 745 541 727 c 128,-1,17
 516 709 516 709 476 709 c 0,18,19
 437 709 437 709 413 726.5 c 128,-1,20
 389 744 389 744 389 777 c 0,21,22
 389 811 389 811 414.5 829.5 c 128,-1,23
 440 848 440 848 480 848 c 0,12,13
487 148 m 1,24,25
 495 61 495 61 533 35 c 1,26,27
 523 10 523 10 498.5 -5 c 128,-1,28
 474 -20 474 -20 441 -20 c 0,29,30
 395 -20 395 -20 371.5 10 c 128,-1,31
 348 40 348 40 338 93 c 0,32,33
 332 128 332 128 329 164 c 1,34,-1
 149 164 l 1,35,36
 117 88 117 88 84 0 c 1,37,-1
 -44 0 l 1,38,-1
 263 660 l 1,39,-1
 448 660 l 1,40,-1
 487 148 l 1,24,25
307 549 m 1,41,42
 274 473 274 473 230.5 366 c 128,-1,43
 187 259 187 259 178 239 c 1,44,-1
 324 239 l 1,45,-1
 307 549 l 1,41,42
EndSplineSet
Validated: 8388609
Position2: "'cpsp' Capital Spacing lookup 3 subtable" dx=5 dy=0 dh=10 dv=0
EndChar

StartChar: Agrave
Encoding: 192 192 6
Width: 561
Flags: MW
HStem: 164 75<178 324 178 329 149 324> 549 111<307 307> 640 20G<263 448 448 448>
VStem: -44 577
LayerCount: 2
UndoRedoHistory
Layer: 0
Undoes
EndUndoes
Redoes
EndRedoes
EndUndoRedoHistory
UndoRedoHistory
Layer: 1
Undoes
EndUndoes
Redoes
EndRedoes
EndUndoRedoHistory
Fore
SplineSet
449 712 m 1,0,-1
 332 717 l 2,1,2
 194 723 194 723 194 804 c 0,3,4
 194 835 194 835 219 854 c 1,5,-1
 459 758 l 1,6,-1
 449 712 l 1,0,-1
487 148 m 1,7,8
 495 61 495 61 533 35 c 1,9,10
 523 10 523 10 498.5 -5 c 128,-1,11
 474 -20 474 -20 441 -20 c 0,12,13
 395 -20 395 -20 371.5 10 c 128,-1,14
 348 40 348 40 338 93 c 0,15,16
 332 128 332 128 329 164 c 1,17,-1
 149 164 l 1,18,19
 117 88 117 88 84 0 c 1,20,-1
 -44 0 l 1,21,-1
 263 660 l 1,22,-1
 448 660 l 1,23,-1
 487 148 l 1,7,8
307 549 m 1,24,25
 274 473 274 473 230.5 366 c 128,-1,26
 187 259 187 259 178 239 c 1,27,-1
 324 239 l 1,28,-1
 307 549 l 1,24,25
EndSplineSet
Validated: 8388609
Position2: "'cpsp' Capital Spacing lookup 3 subtable" dx=5 dy=0 dh=10 dv=0
EndChar

StartChar: Amacron
Encoding: 256 256 7
Width: 561
Flags: MW
HStem: 164 75<178 324 178 329 149 324> 549 111<307 307> 640 20G<263 448 448 448> 737 87<280 441 218 509>
VStem: -44 577
LayerCount: 2
UndoRedoHistory
Layer: 0
Undoes
EndUndoes
Redoes
EndRedoes
EndUndoRedoHistory
UndoRedoHistory
Layer: 1
Undoes
EndUndoes
Redoes
EndRedoes
EndUndoRedoHistory
Fore
SplineSet
509 824 m 1,0,1
 513 808 513 808 513 798 c 0,2,3
 513 771 513 771 494.5 754 c 128,-1,4
 476 737 476 737 441 737 c 2,5,-1
 218 737 l 1,6,7
 216 746 216 746 216 763 c 0,8,9
 216 791 216 791 234 807.5 c 128,-1,10
 252 824 252 824 280 824 c 2,11,-1
 509 824 l 1,0,1
487 148 m 1,12,13
 495 61 495 61 533 35 c 1,14,15
 523 10 523 10 498.5 -5 c 128,-1,16
 474 -20 474 -20 441 -20 c 0,17,18
 395 -20 395 -20 371.5 10 c 128,-1,19
 348 40 348 40 338 93 c 0,20,21
 332 128 332 128 329 164 c 1,22,-1
 149 164 l 1,23,24
 117 88 117 88 84 0 c 1,25,-1
 -44 0 l 1,26,-1
 263 660 l 1,27,-1
 448 660 l 1,28,-1
 487 148 l 1,12,13
307 549 m 1,29,30
 274 473 274 473 230.5 366 c 128,-1,31
 187 259 187 259 178 239 c 1,32,-1
 324 239 l 1,33,-1
 307 549 l 1,29,30
EndSplineSet
Validated: 8388609
Position2: "'cpsp' Capital Spacing lookup 3 subtable" dx=5 dy=0 dh=10 dv=0
EndChar

StartChar: Aogonek
Encoding: 260 260 8
Width: 561
Flags: MW
HStem: -258 73<461 488> -35 20G 164 75<178 324 178 329 149 324> 549 111<307 307> 640 20G<263 448 448 448>
VStem: 335 92<-149 -119>
LayerCount: 2
UndoRedoHistory
Layer: 0
Undoes
EndUndoes
Redoes
EndRedoes
EndUndoRedoHistory
UndoRedoHistory
Layer: 1
Undoes
EndUndoes
Redoes
EndRedoes
EndUndoRedoHistory
Fore
SplineSet
521 10 m 1,0,-1
 509 2 l 2,1,2
 506 -1 506 -1 502 -3 c 0,3,4
 468 -29 468 -29 447.5 -62.5 c 128,-1,5
 427 -96 427 -96 427 -130 c 0,6,7
 427 -159 427 -159 439.5 -172 c 128,-1,8
 452 -185 452 -185 480 -185 c 0,9,10
 518 -185 518 -185 537 -160 c 1,11,12
 554 -177 554 -177 554 -198 c 0,13,14
 554 -223 554 -223 528 -240.5 c 128,-1,15
 502 -258 502 -258 458 -258 c 0,16,17
 401 -258 401 -258 368 -229.5 c 128,-1,18
 335 -201 335 -201 335 -148 c 0,19,20
 335 -68 335 -68 409 -15 c 1,21,22
 355 3 355 3 338 93 c 0,23,24
 332 128 332 128 329 164 c 1,25,-1
 149 164 l 1,26,27
 117 88 117 88 84 0 c 1,28,-1
 -44 0 l 1,29,-1
 263 660 l 1,30,-1
 448 660 l 1,31,-1
 487 148 l 1,32,33
 495 61 495 61 533 35 c 1,34,35
 529 23 529 23 521 14 c 1,36,-1
 521 10 l 1,0,-1
324 239 m 1,37,-1
 307 549 l 1,38,39
 274 473 274 473 230.5 366 c 128,-1,40
 187 259 187 259 178 239 c 1,41,-1
 324 239 l 1,37,-1
EndSplineSet
Validated: 8388609
Position2: "'cpsp' Capital Spacing lookup 3 subtable" dx=5 dy=0 dh=10 dv=0
EndChar

StartChar: Aring
Encoding: 197 197 9
Width: 561
Flags: MW
HStem: 164 75<178 324 178 329 149 324> 549 111<307 307> 640 20G<263 448 448 448> 690 34<351 377 351 387> 818 37<365 392>
VStem: 266 63<748 775> 415 64<767 794>
LayerCount: 2
UndoRedoHistory
Layer: 0
Undoes
EndUndoes
Redoes
EndRedoes
EndUndoRedoHistory
UndoRedoHistory
Layer: 1
Undoes
EndUndoes
Redoes
EndRedoes
EndUndoRedoHistory
Fore
SplineSet
479 786 m 0,0,1
 479 743 479 743 442 716.5 c 128,-1,2
 405 690 405 690 356 690 c 0,3,4
 314 690 314 690 290 708 c 128,-1,5
 266 726 266 726 266 759 c 0,6,7
 266 802 266 802 303.5 828.5 c 128,-1,8
 341 855 341 855 390 855 c 0,9,10
 431 855 431 855 455 837 c 128,-1,11
 479 819 479 819 479 786 c 0,0,1
415 783 m 0,12,13
 415 818 415 818 380 818 c 0,14,15
 358 818 358 818 343.5 801 c 128,-1,16
 329 784 329 784 329 758 c 0,17,18
 329 724 329 724 363 724 c 0,19,20
 384 724 384 724 399.5 741 c 128,-1,21
 415 758 415 758 415 783 c 0,12,13
487 148 m 1,22,23
 495 61 495 61 533 35 c 1,24,25
 523 10 523 10 498.5 -5 c 128,-1,26
 474 -20 474 -20 441 -20 c 0,27,28
 395 -20 395 -20 371.5 10 c 128,-1,29
 348 40 348 40 338 93 c 0,30,31
 332 128 332 128 329 164 c 1,32,-1
 149 164 l 1,33,34
 117 88 117 88 84 0 c 1,35,-1
 -44 0 l 1,36,-1
 263 660 l 1,37,-1
 448 660 l 1,38,-1
 487 148 l 1,22,23
307 549 m 1,39,40
 274 473 274 473 230.5 366 c 128,-1,41
 187 259 187 259 178 239 c 1,42,-1
 324 239 l 1,43,-1
 307 549 l 1,39,40
EndSplineSet
Validated: 8388609
Position2: "'cpsp' Capital Spacing lookup 3 subtable" dx=5 dy=0 dh=10 dv=0
EndChar

StartChar: Aringacute
Encoding: 506 506 10
Width: 561
Flags: MW
HStem: 164 75<178 324 178 329 149 324> 640 20G<263 271 271 271 346 373 446 448 448 448> 753 37<360 388>
VStem: 262 63<688 711 684 724> 411 64<709 729>
LayerCount: 2
UndoRedoHistory
Layer: 0
Undoes
EndUndoes
Redoes
EndRedoes
EndUndoRedoHistory
UndoRedoHistory
Layer: 1
Undoes
EndUndoes
Redoes
EndRedoes
EndUndoRedoHistory
Fore
SplineSet
536 936 m 1,0,1
 561 919 561 919 561 887 c 0,2,3
 561 804 561 804 424 800 c 1,4,-1
 307 795 l 1,5,-1
 297 841 l 1,6,-1
 536 936 l 1,0,1
487 148 m 1,7,8
 495 61 495 61 533 35 c 1,9,10
 523 10 523 10 498.5 -5 c 128,-1,11
 474 -20 474 -20 441 -20 c 0,12,13
 395 -20 395 -20 371.5 10 c 128,-1,14
 348 40 348 40 338 93 c 0,15,16
 332 128 332 128 329 164 c 1,17,-1
 149 164 l 1,18,19
 117 88 117 88 84 0 c 1,20,-1
 -44 0 l 1,21,-1
 263 660 l 1,22,-1
 271 660 l 1,23,24
 262 673 262 673 262 694 c 0,25,26
 262 737 262 737 298.5 763.5 c 128,-1,27
 335 790 335 790 385 790 c 0,28,29
 427 790 427 790 451 772 c 128,-1,30
 475 754 475 754 475 722 c 0,31,32
 475 686 475 686 446 660 c 1,33,-1
 448 660 l 1,34,-1
 487 148 l 1,7,8
325 694 m 0,35,36
 325 660 325 660 358 660 c 0,37,38
 380 660 380 660 395.5 677 c 128,-1,39
 411 694 411 694 411 719 c 0,40,41
 411 753 411 753 375 753 c 0,42,43
 354 753 354 753 339.5 736 c 128,-1,44
 325 719 325 719 325 694 c 0,35,36
324 239 m 1,45,-1
 307 549 l 1,46,47
 274 473 274 473 230.5 366 c 128,-1,48
 187 259 187 259 178 239 c 1,49,-1
 324 239 l 1,45,-1
EndSplineSet
Validated: 1
Position2: "'cpsp' Capital Spacing lookup 3 subtable" dx=5 dy=0 dh=10 dv=0
EndChar

StartChar: Atilde
Encoding: 195 195 11
Width: 561
Flags: MW
HStem: 164 75<178 324 178 329 149 324> 549 111<307 307> 640 20G<263 448 448 448> 724 96<449 483 449 483> 741 96<258 292>
VStem: -44 588
LayerCount: 2
UndoRedoHistory
Layer: 0
Undoes
EndUndoes
Redoes
EndRedoes
EndUndoRedoHistory
UndoRedoHistory
Layer: 1
Undoes
EndUndoes
Redoes
EndRedoes
EndUndoRedoHistory
Fore
SplineSet
526 837 m 1,0,1
 544 815 544 815 544 791 c 0,2,3
 544 759 544 759 521 741.5 c 128,-1,4
 498 724 498 724 457 724 c 0,5,6
 435 724 435 724 363.5 732.5 c 128,-1,7
 292 741 292 741 272 741 c 0,8,9
 234 741 234 741 211 725 c 1,10,11
 192 750 192 750 192 776 c 0,12,13
 192 805 192 805 215.5 821 c 128,-1,14
 239 837 239 837 282 837 c 0,15,16
 307 837 307 837 378 828.5 c 128,-1,17
 449 820 449 820 471 820 c 0,18,19
 512 820 512 820 526 837 c 1,0,1
487 148 m 1,20,21
 495 61 495 61 533 35 c 1,22,23
 523 10 523 10 498.5 -5 c 128,-1,24
 474 -20 474 -20 441 -20 c 0,25,26
 395 -20 395 -20 371.5 10 c 128,-1,27
 348 40 348 40 338 93 c 0,28,29
 332 128 332 128 329 164 c 1,30,-1
 149 164 l 1,31,32
 117 88 117 88 84 0 c 1,33,-1
 -44 0 l 1,34,-1
 263 660 l 1,35,-1
 448 660 l 1,36,-1
 487 148 l 1,20,21
307 549 m 1,37,38
 274 473 274 473 230.5 366 c 128,-1,39
 187 259 187 259 178 239 c 1,40,-1
 324 239 l 1,41,-1
 307 549 l 1,37,38
EndSplineSet
Validated: 8388609
Position2: "'cpsp' Capital Spacing lookup 3 subtable" dx=5 dy=0 dh=10 dv=0
EndChar

StartChar: AE
Encoding: 198 198 12
Width: 713
Flags: MW
HStem: -20 115<521 532> 177 77<155 320 193 310> 285 97<547 593> 550 110<605 658> 566 94 577 83<498 498>
VStem: 308 147<83 193>
LayerCount: 2
UndoRedoHistory
Layer: 0
Undoes
EndUndoes
Redoes
EndRedoes
EndUndoRedoHistory
UndoRedoHistory
Layer: 1
Undoes
EndUndoes
Redoes
EndRedoes
EndUndoRedoHistory
Fore
SplineSet
155 177 m 1,0,1
 142 153 142 153 109.5 87 c 128,-1,2
 77 21 77 21 68 0 c 1,3,-1
 -68 0 l 1,4,-1
 305 660 l 1,5,-1
 739 660 l 1,6,7
 739 605 739 605 707.5 577.5 c 128,-1,8
 676 550 676 550 624 550 c 0,9,10
 596 550 596 550 561 557.5 c 128,-1,11
 526 565 526 565 498 577 c 1,12,-1
 476 382 l 1,13,-1
 663 382 l 1,14,15
 663 334 663 334 636.5 309.5 c 128,-1,16
 610 285 610 285 563 285 c 0,17,18
 510 285 510 285 467 306 c 1,19,20
 455 210 455 210 455 181 c 0,21,22
 455 132 455 132 478.5 113.5 c 128,-1,23
 502 95 502 95 552 95 c 0,24,25
 605 95 605 95 645 110 c 1,26,27
 653 92 653 92 653 71 c 0,28,29
 653 45 653 45 639 26 c 128,-1,30
 625 7 625 7 600.5 -2.5 c 128,-1,31
 576 -12 576 -12 551 -16 c 128,-1,32
 526 -20 526 -20 498 -20 c 0,33,34
 411 -20 411 -20 359.5 19.5 c 128,-1,35
 308 59 308 59 308 137 c 0,36,37
 308 157 308 157 310 177 c 1,38,-1
 155 177 l 1,0,1
320 254 m 1,39,40
 324 293 324 293 338 396 c 128,-1,41
 352 499 352 499 360 566 c 1,42,43
 261 390 261 390 193 254 c 1,44,-1
 320 254 l 1,39,40
EndSplineSet
Validated: 8388609
Position2: "'cpsp' Capital Spacing lookup 3 subtable" dx=5 dy=0 dh=10 dv=0
EndChar

StartChar: AEacute
Encoding: 508 508 13
Width: 713
Flags: MW
HStem: -20 115<521 532> 177 77<155 320 193 310> 285 97<547 593> 550 110<605 658> 566 94 577 83<498 498>
VStem: 308 147<83 193>
LayerCount: 2
UndoRedoHistory
Layer: 0
Undoes
EndUndoes
Redoes
EndRedoes
EndUndoRedoHistory
UndoRedoHistory
Layer: 1
Undoes
EndUndoes
Redoes
EndRedoes
EndUndoRedoHistory
Fore
SplineSet
356 758 m 1,0,-1
 595 853 l 1,1,2
 620 836 620 836 620 804 c 0,3,4
 620 721 620 721 483 717 c 1,5,-1
 366 712 l 1,6,-1
 356 758 l 1,0,-1
155 177 m 1,7,8
 142 153 142 153 109.5 87 c 128,-1,9
 77 21 77 21 68 0 c 1,10,-1
 -68 0 l 1,11,-1
 305 660 l 1,12,-1
 739 660 l 1,13,14
 739 605 739 605 707.5 577.5 c 128,-1,15
 676 550 676 550 624 550 c 0,16,17
 596 550 596 550 561 557.5 c 128,-1,18
 526 565 526 565 498 577 c 1,19,-1
 476 382 l 1,20,-1
 663 382 l 1,21,22
 663 334 663 334 636.5 309.5 c 128,-1,23
 610 285 610 285 563 285 c 0,24,25
 510 285 510 285 467 306 c 1,26,27
 455 210 455 210 455 181 c 0,28,29
 455 132 455 132 478.5 113.5 c 128,-1,30
 502 95 502 95 552 95 c 0,31,32
 605 95 605 95 645 110 c 1,33,34
 653 92 653 92 653 71 c 0,35,36
 653 45 653 45 639 26 c 128,-1,37
 625 7 625 7 600.5 -2.5 c 128,-1,38
 576 -12 576 -12 551 -16 c 128,-1,39
 526 -20 526 -20 498 -20 c 0,40,41
 411 -20 411 -20 359.5 19.5 c 128,-1,42
 308 59 308 59 308 137 c 0,43,44
 308 157 308 157 310 177 c 1,45,-1
 155 177 l 1,7,8
320 254 m 1,46,47
 324 293 324 293 338 396 c 128,-1,48
 352 499 352 499 360 566 c 1,49,50
 261 390 261 390 193 254 c 1,51,-1
 320 254 l 1,46,47
EndSplineSet
Validated: 8388609
Position2: "'cpsp' Capital Spacing lookup 3 subtable" dx=5 dy=0 dh=10 dv=0
EndChar

StartChar: B
Encoding: 66 66 14
Width: 572
Flags: MW
HStem: -20 20G<9 9> -7 71<222 280 222 292> 317 68<232 320> 602 65<318 354>
VStem: 383 160<170 257> 407 146<494 547>
LayerCount: 2
UndoRedoHistory
Layer: 0
Undoes
EndUndoes
Redoes
EndRedoes
EndUndoRedoHistory
UndoRedoHistory
Layer: 1
Undoes
EndUndoes
Redoes
EndRedoes
EndUndoRedoHistory
Fore
SplineSet
135 660 m 1,0,1
 237 667 237 667 317 667 c 0,2,3
 346 667 346 667 368.5 666 c 128,-1,4
 391 665 391 665 416.5 661.5 c 128,-1,5
 442 658 442 658 461 652 c 128,-1,6
 480 646 480 646 498 636 c 128,-1,7
 516 626 516 626 527.5 612.5 c 128,-1,8
 539 599 539 599 546 579 c 128,-1,9
 553 559 553 559 553 534 c 0,10,11
 553 476 553 476 520.5 435 c 128,-1,12
 488 394 488 394 432 371 c 1,13,14
 543 342 543 342 543 225 c 0,15,16
 543 166 543 166 516.5 121 c 128,-1,17
 490 76 490 76 442.5 48.5 c 128,-1,18
 395 21 395 21 332 7 c 128,-1,19
 269 -7 269 -7 192 -7 c 0,20,21
 113 -7 113 -7 9 0 c 1,22,-1
 135 660 l 1,0,1
246 387 m 1,23,24
 266 385 266 385 274 385 c 0,25,26
 340 385 340 385 373.5 421.5 c 128,-1,27
 407 458 407 458 407 518 c 0,28,29
 407 562 407 562 387.5 582 c 128,-1,30
 368 602 368 602 325 602 c 0,31,32
 311 602 311 602 287 598 c 1,33,-1
 246 387 l 1,23,24
184 68 m 1,34,35
 202 64 202 64 228 64 c 0,36,37
 303 64 303 64 343 105 c 128,-1,38
 383 146 383 146 383 212 c 0,39,40
 383 238 383 238 375.5 257 c 128,-1,41
 368 276 368 276 356 287 c 128,-1,42
 344 298 344 298 324 305 c 128,-1,43
 304 312 304 312 283 314 c 128,-1,44
 262 316 262 316 232 317 c 1,45,-1
 184 68 l 1,34,35
EndSplineSet
Validated: 8388609
Position2: "'cpsp' Capital Spacing lookup 3 subtable" dx=5 dy=0 dh=10 dv=0
EndChar

StartChar: C
Encoding: 67 67 15
Width: 557
Flags: MW
HStem: -20 125<270 326> 609 71<311 393>
VStem: 24 171<208 313 208 349> 431 149<519 548>
LayerCount: 2
UndoRedoHistory
Layer: 0
Undoes
EndUndoes
Redoes
EndRedoes
EndUndoRedoHistory
UndoRedoHistory
Layer: 1
Undoes
EndUndoes
Redoes
EndRedoes
EndUndoRedoHistory
Fore
SplineSet
397 680 m 0,0,1
 448 680 448 680 488 668 c 128,-1,2
 528 656 528 656 554 626.5 c 128,-1,3
 580 597 580 597 580 554 c 0,4,5
 580 503 580 503 547.5 472.5 c 128,-1,6
 515 442 515 442 468 442 c 0,7,8
 438 442 438 442 420 453 c 1,9,10
 431 489 431 489 431 529 c 0,11,12
 431 563 431 563 416.5 586 c 128,-1,13
 402 609 402 609 369 609 c 0,14,15
 327 609 327 609 292.5 571 c 128,-1,16
 258 533 258 533 237.5 476 c 128,-1,17
 217 419 217 419 206 360 c 128,-1,18
 195 301 195 301 195 252 c 0,19,20
 195 105 195 105 314 105 c 0,21,22
 413 105 413 105 474 200 c 1,23,24
 503 181 503 181 503 140 c 0,25,26
 503 73 503 73 431.5 26.5 c 128,-1,27
 360 -20 360 -20 257 -20 c 0,28,29
 142 -20 142 -20 83 45 c 128,-1,30
 24 110 24 110 24 239 c 0,31,32
 24 306 24 306 39 369.5 c 128,-1,33
 54 433 54 433 85 489.5 c 128,-1,34
 116 546 116 546 160 588.5 c 128,-1,35
 204 631 204 631 265 655.5 c 128,-1,36
 326 680 326 680 397 680 c 0,0,1
EndSplineSet
Validated: 1
Position2: "'cpsp' Capital Spacing lookup 3 subtable" dx=5 dy=0 dh=10 dv=0
EndChar

StartChar: Cacute
Encoding: 262 262 16
Width: 557
Flags: MW
HStem: -20 125<270 326> 609 71<311 393>
VStem: 24 171<208 313 208 349> 431 149<519 548>
LayerCount: 2
UndoRedoHistory
Layer: 0
Undoes
EndUndoes
Redoes
EndRedoes
EndUndoRedoHistory
UndoRedoHistory
Layer: 1
Undoes
EndUndoes
Redoes
EndRedoes
EndUndoRedoHistory
Fore
SplineSet
313 758 m 1,0,-1
 552 853 l 1,1,2
 577 836 577 836 577 804 c 0,3,4
 577 721 577 721 440 717 c 1,5,-1
 323 712 l 1,6,-1
 313 758 l 1,0,-1
397 680 m 0,7,8
 448 680 448 680 488 668 c 128,-1,9
 528 656 528 656 554 626.5 c 128,-1,10
 580 597 580 597 580 554 c 0,11,12
 580 503 580 503 547.5 472.5 c 128,-1,13
 515 442 515 442 468 442 c 0,14,15
 438 442 438 442 420 453 c 1,16,17
 431 489 431 489 431 529 c 0,18,19
 431 563 431 563 416.5 586 c 128,-1,20
 402 609 402 609 369 609 c 0,21,22
 327 609 327 609 292.5 571 c 128,-1,23
 258 533 258 533 237.5 476 c 128,-1,24
 217 419 217 419 206 360 c 128,-1,25
 195 301 195 301 195 252 c 0,26,27
 195 105 195 105 314 105 c 0,28,29
 413 105 413 105 474 200 c 1,30,31
 503 181 503 181 503 140 c 0,32,33
 503 73 503 73 431.5 26.5 c 128,-1,34
 360 -20 360 -20 257 -20 c 0,35,36
 142 -20 142 -20 83 45 c 128,-1,37
 24 110 24 110 24 239 c 0,38,39
 24 306 24 306 39 369.5 c 128,-1,40
 54 433 54 433 85 489.5 c 128,-1,41
 116 546 116 546 160 588.5 c 128,-1,42
 204 631 204 631 265 655.5 c 128,-1,43
 326 680 326 680 397 680 c 0,7,8
EndSplineSet
Validated: 1
Substitution2: "'locl' Localized Forms in Latin lookup 13 subtable" Cacute.loclPLK
Substitution2: "'aalt' Access All Alternates lookup 0 subtable" Cacute.loclPLK
Position2: "'cpsp' Capital Spacing lookup 3 subtable" dx=5 dy=0 dh=10 dv=0
EndChar

StartChar: Ccaron
Encoding: 268 268 17
Width: 557
Flags: MW
HStem: -20 125<270 326> 609 71<311 393>
VStem: 24 171<208 313 208 349> 431 149<519 548>
LayerCount: 2
UndoRedoHistory
Layer: 0
Undoes
EndUndoes
Redoes
EndRedoes
EndUndoRedoHistory
UndoRedoHistory
Layer: 1
Undoes
EndUndoes
Redoes
EndRedoes
EndUndoRedoHistory
Fore
SplineSet
299 846 m 1,0,-1
 410 794 l 1,1,-1
 549 846 l 1,2,-1
 578 803 l 1,3,-1
 418 692 l 1,4,-1
 382 692 l 1,5,-1
 254 804 l 1,6,-1
 299 846 l 1,0,-1
397 680 m 0,7,8
 448 680 448 680 488 668 c 128,-1,9
 528 656 528 656 554 626.5 c 128,-1,10
 580 597 580 597 580 554 c 0,11,12
 580 503 580 503 547.5 472.5 c 128,-1,13
 515 442 515 442 468 442 c 0,14,15
 438 442 438 442 420 453 c 1,16,17
 431 489 431 489 431 529 c 0,18,19
 431 563 431 563 416.5 586 c 128,-1,20
 402 609 402 609 369 609 c 0,21,22
 327 609 327 609 292.5 571 c 128,-1,23
 258 533 258 533 237.5 476 c 128,-1,24
 217 419 217 419 206 360 c 128,-1,25
 195 301 195 301 195 252 c 0,26,27
 195 105 195 105 314 105 c 0,28,29
 413 105 413 105 474 200 c 1,30,31
 503 181 503 181 503 140 c 0,32,33
 503 73 503 73 431.5 26.5 c 128,-1,34
 360 -20 360 -20 257 -20 c 0,35,36
 142 -20 142 -20 83 45 c 128,-1,37
 24 110 24 110 24 239 c 0,38,39
 24 306 24 306 39 369.5 c 128,-1,40
 54 433 54 433 85 489.5 c 128,-1,41
 116 546 116 546 160 588.5 c 128,-1,42
 204 631 204 631 265 655.5 c 128,-1,43
 326 680 326 680 397 680 c 0,7,8
EndSplineSet
Validated: 1
Position2: "'cpsp' Capital Spacing lookup 3 subtable" dx=5 dy=0 dh=10 dv=0
EndChar

StartChar: Ccedilla
Encoding: 199 199 18
Width: 557
Flags: MW
HStem: -256 61<239 272 239 307> -111 50<243 346> -20 125<239 350> 609 71<311 393>
VStem: 24 171<208 313 208 349> 319 102<-167 -134> 431 149<519 548>
LayerCount: 2
UndoRedoHistory
Layer: 0
Undoes
EndUndoes
Redoes
EndRedoes
EndUndoRedoHistory
UndoRedoHistory
Layer: 1
Undoes
EndUndoes
Redoes
EndRedoes
EndUndoRedoHistory
Fore
SplineSet
239 -20 m 1,0,1
 133 -15 133 -15 78.5 50 c 128,-1,2
 24 115 24 115 24 239 c 0,3,4
 24 306 24 306 39 369.5 c 128,-1,5
 54 433 54 433 85 489.5 c 128,-1,6
 116 546 116 546 160 588.5 c 128,-1,7
 204 631 204 631 265 655.5 c 128,-1,8
 326 680 326 680 397 680 c 0,9,10
 448 680 448 680 488 668 c 128,-1,11
 528 656 528 656 554 626.5 c 128,-1,12
 580 597 580 597 580 554 c 0,13,14
 580 503 580 503 547.5 472.5 c 128,-1,15
 515 442 515 442 468 442 c 0,16,17
 438 442 438 442 420 453 c 1,18,19
 431 489 431 489 431 529 c 0,20,21
 431 563 431 563 416.5 586 c 128,-1,22
 402 609 402 609 369 609 c 0,23,24
 327 609 327 609 292.5 571 c 128,-1,25
 258 533 258 533 237.5 476 c 128,-1,26
 217 419 217 419 206 360 c 128,-1,27
 195 301 195 301 195 252 c 0,28,29
 195 105 195 105 314 105 c 0,30,31
 413 105 413 105 474 200 c 1,32,33
 503 181 503 181 503 140 c 0,34,35
 503 79 503 79 443.5 34.5 c 128,-1,36
 384 -10 384 -10 293 -18 c 1,37,-1
 280 -62 l 1,38,39
 285 -62 285 -62 298.5 -61.5 c 128,-1,40
 312 -61 312 -61 317 -61 c 0,41,42
 363 -61 363 -61 392 -80 c 128,-1,43
 421 -99 421 -99 421 -139 c 0,44,45
 421 -190 421 -190 375.5 -223 c 128,-1,46
 330 -256 330 -256 262 -256 c 0,47,48
 221 -256 221 -256 196.5 -242.5 c 128,-1,49
 172 -229 172 -229 172 -205 c 0,50,51
 172 -179 172 -179 189 -165 c 1,52,53
 208 -195 208 -195 256 -195 c 0,54,55
 319 -195 319 -195 319 -150 c 0,56,57
 319 -111 319 -111 250 -111 c 0,58,59
 237 -111 237 -111 211 -113 c 1,60,-1
 239 -20 l 1,0,1
EndSplineSet
Validated: 1
Position2: "'cpsp' Capital Spacing lookup 3 subtable" dx=5 dy=0 dh=10 dv=0
EndChar

StartChar: Ccircumflex
Encoding: 264 264 19
Width: 557
Flags: MW
HStem: -20 125<270 326> 609 71<311 393>
VStem: 24 171<208 313 208 349> 431 149<519 548>
LayerCount: 2
UndoRedoHistory
Layer: 0
Undoes
EndUndoes
Redoes
EndRedoes
EndUndoRedoHistory
UndoRedoHistory
Layer: 1
Undoes
EndUndoes
Redoes
EndRedoes
EndUndoRedoHistory
Fore
SplineSet
506 681 m 1,0,-1
 395 743 l 1,1,-1
 256 681 l 1,2,-1
 227 729 l 1,3,-1
 392 845 l 1,4,-1
 418 845 l 1,5,-1
 551 728 l 1,6,-1
 506 681 l 1,0,-1
397 680 m 0,7,8
 448 680 448 680 488 668 c 128,-1,9
 528 656 528 656 554 626.5 c 128,-1,10
 580 597 580 597 580 554 c 0,11,12
 580 503 580 503 547.5 472.5 c 128,-1,13
 515 442 515 442 468 442 c 0,14,15
 438 442 438 442 420 453 c 1,16,17
 431 489 431 489 431 529 c 0,18,19
 431 563 431 563 416.5 586 c 128,-1,20
 402 609 402 609 369 609 c 0,21,22
 327 609 327 609 292.5 571 c 128,-1,23
 258 533 258 533 237.5 476 c 128,-1,24
 217 419 217 419 206 360 c 128,-1,25
 195 301 195 301 195 252 c 0,26,27
 195 105 195 105 314 105 c 0,28,29
 413 105 413 105 474 200 c 1,30,31
 503 181 503 181 503 140 c 0,32,33
 503 73 503 73 431.5 26.5 c 128,-1,34
 360 -20 360 -20 257 -20 c 0,35,36
 142 -20 142 -20 83 45 c 128,-1,37
 24 110 24 110 24 239 c 0,38,39
 24 306 24 306 39 369.5 c 128,-1,40
 54 433 54 433 85 489.5 c 128,-1,41
 116 546 116 546 160 588.5 c 128,-1,42
 204 631 204 631 265 655.5 c 128,-1,43
 326 680 326 680 397 680 c 0,7,8
EndSplineSet
Validated: 1
Position2: "'cpsp' Capital Spacing lookup 3 subtable" dx=5 dy=0 dh=10 dv=0
EndChar

StartChar: Cdotaccent
Encoding: 266 266 20
Width: 557
Flags: MW
HStem: -20 125<270 326> 609 71<311 393> 709 139<375 422>
VStem: 24 171<208 313 208 349> 310 177<755 800> 431 149<519 548>
LayerCount: 2
UndoRedoHistory
Layer: 0
Undoes
EndUndoes
Redoes
EndRedoes
EndUndoRedoHistory
UndoRedoHistory
Layer: 1
Undoes
EndUndoes
Redoes
EndRedoes
EndUndoRedoHistory
Fore
SplineSet
401 848 m 0,0,1
 440 848 440 848 463.5 830 c 128,-1,2
 487 812 487 812 487 779 c 0,3,4
 487 745 487 745 462 727 c 128,-1,5
 437 709 437 709 397 709 c 0,6,7
 358 709 358 709 334 726.5 c 128,-1,8
 310 744 310 744 310 777 c 0,9,10
 310 811 310 811 335.5 829.5 c 128,-1,11
 361 848 361 848 401 848 c 0,0,1
397 680 m 0,12,13
 448 680 448 680 488 668 c 128,-1,14
 528 656 528 656 554 626.5 c 128,-1,15
 580 597 580 597 580 554 c 0,16,17
 580 503 580 503 547.5 472.5 c 128,-1,18
 515 442 515 442 468 442 c 0,19,20
 438 442 438 442 420 453 c 1,21,22
 431 489 431 489 431 529 c 0,23,24
 431 563 431 563 416.5 586 c 128,-1,25
 402 609 402 609 369 609 c 0,26,27
 327 609 327 609 292.5 571 c 128,-1,28
 258 533 258 533 237.5 476 c 128,-1,29
 217 419 217 419 206 360 c 128,-1,30
 195 301 195 301 195 252 c 0,31,32
 195 105 195 105 314 105 c 0,33,34
 413 105 413 105 474 200 c 1,35,36
 503 181 503 181 503 140 c 0,37,38
 503 73 503 73 431.5 26.5 c 128,-1,39
 360 -20 360 -20 257 -20 c 0,40,41
 142 -20 142 -20 83 45 c 128,-1,42
 24 110 24 110 24 239 c 0,43,44
 24 306 24 306 39 369.5 c 128,-1,45
 54 433 54 433 85 489.5 c 128,-1,46
 116 546 116 546 160 588.5 c 128,-1,47
 204 631 204 631 265 655.5 c 128,-1,48
 326 680 326 680 397 680 c 0,12,13
EndSplineSet
Validated: 8388609
Position2: "'cpsp' Capital Spacing lookup 3 subtable" dx=5 dy=0 dh=10 dv=0
EndChar

StartChar: D
Encoding: 68 68 21
Width: 636
Flags: MW
HStem: -20 20G<7 7> -7 71<234 296 234 332> 597 70<334 382>
VStem: 451 160<455 512 294 519>
LayerCount: 2
UndoRedoHistory
Layer: 0
Undoes
EndUndoes
Redoes
EndRedoes
EndUndoRedoHistory
UndoRedoHistory
Layer: 1
Undoes
EndUndoes
Redoes
EndRedoes
EndUndoRedoHistory
Fore
SplineSet
135 660 m 1,0,1
 237 667 237 667 320 667 c 0,2,3
 401 667 401 667 454.5 654.5 c 128,-1,4
 508 642 508 642 544 612.5 c 128,-1,5
 580 583 580 583 595.5 536 c 128,-1,6
 611 489 611 489 611 418 c 0,7,8
 611 343 611 343 594.5 278.5 c 128,-1,9
 578 214 578 214 544 161 c 128,-1,10
 510 108 510 108 460.5 71 c 128,-1,11
 411 34 411 34 342.5 13.5 c 128,-1,12
 274 -7 274 -7 192 -7 c 0,13,14
 105 -7 105 -7 7 0 c 1,15,-1
 135 660 l 1,0,1
184 69 m 1,16,17
 214 64 214 64 242 64 c 0,18,19
 274 64 274 64 300.5 75.5 c 128,-1,20
 327 87 327 87 346 107 c 128,-1,21
 365 127 365 127 380.5 157 c 128,-1,22
 396 187 396 187 407 220.5 c 128,-1,23
 418 254 418 254 427 297 c 0,24,25
 451 411 451 411 451 479 c 0,26,27
 451 540 451 540 425.5 568.5 c 128,-1,28
 400 597 400 597 343 597 c 0,29,30
 320 597 320 597 286 592 c 1,31,-1
 184 69 l 1,16,17
EndSplineSet
Validated: 8388609
Position2: "'cpsp' Capital Spacing lookup 3 subtable" dx=5 dy=0 dh=10 dv=0
EndChar

StartChar: DZ
Encoding: 497 497 22
Width: 1129
Flags: MW
HStem: -20 20G<7 7> -14 138<928 979 928 995> -7 71<234 296 234 332> 498 20G<994 994> 537 138<803 845> 597 70<334 382> 640 20G<135 135>
VStem: 451 160<455 512 294 519>
LayerCount: 2
UndoRedoHistory
Layer: 0
Undoes
EndUndoes
Redoes
EndRedoes
EndUndoRedoHistory
UndoRedoHistory
Layer: 1
Undoes
EndUndoes
Redoes
EndRedoes
EndUndoRedoHistory
Fore
SplineSet
994 518 m 1,0,1
 880 537 880 537 824 537 c 0,2,3
 759 537 759 537 718 515 c 1,4,5
 698 545 698 545 698 585 c 0,6,7
 698 675 698 675 822 675 c 0,8,9
 861 675 861 675 938.5 662 c 128,-1,10
 1016 649 1016 649 1052 649 c 0,11,12
 1094 649 1094 649 1130 660 c 1,13,14
 1163 633 1163 633 1163 585 c 0,15,16
 1163 539 1163 539 1122 504 c 1,17,-1
 780 143 l 1,18,19
 859 124 859 124 956 124 c 0,20,21
 1032 124 1032 124 1066 150 c 1,22,23
 1085 123 1085 123 1085 85 c 0,24,25
 1085 -14 1085 -14 949 -14 c 0,26,27
 904 -14 904 -14 822 0 c 128,-1,28
 740 14 740 14 710 14 c 0,29,30
 675 14 675 14 649 0 c 1,31,32
 635 11 635 11 626 34 c 128,-1,33
 617 57 617 57 617 80 c 0,34,35
 617 126 617 126 656 159 c 1,36,-1
 994 518 l 1,0,1
135 660 m 1,37,38
 237 667 237 667 320 667 c 0,39,40
 401 667 401 667 454.5 654.5 c 128,-1,41
 508 642 508 642 544 612.5 c 128,-1,42
 580 583 580 583 595.5 536 c 128,-1,43
 611 489 611 489 611 418 c 0,44,45
 611 343 611 343 594.5 278.5 c 128,-1,46
 578 214 578 214 544 161 c 128,-1,47
 510 108 510 108 460.5 71 c 128,-1,48
 411 34 411 34 342.5 13.5 c 128,-1,49
 274 -7 274 -7 192 -7 c 0,50,51
 105 -7 105 -7 7 0 c 1,52,-1
 135 660 l 1,37,38
184 69 m 1,53,54
 214 64 214 64 242 64 c 0,55,56
 274 64 274 64 300.5 75.5 c 128,-1,57
 327 87 327 87 346 107 c 128,-1,58
 365 127 365 127 380.5 157 c 128,-1,59
 396 187 396 187 407 220.5 c 128,-1,60
 418 254 418 254 427 297 c 0,61,62
 451 411 451 411 451 479 c 0,63,64
 451 540 451 540 425.5 568.5 c 128,-1,65
 400 597 400 597 343 597 c 0,66,67
 320 597 320 597 286 592 c 1,68,-1
 184 69 l 1,53,54
EndSplineSet
Validated: 8388609
Position2: "'cpsp' Capital Spacing lookup 3 subtable" dx=5 dy=0 dh=10 dv=0
EndChar

StartChar: DZcaron
Encoding: 452 452 23
Width: 1129
Flags: MW
HStem: -20 20G<7 7> -14 138<928 979 928 995> -7 71<234 296 234 332> 498 20G<994 994> 537 138<803 845> 597 70<334 382> 640 20G<135 135>
VStem: 451 160<455 512 294 519>
LayerCount: 2
UndoRedoHistory
Layer: 0
Undoes
EndUndoes
Redoes
EndRedoes
EndUndoRedoHistory
UndoRedoHistory
Layer: 1
Undoes
EndUndoes
Redoes
EndRedoes
EndUndoRedoHistory
Fore
SplineSet
842 846 m 1,0,-1
 953 794 l 1,1,-1
 1092 846 l 1,2,-1
 1121 803 l 1,3,-1
 961 692 l 1,4,-1
 925 692 l 1,5,-1
 797 804 l 1,6,-1
 842 846 l 1,0,-1
994 518 m 1,7,8
 880 537 880 537 824 537 c 0,9,10
 759 537 759 537 718 515 c 1,11,12
 698 545 698 545 698 585 c 0,13,14
 698 675 698 675 822 675 c 0,15,16
 861 675 861 675 938.5 662 c 128,-1,17
 1016 649 1016 649 1052 649 c 0,18,19
 1094 649 1094 649 1130 660 c 1,20,21
 1163 633 1163 633 1163 585 c 0,22,23
 1163 539 1163 539 1122 504 c 1,24,-1
 780 143 l 1,25,26
 859 124 859 124 956 124 c 0,27,28
 1032 124 1032 124 1066 150 c 1,29,30
 1085 123 1085 123 1085 85 c 0,31,32
 1085 -14 1085 -14 949 -14 c 0,33,34
 904 -14 904 -14 822 0 c 128,-1,35
 740 14 740 14 710 14 c 0,36,37
 675 14 675 14 649 0 c 1,38,39
 635 11 635 11 626 34 c 128,-1,40
 617 57 617 57 617 80 c 0,41,42
 617 126 617 126 656 159 c 1,43,-1
 994 518 l 1,7,8
135 660 m 1,44,45
 237 667 237 667 320 667 c 0,46,47
 401 667 401 667 454.5 654.5 c 128,-1,48
 508 642 508 642 544 612.5 c 128,-1,49
 580 583 580 583 595.5 536 c 128,-1,50
 611 489 611 489 611 418 c 0,51,52
 611 343 611 343 594.5 278.5 c 128,-1,53
 578 214 578 214 544 161 c 128,-1,54
 510 108 510 108 460.5 71 c 128,-1,55
 411 34 411 34 342.5 13.5 c 128,-1,56
 274 -7 274 -7 192 -7 c 0,57,58
 105 -7 105 -7 7 0 c 1,59,-1
 135 660 l 1,44,45
184 69 m 1,60,61
 214 64 214 64 242 64 c 0,62,63
 274 64 274 64 300.5 75.5 c 128,-1,64
 327 87 327 87 346 107 c 128,-1,65
 365 127 365 127 380.5 157 c 128,-1,66
 396 187 396 187 407 220.5 c 128,-1,67
 418 254 418 254 427 297 c 0,68,69
 451 411 451 411 451 479 c 0,70,71
 451 540 451 540 425.5 568.5 c 128,-1,72
 400 597 400 597 343 597 c 0,73,74
 320 597 320 597 286 592 c 1,75,-1
 184 69 l 1,60,61
EndSplineSet
Validated: 8388609
Position2: "'cpsp' Capital Spacing lookup 3 subtable" dx=5 dy=0 dh=10 dv=0
EndChar

StartChar: Eth
Encoding: 208 208 24
Width: 636
Flags: MW
HStem: -20 20G<7 7> -7 71<234 296 234 332> 293 82<52 64 -8 80 244 298> 597 70<334 382>
VStem: 451 160<455 512 294 519>
LayerCount: 2
UndoRedoHistory
Layer: 0
Undoes
EndUndoes
Redoes
EndRedoes
EndUndoRedoHistory
UndoRedoHistory
Layer: 1
Undoes
EndUndoes
Redoes
EndRedoes
EndUndoRedoHistory
Fore
SplineSet
135 660 m 1,0,1
 237 667 237 667 320 667 c 0,2,3
 401 667 401 667 454.5 654.5 c 128,-1,4
 508 642 508 642 544 612.5 c 128,-1,5
 580 583 580 583 595.5 536 c 128,-1,6
 611 489 611 489 611 418 c 0,7,8
 611 343 611 343 594.5 278.5 c 128,-1,9
 578 214 578 214 544 161 c 128,-1,10
 510 108 510 108 460.5 71 c 128,-1,11
 411 34 411 34 342.5 13.5 c 128,-1,12
 274 -7 274 -7 192 -7 c 0,13,14
 105 -7 105 -7 7 0 c 1,15,-1
 64 293 l 1,16,-1
 -8 293 l 1,17,18
 -10 302 -10 302 -10 319 c 0,19,20
 -10 345 -10 345 7 360 c 128,-1,21
 24 375 24 375 52 375 c 2,22,-1
 80 375 l 1,23,-1
 135 660 l 1,0,1
184 69 m 1,24,25
 214 64 214 64 242 64 c 0,26,27
 274 64 274 64 300.5 75.5 c 128,-1,28
 327 87 327 87 346 107 c 128,-1,29
 365 127 365 127 380.5 157 c 128,-1,30
 396 187 396 187 407 220.5 c 128,-1,31
 418 254 418 254 427 297 c 0,32,33
 451 411 451 411 451 479 c 0,34,35
 451 540 451 540 425.5 568.5 c 128,-1,36
 400 597 400 597 343 597 c 0,37,38
 320 597 320 597 286 592 c 1,39,-1
 244 375 l 1,40,-1
 364 375 l 1,41,42
 367 363 367 363 367 349 c 0,43,44
 367 324 367 324 350 308.5 c 128,-1,45
 333 293 333 293 298 293 c 2,46,-1
 228 293 l 1,47,-1
 184 69 l 1,24,25
EndSplineSet
Validated: 8388609
Position2: "'cpsp' Capital Spacing lookup 3 subtable" dx=5 dy=0 dh=10 dv=0
EndChar

StartChar: Dcaron
Encoding: 270 270 25
Width: 636
Flags: MW
HStem: -20 20G<7 7> -7 71<234 296 234 332> 597 70<334 382>
VStem: 451 160<455 512 294 519>
LayerCount: 2
UndoRedoHistory
Layer: 0
Undoes
EndUndoes
Redoes
EndRedoes
EndUndoRedoHistory
UndoRedoHistory
Layer: 1
Undoes
EndUndoes
Redoes
EndRedoes
EndUndoRedoHistory
Fore
SplineSet
275 846 m 1,0,-1
 386 794 l 1,1,-1
 525 846 l 1,2,-1
 554 803 l 1,3,-1
 394 692 l 1,4,-1
 358 692 l 1,5,-1
 230 804 l 1,6,-1
 275 846 l 1,0,-1
135 660 m 1,7,8
 237 667 237 667 320 667 c 0,9,10
 401 667 401 667 454.5 654.5 c 128,-1,11
 508 642 508 642 544 612.5 c 128,-1,12
 580 583 580 583 595.5 536 c 128,-1,13
 611 489 611 489 611 418 c 0,14,15
 611 343 611 343 594.5 278.5 c 128,-1,16
 578 214 578 214 544 161 c 128,-1,17
 510 108 510 108 460.5 71 c 128,-1,18
 411 34 411 34 342.5 13.5 c 128,-1,19
 274 -7 274 -7 192 -7 c 0,20,21
 105 -7 105 -7 7 0 c 1,22,-1
 135 660 l 1,7,8
184 69 m 1,23,24
 214 64 214 64 242 64 c 0,25,26
 274 64 274 64 300.5 75.5 c 128,-1,27
 327 87 327 87 346 107 c 128,-1,28
 365 127 365 127 380.5 157 c 128,-1,29
 396 187 396 187 407 220.5 c 128,-1,30
 418 254 418 254 427 297 c 0,31,32
 451 411 451 411 451 479 c 0,33,34
 451 540 451 540 425.5 568.5 c 128,-1,35
 400 597 400 597 343 597 c 0,36,37
 320 597 320 597 286 592 c 1,38,-1
 184 69 l 1,23,24
EndSplineSet
Validated: 8388609
Position2: "'cpsp' Capital Spacing lookup 3 subtable" dx=5 dy=0 dh=10 dv=0
EndChar

StartChar: Dcroat
Encoding: 272 272 26
Width: 636
Flags: MW
HStem: -20 20G<7 7> -7 71<234 296 234 332> 293 82<52 64 -8 80 244 298> 597 70<334 382>
VStem: 451 160<455 512 294 519>
LayerCount: 2
UndoRedoHistory
Layer: 0
Undoes
EndUndoes
Redoes
EndRedoes
EndUndoRedoHistory
UndoRedoHistory
Layer: 1
Undoes
EndUndoes
Redoes
EndRedoes
EndUndoRedoHistory
Fore
SplineSet
135 660 m 1,0,1
 237 667 237 667 320 667 c 0,2,3
 401 667 401 667 454.5 654.5 c 128,-1,4
 508 642 508 642 544 612.5 c 128,-1,5
 580 583 580 583 595.5 536 c 128,-1,6
 611 489 611 489 611 418 c 0,7,8
 611 343 611 343 594.5 278.5 c 128,-1,9
 578 214 578 214 544 161 c 128,-1,10
 510 108 510 108 460.5 71 c 128,-1,11
 411 34 411 34 342.5 13.5 c 128,-1,12
 274 -7 274 -7 192 -7 c 0,13,14
 105 -7 105 -7 7 0 c 1,15,-1
 64 293 l 1,16,-1
 -8 293 l 1,17,18
 -10 302 -10 302 -10 319 c 0,19,20
 -10 345 -10 345 7 360 c 128,-1,21
 24 375 24 375 52 375 c 2,22,-1
 80 375 l 1,23,-1
 135 660 l 1,0,1
184 69 m 1,24,25
 214 64 214 64 242 64 c 0,26,27
 274 64 274 64 300.5 75.5 c 128,-1,28
 327 87 327 87 346 107 c 128,-1,29
 365 127 365 127 380.5 157 c 128,-1,30
 396 187 396 187 407 220.5 c 128,-1,31
 418 254 418 254 427 297 c 0,32,33
 451 411 451 411 451 479 c 0,34,35
 451 540 451 540 425.5 568.5 c 128,-1,36
 400 597 400 597 343 597 c 0,37,38
 320 597 320 597 286 592 c 1,39,-1
 244 375 l 1,40,-1
 364 375 l 1,41,42
 367 363 367 363 367 349 c 0,43,44
 367 324 367 324 350 308.5 c 128,-1,45
 333 293 333 293 298 293 c 2,46,-1
 228 293 l 1,47,-1
 184 69 l 1,24,25
EndSplineSet
Validated: 8388609
Position2: "'cpsp' Capital Spacing lookup 3 subtable" dx=5 dy=0 dh=10 dv=0
EndChar

StartChar: Ddotbelow
Encoding: 7692 7692 27
Width: 636
Flags: MW
HStem: -187 139<199 246> -20 20G<7 7> -7 71<234 296 234 332> 597 70<334 382>
VStem: 133 178<-141 -96> 451 160<455 512 294 519>
LayerCount: 2
UndoRedoHistory
Layer: 0
Undoes
EndUndoes
Redoes
EndRedoes
EndUndoRedoHistory
UndoRedoHistory
Layer: 1
Undoes
EndUndoes
Redoes
EndRedoes
EndUndoRedoHistory
Fore
SplineSet
135 660 m 1,0,1
 237 667 237 667 320 667 c 0,2,3
 401 667 401 667 454.5 654.5 c 128,-1,4
 508 642 508 642 544 612.5 c 128,-1,5
 580 583 580 583 595.5 536 c 128,-1,6
 611 489 611 489 611 418 c 0,7,8
 611 343 611 343 594.5 278.5 c 128,-1,9
 578 214 578 214 544 161 c 128,-1,10
 510 108 510 108 460.5 71 c 128,-1,11
 411 34 411 34 342.5 13.5 c 128,-1,12
 274 -7 274 -7 192 -7 c 0,13,14
 105 -7 105 -7 7 0 c 1,15,-1
 135 660 l 1,0,1
184 69 m 1,16,17
 214 64 214 64 242 64 c 0,18,19
 274 64 274 64 300.5 75.5 c 128,-1,20
 327 87 327 87 346 107 c 128,-1,21
 365 127 365 127 380.5 157 c 128,-1,22
 396 187 396 187 407 220.5 c 128,-1,23
 418 254 418 254 427 297 c 0,24,25
 451 411 451 411 451 479 c 0,26,27
 451 540 451 540 425.5 568.5 c 128,-1,28
 400 597 400 597 343 597 c 0,29,30
 320 597 320 597 286 592 c 1,31,-1
 184 69 l 1,16,17
224 -48 m 0,32,33
 263 -48 263 -48 287 -66 c 128,-1,34
 311 -84 311 -84 311 -117 c 0,35,36
 311 -151 311 -151 285.5 -169 c 128,-1,37
 260 -187 260 -187 220 -187 c 0,38,39
 181 -187 181 -187 157 -169.5 c 128,-1,40
 133 -152 133 -152 133 -119 c 0,41,42
 133 -85 133 -85 158.5 -66.5 c 128,-1,43
 184 -48 184 -48 224 -48 c 0,32,33
EndSplineSet
Validated: 8388609
Position2: "'cpsp' Capital Spacing lookup 3 subtable" dx=5 dy=0 dh=10 dv=0
EndChar

StartChar: Dz
Encoding: 498 498 28
Width: 1060
Flags: MW
HStem: -20 20G<7 7> -18 131<898 933 898 947> -7 71<234 296 234 332> 404 126<773 810> 496 20G 597 70<334 382>
VStem: 451 160<455 512 294 519>
LayerCount: 2
UndoRedoHistory
Layer: 0
Undoes
EndUndoes
Redoes
EndRedoes
EndUndoRedoHistory
UndoRedoHistory
Layer: 1
Undoes
EndUndoes
Redoes
EndRedoes
EndUndoRedoHistory
Fore
SplineSet
135 660 m 1,0,1
 237 667 237 667 320 667 c 0,2,3
 401 667 401 667 454.5 654.5 c 128,-1,4
 508 642 508 642 544 612.5 c 128,-1,5
 580 583 580 583 595.5 536 c 128,-1,6
 611 489 611 489 611 418 c 0,7,8
 611 343 611 343 594.5 278.5 c 128,-1,9
 578 214 578 214 544 161 c 128,-1,10
 510 108 510 108 460.5 71 c 128,-1,11
 411 34 411 34 342.5 13.5 c 128,-1,12
 274 -7 274 -7 192 -7 c 0,13,14
 105 -7 105 -7 7 0 c 1,15,-1
 135 660 l 1,0,1
184 69 m 1,16,17
 214 64 214 64 242 64 c 0,18,19
 274 64 274 64 300.5 75.5 c 128,-1,20
 327 87 327 87 346 107 c 128,-1,21
 365 127 365 127 380.5 157 c 128,-1,22
 396 187 396 187 407 220.5 c 128,-1,23
 418 254 418 254 427 297 c 0,24,25
 451 411 451 411 451 479 c 0,26,27
 451 540 451 540 425.5 568.5 c 128,-1,28
 400 597 400 597 343 597 c 0,29,30
 320 597 320 597 286 592 c 1,31,-1
 184 69 l 1,16,17
931 387 m 1,32,33
 860 404 860 404 793 404 c 0,34,35
 734 404 734 404 709 369 c 1,36,37
 683 400 683 400 683 446 c 0,38,39
 683 490 683 490 713.5 510 c 128,-1,40
 744 530 744 530 794 530 c 0,41,42
 827 530 827 530 899.5 518 c 128,-1,43
 972 506 972 506 1003 506 c 0,44,45
 1038 506 1038 506 1058 516 c 1,46,47
 1080 495 1080 495 1080 464 c 0,48,49
 1080 417 1080 417 1034 378 c 1,50,-1
 774 132 l 1,51,52
 805 124 805 124 847 118.5 c 128,-1,53
 889 113 889 113 916 113 c 0,54,55
 979 113 979 113 1010 146 c 1,56,57
 1033 120 1033 120 1033 78 c 0,58,59
 1033 30 1033 30 1000.5 6 c 128,-1,60
 968 -18 968 -18 914 -18 c 0,61,62
 880 -18 880 -18 813 -4.5 c 128,-1,63
 746 9 746 9 715 9 c 0,64,65
 681 9 681 9 656 -2 c 1,66,67
 643 7 643 7 634.5 23.5 c 128,-1,68
 626 40 626 40 626 61 c 0,69,70
 626 112 626 112 675 157 c 2,71,-1
 931 387 l 1,32,33
EndSplineSet
Validated: 8388609
Position2: "'cpsp' Capital Spacing lookup 3 subtable" dx=5 dy=0 dh=10 dv=0
EndChar

StartChar: Dzcaron
Encoding: 453 453 29
Width: 1060
Flags: MW
HStem: -20 20G<7 7> -18 131<898 933 898 947> -7 71<234 296 234 332> 404 126<773 810> 496 20G 597 70<334 382>
VStem: 451 160<455 512 294 519>
LayerCount: 2
UndoRedoHistory
Layer: 0
Undoes
EndUndoes
Redoes
EndRedoes
EndUndoRedoHistory
UndoRedoHistory
Layer: 1
Undoes
EndUndoes
Redoes
EndRedoes
EndUndoRedoHistory
Fore
SplineSet
812 696 m 1,0,-1
 923 644 l 1,1,-1
 1062 696 l 1,2,-1
 1091 653 l 1,3,-1
 931 542 l 1,4,-1
 895 542 l 1,5,-1
 767 654 l 1,6,-1
 812 696 l 1,0,-1
135 660 m 1,7,8
 237 667 237 667 320 667 c 0,9,10
 401 667 401 667 454.5 654.5 c 128,-1,11
 508 642 508 642 544 612.5 c 128,-1,12
 580 583 580 583 595.5 536 c 128,-1,13
 611 489 611 489 611 418 c 0,14,15
 611 343 611 343 594.5 278.5 c 128,-1,16
 578 214 578 214 544 161 c 128,-1,17
 510 108 510 108 460.5 71 c 128,-1,18
 411 34 411 34 342.5 13.5 c 128,-1,19
 274 -7 274 -7 192 -7 c 0,20,21
 105 -7 105 -7 7 0 c 1,22,-1
 135 660 l 1,7,8
184 69 m 1,23,24
 214 64 214 64 242 64 c 0,25,26
 274 64 274 64 300.5 75.5 c 128,-1,27
 327 87 327 87 346 107 c 128,-1,28
 365 127 365 127 380.5 157 c 128,-1,29
 396 187 396 187 407 220.5 c 128,-1,30
 418 254 418 254 427 297 c 0,31,32
 451 411 451 411 451 479 c 0,33,34
 451 540 451 540 425.5 568.5 c 128,-1,35
 400 597 400 597 343 597 c 0,36,37
 320 597 320 597 286 592 c 1,38,-1
 184 69 l 1,23,24
931 387 m 1,39,40
 860 404 860 404 793 404 c 0,41,42
 734 404 734 404 709 369 c 1,43,44
 683 400 683 400 683 446 c 0,45,46
 683 490 683 490 713.5 510 c 128,-1,47
 744 530 744 530 794 530 c 0,48,49
 827 530 827 530 899.5 518 c 128,-1,50
 972 506 972 506 1003 506 c 0,51,52
 1038 506 1038 506 1058 516 c 1,53,54
 1080 495 1080 495 1080 464 c 0,55,56
 1080 417 1080 417 1034 378 c 1,57,-1
 774 132 l 1,58,59
 805 124 805 124 847 118.5 c 128,-1,60
 889 113 889 113 916 113 c 0,61,62
 979 113 979 113 1010 146 c 1,63,64
 1033 120 1033 120 1033 78 c 0,65,66
 1033 30 1033 30 1000.5 6 c 128,-1,67
 968 -18 968 -18 914 -18 c 0,68,69
 880 -18 880 -18 813 -4.5 c 128,-1,70
 746 9 746 9 715 9 c 0,71,72
 681 9 681 9 656 -2 c 1,73,74
 643 7 643 7 634.5 23.5 c 128,-1,75
 626 40 626 40 626 61 c 0,76,77
 626 112 626 112 675 157 c 2,78,-1
 931 387 l 1,39,40
EndSplineSet
Validated: 8388609
Position2: "'cpsp' Capital Spacing lookup 3 subtable" dx=5 dy=0 dh=10 dv=0
EndChar

StartChar: E
Encoding: 69 69 30
Width: 468
Flags: MW
HStem: 0 105<197 291> 285 97<308 359> 550 110<379 438> 577 83<283 283>
VStem: 10 505
LayerCount: 2
UndoRedoHistory
Layer: 0
Undoes
EndUndoes
Redoes
EndRedoes
EndUndoRedoHistory
UndoRedoHistory
Layer: 1
Undoes
EndUndoes
Redoes
EndRedoes
EndUndoRedoHistory
Fore
SplineSet
515 660 m 1,0,1
 515 606 515 606 486 578 c 128,-1,2
 457 550 457 550 402 550 c 0,3,4
 349 550 349 550 283 577 c 1,5,-1
 249 382 l 1,6,-1
 428 382 l 1,7,8
 428 334 428 334 402 309.5 c 128,-1,9
 376 285 376 285 329 285 c 0,10,11
 278 285 278 285 234 308 c 1,12,-1
 197 105 l 1,13,-1
 302 105 l 2,14,15
 364 105 364 105 391 116 c 1,16,17
 405 97 405 97 405 66 c 0,18,19
 405 0 405 0 291 0 c 2,20,-1
 10 0 l 1,21,-1
 135 660 l 1,22,-1
 515 660 l 1,0,1
EndSplineSet
Validated: 8388609
Position2: "'cpsp' Capital Spacing lookup 3 subtable" dx=5 dy=0 dh=10 dv=0
EndChar

StartChar: Eacute
Encoding: 201 201 31
Width: 468
Flags: MW
HStem: 0 105<197 291> 285 97<308 359> 550 110<379 438> 577 83<283 283>
VStem: 10 508
LayerCount: 2
UndoRedoHistory
Layer: 0
Undoes
EndUndoes
Redoes
EndRedoes
EndUndoRedoHistory
UndoRedoHistory
Layer: 1
Undoes
EndUndoes
Redoes
EndRedoes
EndUndoRedoHistory
Fore
SplineSet
254 758 m 1,0,-1
 493 853 l 1,1,2
 518 836 518 836 518 804 c 0,3,4
 518 721 518 721 381 717 c 1,5,-1
 264 712 l 1,6,-1
 254 758 l 1,0,-1
515 660 m 1,7,8
 515 606 515 606 486 578 c 128,-1,9
 457 550 457 550 402 550 c 0,10,11
 349 550 349 550 283 577 c 1,12,-1
 249 382 l 1,13,-1
 428 382 l 1,14,15
 428 334 428 334 402 309.5 c 128,-1,16
 376 285 376 285 329 285 c 0,17,18
 278 285 278 285 234 308 c 1,19,-1
 197 105 l 1,20,-1
 302 105 l 2,21,22
 364 105 364 105 391 116 c 1,23,24
 405 97 405 97 405 66 c 0,25,26
 405 0 405 0 291 0 c 2,27,-1
 10 0 l 1,28,-1
 135 660 l 1,29,-1
 515 660 l 1,7,8
EndSplineSet
Validated: 8388609
Position2: "'cpsp' Capital Spacing lookup 3 subtable" dx=5 dy=0 dh=10 dv=0
EndChar

StartChar: Ebreve
Encoding: 276 276 32
Width: 468
Flags: MW
HStem: 0 105<197 291> 285 97<308 359> 550 110<379 438> 577 83<283 283> 700 49<330 371 330 396>
VStem: 187 117<788 805 788 811>
LayerCount: 2
UndoRedoHistory
Layer: 0
Undoes
EndUndoes
Redoes
EndRedoes
EndUndoRedoHistory
UndoRedoHistory
Layer: 1
Undoes
EndUndoes
Redoes
EndRedoes
EndUndoRedoHistory
Fore
SplineSet
308 833 m 1,0,1
 304 814 304 814 304 800 c 0,2,3
 304 779 304 779 314 764 c 128,-1,4
 324 749 324 749 347 749 c 0,5,6
 379 749 379 749 398 774 c 128,-1,7
 417 799 417 799 424 833 c 1,8,-1
 536 833 l 1,9,10
 523 772 523 772 472.5 736 c 128,-1,11
 422 700 422 700 337 700 c 0,12,13
 264 700 264 700 225.5 729 c 128,-1,14
 187 758 187 758 187 806 c 0,15,16
 187 818 187 818 190 833 c 1,17,-1
 308 833 l 1,0,1
515 660 m 1,18,19
 515 606 515 606 486 578 c 128,-1,20
 457 550 457 550 402 550 c 0,21,22
 349 550 349 550 283 577 c 1,23,-1
 249 382 l 1,24,-1
 428 382 l 1,25,26
 428 334 428 334 402 309.5 c 128,-1,27
 376 285 376 285 329 285 c 0,28,29
 278 285 278 285 234 308 c 1,30,-1
 197 105 l 1,31,-1
 302 105 l 2,32,33
 364 105 364 105 391 116 c 1,34,35
 405 97 405 97 405 66 c 0,36,37
 405 0 405 0 291 0 c 2,38,-1
 10 0 l 1,39,-1
 135 660 l 1,40,-1
 515 660 l 1,18,19
EndSplineSet
Validated: 8388609
Position2: "'cpsp' Capital Spacing lookup 3 subtable" dx=5 dy=0 dh=10 dv=0
EndChar

StartChar: Ecaron
Encoding: 282 282 33
Width: 468
Flags: MW
HStem: 0 105<197 291> 285 97<308 359> 550 110<379 438> 577 83<283 283>
VStem: 10 509
LayerCount: 2
UndoRedoHistory
Layer: 0
Undoes
EndUndoes
Redoes
EndRedoes
EndUndoRedoHistory
UndoRedoHistory
Layer: 1
Undoes
EndUndoes
Redoes
EndRedoes
EndUndoRedoHistory
Fore
SplineSet
240 846 m 1,0,-1
 351 794 l 1,1,-1
 490 846 l 1,2,-1
 519 803 l 1,3,-1
 359 692 l 1,4,-1
 323 692 l 1,5,-1
 195 804 l 1,6,-1
 240 846 l 1,0,-1
515 660 m 1,7,8
 515 606 515 606 486 578 c 128,-1,9
 457 550 457 550 402 550 c 0,10,11
 349 550 349 550 283 577 c 1,12,-1
 249 382 l 1,13,-1
 428 382 l 1,14,15
 428 334 428 334 402 309.5 c 128,-1,16
 376 285 376 285 329 285 c 0,17,18
 278 285 278 285 234 308 c 1,19,-1
 197 105 l 1,20,-1
 302 105 l 2,21,22
 364 105 364 105 391 116 c 1,23,24
 405 97 405 97 405 66 c 0,25,26
 405 0 405 0 291 0 c 2,27,-1
 10 0 l 1,28,-1
 135 660 l 1,29,-1
 515 660 l 1,7,8
EndSplineSet
Validated: 8388609
Position2: "'cpsp' Capital Spacing lookup 3 subtable" dx=5 dy=0 dh=10 dv=0
EndChar

StartChar: Ecircumflex
Encoding: 202 202 34
Width: 468
Flags: MW
HStem: 0 105<197 291> 285 97<308 359> 550 110<379 438> 577 83<283 283>
VStem: 10 505
LayerCount: 2
UndoRedoHistory
Layer: 0
Undoes
EndUndoes
Redoes
EndRedoes
EndUndoRedoHistory
UndoRedoHistory
Layer: 1
Undoes
EndUndoes
Redoes
EndRedoes
EndUndoRedoHistory
Fore
SplineSet
447 681 m 1,0,-1
 336 743 l 1,1,-1
 197 681 l 1,2,-1
 168 729 l 1,3,-1
 333 845 l 1,4,-1
 359 845 l 1,5,-1
 492 728 l 1,6,-1
 447 681 l 1,0,-1
515 660 m 1,7,8
 515 606 515 606 486 578 c 128,-1,9
 457 550 457 550 402 550 c 0,10,11
 349 550 349 550 283 577 c 1,12,-1
 249 382 l 1,13,-1
 428 382 l 1,14,15
 428 334 428 334 402 309.5 c 128,-1,16
 376 285 376 285 329 285 c 0,17,18
 278 285 278 285 234 308 c 1,19,-1
 197 105 l 1,20,-1
 302 105 l 2,21,22
 364 105 364 105 391 116 c 1,23,24
 405 97 405 97 405 66 c 0,25,26
 405 0 405 0 291 0 c 2,27,-1
 10 0 l 1,28,-1
 135 660 l 1,29,-1
 515 660 l 1,7,8
EndSplineSet
Validated: 8388609
Position2: "'cpsp' Capital Spacing lookup 3 subtable" dx=5 dy=0 dh=10 dv=0
EndChar

StartChar: Edieresis
Encoding: 203 203 35
Width: 468
Flags: MW
HStem: 0 105<197 291> 285 97<308 359> 550 110<379 438> 577 83<283 283> 709 139<209 256 432 479>
VStem: 144 177<755 800> 366 177<755 800>
LayerCount: 2
UndoRedoHistory
Layer: 0
Undoes
EndUndoes
Redoes
EndRedoes
EndUndoRedoHistory
UndoRedoHistory
Layer: 1
Undoes
EndUndoes
Redoes
EndRedoes
EndUndoRedoHistory
Fore
SplineSet
235 848 m 0,0,1
 274 848 274 848 297.5 830 c 128,-1,2
 321 812 321 812 321 779 c 0,3,4
 321 745 321 745 296 727 c 128,-1,5
 271 709 271 709 231 709 c 0,6,7
 192 709 192 709 168 726.5 c 128,-1,8
 144 744 144 744 144 777 c 0,9,10
 144 811 144 811 169.5 829.5 c 128,-1,11
 195 848 195 848 235 848 c 0,0,1
457 848 m 0,12,13
 496 848 496 848 519.5 830 c 128,-1,14
 543 812 543 812 543 779 c 0,15,16
 543 745 543 745 518 727 c 128,-1,17
 493 709 493 709 453 709 c 0,18,19
 414 709 414 709 390 726.5 c 128,-1,20
 366 744 366 744 366 777 c 0,21,22
 366 811 366 811 391.5 829.5 c 128,-1,23
 417 848 417 848 457 848 c 0,12,13
515 660 m 1,24,25
 515 606 515 606 486 578 c 128,-1,26
 457 550 457 550 402 550 c 0,27,28
 349 550 349 550 283 577 c 1,29,-1
 249 382 l 1,30,-1
 428 382 l 1,31,32
 428 334 428 334 402 309.5 c 128,-1,33
 376 285 376 285 329 285 c 0,34,35
 278 285 278 285 234 308 c 1,36,-1
 197 105 l 1,37,-1
 302 105 l 2,38,39
 364 105 364 105 391 116 c 1,40,41
 405 97 405 97 405 66 c 0,42,43
 405 0 405 0 291 0 c 2,44,-1
 10 0 l 1,45,-1
 135 660 l 1,46,-1
 515 660 l 1,24,25
EndSplineSet
Validated: 8388609
Position2: "'cpsp' Capital Spacing lookup 3 subtable" dx=5 dy=0 dh=10 dv=0
EndChar

StartChar: Edotaccent
Encoding: 278 278 36
Width: 468
Flags: MW
HStem: 0 105<197 291> 285 97<308 359> 550 110<379 438> 577 83<283 283> 709 139<316 363>
VStem: 251 177<755 800>
LayerCount: 2
UndoRedoHistory
Layer: 0
Undoes
EndUndoes
Redoes
EndRedoes
EndUndoRedoHistory
UndoRedoHistory
Layer: 1
Undoes
EndUndoes
Redoes
EndRedoes
EndUndoRedoHistory
Fore
SplineSet
342 848 m 0,0,1
 381 848 381 848 404.5 830 c 128,-1,2
 428 812 428 812 428 779 c 0,3,4
 428 745 428 745 403 727 c 128,-1,5
 378 709 378 709 338 709 c 0,6,7
 299 709 299 709 275 726.5 c 128,-1,8
 251 744 251 744 251 777 c 0,9,10
 251 811 251 811 276.5 829.5 c 128,-1,11
 302 848 302 848 342 848 c 0,0,1
515 660 m 1,12,13
 515 606 515 606 486 578 c 128,-1,14
 457 550 457 550 402 550 c 0,15,16
 349 550 349 550 283 577 c 1,17,-1
 249 382 l 1,18,-1
 428 382 l 1,19,20
 428 334 428 334 402 309.5 c 128,-1,21
 376 285 376 285 329 285 c 0,22,23
 278 285 278 285 234 308 c 1,24,-1
 197 105 l 1,25,-1
 302 105 l 2,26,27
 364 105 364 105 391 116 c 1,28,29
 405 97 405 97 405 66 c 0,30,31
 405 0 405 0 291 0 c 2,32,-1
 10 0 l 1,33,-1
 135 660 l 1,34,-1
 515 660 l 1,12,13
EndSplineSet
Validated: 8388609
Position2: "'cpsp' Capital Spacing lookup 3 subtable" dx=5 dy=0 dh=10 dv=0
EndChar

StartChar: Edotbelow
Encoding: 7864 7864 37
Width: 468
Flags: MW
HStem: -187 139<167 214> 0 105<197 291> 285 97<308 359> 550 110<379 438> 577 83<283 283>
VStem: 102 178<-141 -96>
LayerCount: 2
UndoRedoHistory
Layer: 0
Undoes
EndUndoes
Redoes
EndRedoes
EndUndoRedoHistory
UndoRedoHistory
Layer: 1
Undoes
EndUndoes
Redoes
EndRedoes
EndUndoRedoHistory
Fore
SplineSet
515 660 m 1,0,1
 515 606 515 606 486 578 c 128,-1,2
 457 550 457 550 402 550 c 0,3,4
 349 550 349 550 283 577 c 1,5,-1
 249 382 l 1,6,-1
 428 382 l 1,7,8
 428 334 428 334 402 309.5 c 128,-1,9
 376 285 376 285 329 285 c 0,10,11
 278 285 278 285 234 308 c 1,12,-1
 197 105 l 1,13,-1
 302 105 l 2,14,15
 364 105 364 105 391 116 c 1,16,17
 405 97 405 97 405 66 c 0,18,19
 405 0 405 0 291 0 c 2,20,-1
 10 0 l 1,21,-1
 135 660 l 1,22,-1
 515 660 l 1,0,1
193 -48 m 0,23,24
 232 -48 232 -48 256 -66 c 128,-1,25
 280 -84 280 -84 280 -117 c 0,26,27
 280 -151 280 -151 254.5 -169 c 128,-1,28
 229 -187 229 -187 189 -187 c 0,29,30
 150 -187 150 -187 126 -169.5 c 128,-1,31
 102 -152 102 -152 102 -119 c 0,32,33
 102 -85 102 -85 127.5 -66.5 c 128,-1,34
 153 -48 153 -48 193 -48 c 0,23,24
EndSplineSet
Validated: 8388609
Position2: "'cpsp' Capital Spacing lookup 3 subtable" dx=5 dy=0 dh=10 dv=0
EndChar

StartChar: Egrave
Encoding: 200 200 38
Width: 468
Flags: MW
HStem: 0 105<197 291> 285 97<308 359> 550 110<379 438> 577 83<283 283>
VStem: 10 505
LayerCount: 2
UndoRedoHistory
Layer: 0
Undoes
EndUndoes
Redoes
EndRedoes
EndUndoRedoHistory
UndoRedoHistory
Layer: 1
Undoes
EndUndoes
Redoes
EndRedoes
EndUndoRedoHistory
Fore
SplineSet
426 712 m 1,0,-1
 309 717 l 2,1,2
 171 723 171 723 171 804 c 0,3,4
 171 835 171 835 196 854 c 1,5,-1
 436 758 l 1,6,-1
 426 712 l 1,0,-1
515 660 m 1,7,8
 515 606 515 606 486 578 c 128,-1,9
 457 550 457 550 402 550 c 0,10,11
 349 550 349 550 283 577 c 1,12,-1
 249 382 l 1,13,-1
 428 382 l 1,14,15
 428 334 428 334 402 309.5 c 128,-1,16
 376 285 376 285 329 285 c 0,17,18
 278 285 278 285 234 308 c 1,19,-1
 197 105 l 1,20,-1
 302 105 l 2,21,22
 364 105 364 105 391 116 c 1,23,24
 405 97 405 97 405 66 c 0,25,26
 405 0 405 0 291 0 c 2,27,-1
 10 0 l 1,28,-1
 135 660 l 1,29,-1
 515 660 l 1,7,8
EndSplineSet
Validated: 8388609
Position2: "'cpsp' Capital Spacing lookup 3 subtable" dx=5 dy=0 dh=10 dv=0
EndChar

StartChar: Emacron
Encoding: 274 274 39
Width: 468
Flags: MW
HStem: 0 105<197 291> 285 97<308 359> 550 110<379 438> 577 83<283 283> 737 87<256 417 194 485>
VStem: 10 505
LayerCount: 2
UndoRedoHistory
Layer: 0
Undoes
EndUndoes
Redoes
EndRedoes
EndUndoRedoHistory
UndoRedoHistory
Layer: 1
Undoes
EndUndoes
Redoes
EndRedoes
EndUndoRedoHistory
Fore
SplineSet
485 824 m 1,0,1
 489 810 489 810 489 798 c 0,2,3
 489 771 489 771 470.5 754 c 128,-1,4
 452 737 452 737 417 737 c 2,5,-1
 194 737 l 1,6,7
 192 746 192 746 192 763 c 0,8,9
 192 791 192 791 210 807.5 c 128,-1,10
 228 824 228 824 256 824 c 2,11,-1
 485 824 l 1,0,1
515 660 m 1,12,13
 515 606 515 606 486 578 c 128,-1,14
 457 550 457 550 402 550 c 0,15,16
 349 550 349 550 283 577 c 1,17,-1
 249 382 l 1,18,-1
 428 382 l 1,19,20
 428 334 428 334 402 309.5 c 128,-1,21
 376 285 376 285 329 285 c 0,22,23
 278 285 278 285 234 308 c 1,24,-1
 197 105 l 1,25,-1
 302 105 l 2,26,27
 364 105 364 105 391 116 c 1,28,29
 405 97 405 97 405 66 c 0,30,31
 405 0 405 0 291 0 c 2,32,-1
 10 0 l 1,33,-1
 135 660 l 1,34,-1
 515 660 l 1,12,13
EndSplineSet
Validated: 8388609
Position2: "'cpsp' Capital Spacing lookup 3 subtable" dx=5 dy=0 dh=10 dv=0
EndChar

StartChar: Eogonek
Encoding: 280 280 40
Width: 468
Flags: MW
HStem: -258 73<305 331> 0 105<197 275> 285 97<308 359> 550 110<379 438> 577 83<283 283>
VStem: 178 92<-149 -114>
LayerCount: 2
UndoRedoHistory
Layer: 0
Undoes
EndUndoes
Redoes
EndRedoes
EndUndoRedoHistory
UndoRedoHistory
Layer: 1
Undoes
EndUndoes
Redoes
EndRedoes
EndUndoRedoHistory
Fore
SplineSet
515 660 m 1,0,1
 515 606 515 606 486 578 c 128,-1,2
 457 550 457 550 402 550 c 0,3,4
 349 550 349 550 283 577 c 1,5,-1
 249 382 l 1,6,-1
 428 382 l 1,7,8
 428 334 428 334 402 309.5 c 128,-1,9
 376 285 376 285 329 285 c 0,10,11
 278 285 278 285 234 308 c 1,12,-1
 197 105 l 1,13,-1
 302 105 l 2,14,15
 364 105 364 105 391 116 c 1,16,17
 405 97 405 97 405 66 c 0,18,19
 405 25 405 25 364 10 c 1,20,21
 322 -16 322 -16 296 -53.5 c 128,-1,22
 270 -91 270 -91 270 -130 c 0,23,24
 270 -159 270 -159 282.5 -172 c 128,-1,25
 295 -185 295 -185 323 -185 c 0,26,27
 360 -185 360 -185 380 -160 c 1,28,29
 397 -177 397 -177 397 -198 c 0,30,31
 397 -223 397 -223 371 -240.5 c 128,-1,32
 345 -258 345 -258 301 -258 c 0,33,34
 244 -258 244 -258 211 -229.5 c 128,-1,35
 178 -201 178 -201 178 -148 c 0,36,37
 178 -100 178 -100 205 -62 c 128,-1,38
 232 -24 232 -24 275 0 c 1,39,-1
 10 0 l 1,40,-1
 135 660 l 1,41,-1
 515 660 l 1,0,1
EndSplineSet
Validated: 8388609
Position2: "'cpsp' Capital Spacing lookup 3 subtable" dx=5 dy=0 dh=10 dv=0
EndChar

StartChar: Etilde
Encoding: 7868 7868 41
Width: 468
Flags: MW
HStem: 0 105<197 291> 285 97<308 359> 550 110<379 438> 577 83<283 283> 724 96<425 460 425 460> 741 96<235 269>
VStem: 10 511
LayerCount: 2
UndoRedoHistory
Layer: 0
Undoes
EndUndoes
Redoes
EndRedoes
EndUndoRedoHistory
UndoRedoHistory
Layer: 1
Undoes
EndUndoes
Redoes
EndRedoes
EndUndoRedoHistory
Fore
SplineSet
503 837 m 1,0,1
 521 815 521 815 521 791 c 0,2,3
 521 759 521 759 498 741.5 c 128,-1,4
 475 724 475 724 434 724 c 0,5,6
 412 724 412 724 340.5 732.5 c 128,-1,7
 269 741 269 741 249 741 c 0,8,9
 211 741 211 741 188 725 c 1,10,11
 169 750 169 750 169 776 c 0,12,13
 169 805 169 805 192 821 c 128,-1,14
 215 837 215 837 259 837 c 0,15,16
 284 837 284 837 355 828.5 c 128,-1,17
 426 820 426 820 448 820 c 0,18,19
 489 820 489 820 503 837 c 1,0,1
515 660 m 1,20,21
 515 606 515 606 486 578 c 128,-1,22
 457 550 457 550 402 550 c 0,23,24
 349 550 349 550 283 577 c 1,25,-1
 249 382 l 1,26,-1
 428 382 l 1,27,28
 428 334 428 334 402 309.5 c 128,-1,29
 376 285 376 285 329 285 c 0,30,31
 278 285 278 285 234 308 c 1,32,-1
 197 105 l 1,33,-1
 302 105 l 2,34,35
 364 105 364 105 391 116 c 1,36,37
 405 97 405 97 405 66 c 0,38,39
 405 0 405 0 291 0 c 2,40,-1
 10 0 l 1,41,-1
 135 660 l 1,42,-1
 515 660 l 1,20,21
EndSplineSet
Validated: 8388609
Position2: "'cpsp' Capital Spacing lookup 3 subtable" dx=5 dy=0 dh=10 dv=0
EndChar

StartChar: F
Encoding: 70 70 42
Width: 470
Flags: MW
HStem: 285 101<313 368> 548 112<389 447> 575 85<283 283>
VStem: 10 512
LayerCount: 2
UndoRedoHistory
Layer: 0
Undoes
EndUndoes
Redoes
EndRedoes
EndUndoRedoHistory
UndoRedoHistory
Layer: 1
Undoes
EndUndoes
Redoes
EndRedoes
EndUndoRedoHistory
Fore
SplineSet
522 660 m 1,0,1
 522 548 522 548 410 548 c 0,2,3
 345 548 345 548 283 575 c 1,4,-1
 250 386 l 1,5,-1
 436 386 l 1,6,7
 436 338 436 338 410 311.5 c 128,-1,8
 384 285 384 285 334 285 c 0,9,10
 285 285 285 285 234 309 c 1,11,-1
 179 0 l 1,12,-1
 10 0 l 1,13,-1
 135 660 l 1,14,-1
 522 660 l 1,0,1
EndSplineSet
Validated: 8388609
Position2: "'cpsp' Capital Spacing lookup 3 subtable" dx=5 dy=0 dh=10 dv=0
EndChar

StartChar: G
Encoding: 71 71 43
Width: 583
Flags: MW
HStem: -20 108<153 311> 609 71<313 396>
VStem: 24 170<208 316 208 349> 376 127 433 149<519 548>
LayerCount: 2
UndoRedoHistory
Layer: 0
Undoes
EndUndoes
Redoes
EndRedoes
EndUndoRedoHistory
UndoRedoHistory
Layer: 1
Undoes
EndUndoes
Redoes
EndRedoes
EndUndoRedoHistory
Fore
SplineSet
570 333 m 1,0,1
 538 262 538 262 521 173 c 128,-1,2
 504 84 504 84 503 -3 c 1,3,4
 484 -20 484 -20 455 -20 c 0,5,6
 420 -20 420 -20 399 -3.5 c 128,-1,7
 378 13 378 13 376 37 c 1,8,9
 348 12 348 12 306 -4 c 128,-1,10
 264 -20 264 -20 219 -20 c 0,11,12
 122 -20 122 -20 73 48 c 128,-1,13
 24 116 24 116 24 236 c 0,14,15
 24 304 24 304 39 368.5 c 128,-1,16
 54 433 54 433 85 489.5 c 128,-1,17
 116 546 116 546 160 588.5 c 128,-1,18
 204 631 204 631 265.5 655.5 c 128,-1,19
 327 680 327 680 398 680 c 0,20,21
 449 680 449 680 489 668 c 128,-1,22
 529 656 529 656 555.5 626.5 c 128,-1,23
 582 597 582 597 582 554 c 0,24,25
 582 503 582 503 549.5 472.5 c 128,-1,26
 517 442 517 442 470 442 c 0,27,28
 439 442 439 442 422 453 c 1,29,30
 433 489 433 489 433 529 c 0,31,32
 433 562 433 562 418.5 585.5 c 128,-1,33
 404 609 404 609 372 609 c 0,34,35
 338 609 338 609 308.5 584.5 c 128,-1,36
 279 560 279 560 258.5 521 c 128,-1,37
 238 482 238 482 223 434 c 128,-1,38
 208 386 208 386 201 338 c 128,-1,39
 194 290 194 290 194 247 c 0,40,41
 194 88 194 88 299 88 c 0,42,43
 351 88 351 88 374 109 c 1,44,-1
 406 315 l 1,45,-1
 570 333 l 1,0,1
EndSplineSet
Validated: 8388609
Position2: "'cpsp' Capital Spacing lookup 3 subtable" dx=5 dy=0 dh=10 dv=0
EndChar

StartChar: Gbreve
Encoding: 286 286 44
Width: 583
Flags: MW
HStem: -20 108<153 311> 609 71<313 396> 700 49<400 440 400 465>
VStem: 24 170<208 316 208 349> 257 117<788 805> 376 127 433 149<519 548>
LayerCount: 2
UndoRedoHistory
Layer: 0
Undoes
EndUndoes
Redoes
EndRedoes
EndUndoRedoHistory
UndoRedoHistory
Layer: 1
Undoes
EndUndoes
Redoes
EndRedoes
EndUndoRedoHistory
Fore
SplineSet
378 833 m 1,0,1
 374 814 374 814 374 800 c 0,2,3
 374 779 374 779 384 764 c 128,-1,4
 394 749 394 749 417 749 c 0,5,6
 449 749 449 749 468 774 c 128,-1,7
 487 799 487 799 494 833 c 1,8,-1
 606 833 l 1,9,10
 593 772 593 772 542.5 736 c 128,-1,11
 492 700 492 700 407 700 c 0,12,13
 334 700 334 700 295.5 729 c 128,-1,14
 257 758 257 758 257 806 c 0,15,16
 257 818 257 818 260 833 c 1,17,-1
 378 833 l 1,0,1
570 333 m 1,18,19
 538 262 538 262 521 173 c 128,-1,20
 504 84 504 84 503 -3 c 1,21,22
 484 -20 484 -20 455 -20 c 0,23,24
 420 -20 420 -20 399 -3.5 c 128,-1,25
 378 13 378 13 376 37 c 1,26,27
 348 12 348 12 306 -4 c 128,-1,28
 264 -20 264 -20 219 -20 c 0,29,30
 122 -20 122 -20 73 48 c 128,-1,31
 24 116 24 116 24 236 c 0,32,33
 24 304 24 304 39 368.5 c 128,-1,34
 54 433 54 433 85 489.5 c 128,-1,35
 116 546 116 546 160 588.5 c 128,-1,36
 204 631 204 631 265.5 655.5 c 128,-1,37
 327 680 327 680 398 680 c 0,38,39
 449 680 449 680 489 668 c 128,-1,40
 529 656 529 656 555.5 626.5 c 128,-1,41
 582 597 582 597 582 554 c 0,42,43
 582 503 582 503 549.5 472.5 c 128,-1,44
 517 442 517 442 470 442 c 0,45,46
 439 442 439 442 422 453 c 1,47,48
 433 489 433 489 433 529 c 0,49,50
 433 562 433 562 418.5 585.5 c 128,-1,51
 404 609 404 609 372 609 c 0,52,53
 338 609 338 609 308.5 584.5 c 128,-1,54
 279 560 279 560 258.5 521 c 128,-1,55
 238 482 238 482 223 434 c 128,-1,56
 208 386 208 386 201 338 c 128,-1,57
 194 290 194 290 194 247 c 0,58,59
 194 88 194 88 299 88 c 0,60,61
 351 88 351 88 374 109 c 1,62,-1
 406 315 l 1,63,-1
 570 333 l 1,18,19
EndSplineSet
Validated: 8388609
Position2: "'cpsp' Capital Spacing lookup 3 subtable" dx=5 dy=0 dh=10 dv=0
EndChar

StartChar: Gcircumflex
Encoding: 284 284 45
Width: 583
Flags: MW
HStem: -20 108<153 311> 609 71<313 396>
VStem: 24 170<208 316 208 349> 376 127 433 149<519 548>
LayerCount: 2
UndoRedoHistory
Layer: 0
Undoes
EndUndoes
Redoes
EndRedoes
EndUndoRedoHistory
UndoRedoHistory
Layer: 1
Undoes
EndUndoes
Redoes
EndRedoes
EndUndoRedoHistory
Fore
SplineSet
517 681 m 1,0,-1
 406 743 l 1,1,-1
 267 681 l 1,2,-1
 238 729 l 1,3,-1
 403 845 l 1,4,-1
 429 845 l 1,5,-1
 562 728 l 1,6,-1
 517 681 l 1,0,-1
570 333 m 1,7,8
 538 262 538 262 521 173 c 128,-1,9
 504 84 504 84 503 -3 c 1,10,11
 484 -20 484 -20 455 -20 c 0,12,13
 420 -20 420 -20 399 -3.5 c 128,-1,14
 378 13 378 13 376 37 c 1,15,16
 348 12 348 12 306 -4 c 128,-1,17
 264 -20 264 -20 219 -20 c 0,18,19
 122 -20 122 -20 73 48 c 128,-1,20
 24 116 24 116 24 236 c 0,21,22
 24 304 24 304 39 368.5 c 128,-1,23
 54 433 54 433 85 489.5 c 128,-1,24
 116 546 116 546 160 588.5 c 128,-1,25
 204 631 204 631 265.5 655.5 c 128,-1,26
 327 680 327 680 398 680 c 0,27,28
 449 680 449 680 489 668 c 128,-1,29
 529 656 529 656 555.5 626.5 c 128,-1,30
 582 597 582 597 582 554 c 0,31,32
 582 503 582 503 549.5 472.5 c 128,-1,33
 517 442 517 442 470 442 c 0,34,35
 439 442 439 442 422 453 c 1,36,37
 433 489 433 489 433 529 c 0,38,39
 433 562 433 562 418.5 585.5 c 128,-1,40
 404 609 404 609 372 609 c 0,41,42
 338 609 338 609 308.5 584.5 c 128,-1,43
 279 560 279 560 258.5 521 c 128,-1,44
 238 482 238 482 223 434 c 128,-1,45
 208 386 208 386 201 338 c 128,-1,46
 194 290 194 290 194 247 c 0,47,48
 194 88 194 88 299 88 c 0,49,50
 351 88 351 88 374 109 c 1,51,-1
 406 315 l 1,52,-1
 570 333 l 1,7,8
EndSplineSet
Validated: 8388609
Position2: "'cpsp' Capital Spacing lookup 3 subtable" dx=5 dy=0 dh=10 dv=0
EndChar

StartChar: Gcommaaccent
Encoding: 290 290 46
Width: 583
Flags: MW
HStem: -20 108<153 311> 609 71<313 396>
VStem: 24 170<208 316 208 349> 208 118<-134 -100> 376 127 433 149<519 548>
LayerCount: 2
UndoRedoHistory
Layer: 0
Undoes
EndUndoes
Redoes
EndRedoes
EndUndoRedoHistory
UndoRedoHistory
Layer: 1
Undoes
EndUndoes
Redoes
EndRedoes
EndUndoRedoHistory
Fore
SplineSet
570 333 m 1,0,1
 538 262 538 262 521 173 c 128,-1,2
 504 84 504 84 503 -3 c 1,3,4
 484 -20 484 -20 455 -20 c 0,5,6
 420 -20 420 -20 399 -3.5 c 128,-1,7
 378 13 378 13 376 37 c 1,8,9
 348 12 348 12 306 -4 c 128,-1,10
 264 -20 264 -20 219 -20 c 0,11,12
 122 -20 122 -20 73 48 c 128,-1,13
 24 116 24 116 24 236 c 0,14,15
 24 304 24 304 39 368.5 c 128,-1,16
 54 433 54 433 85 489.5 c 128,-1,17
 116 546 116 546 160 588.5 c 128,-1,18
 204 631 204 631 265.5 655.5 c 128,-1,19
 327 680 327 680 398 680 c 0,20,21
 449 680 449 680 489 668 c 128,-1,22
 529 656 529 656 555.5 626.5 c 128,-1,23
 582 597 582 597 582 554 c 0,24,25
 582 503 582 503 549.5 472.5 c 128,-1,26
 517 442 517 442 470 442 c 0,27,28
 439 442 439 442 422 453 c 1,29,30
 433 489 433 489 433 529 c 0,31,32
 433 562 433 562 418.5 585.5 c 128,-1,33
 404 609 404 609 372 609 c 0,34,35
 338 609 338 609 308.5 584.5 c 128,-1,36
 279 560 279 560 258.5 521 c 128,-1,37
 238 482 238 482 223 434 c 128,-1,38
 208 386 208 386 201 338 c 128,-1,39
 194 290 194 290 194 247 c 0,40,41
 194 88 194 88 299 88 c 0,42,43
 351 88 351 88 374 109 c 1,44,-1
 406 315 l 1,45,-1
 570 333 l 1,0,1
326 -112 m 0,46,47
 326 -149 326 -149 303 -181 c 128,-1,48
 280 -213 280 -213 247 -230.5 c 128,-1,49
 214 -248 214 -248 183 -248 c 0,50,51
 160 -248 160 -248 149 -240 c 1,52,53
 179 -204 179 -204 193.5 -174.5 c 128,-1,54
 208 -145 208 -145 208 -107 c 0,55,56
 208 -83 208 -83 200 -63 c 1,57,58
 223 -50 223 -50 257 -50 c 0,59,60
 288 -50 288 -50 307 -66.5 c 128,-1,61
 326 -83 326 -83 326 -112 c 0,46,47
EndSplineSet
Validated: 8388609
Position2: "'cpsp' Capital Spacing lookup 3 subtable" dx=5 dy=0 dh=10 dv=0
EndChar

StartChar: Gdotaccent
Encoding: 288 288 47
Width: 583
Flags: MW
HStem: -20 108<153 311> 609 71<313 396> 709 139<387 434>
VStem: 24 170<208 316 208 349> 321 177<755 800> 376 127 433 149<519 548>
LayerCount: 2
UndoRedoHistory
Layer: 0
Undoes
EndUndoes
Redoes
EndRedoes
EndUndoRedoHistory
UndoRedoHistory
Layer: 1
Undoes
EndUndoes
Redoes
EndRedoes
EndUndoRedoHistory
Fore
SplineSet
412 848 m 0,0,1
 451 848 451 848 474.5 830 c 128,-1,2
 498 812 498 812 498 779 c 0,3,4
 498 745 498 745 473 727 c 128,-1,5
 448 709 448 709 408 709 c 0,6,7
 369 709 369 709 345 726.5 c 128,-1,8
 321 744 321 744 321 777 c 0,9,10
 321 811 321 811 346.5 829.5 c 128,-1,11
 372 848 372 848 412 848 c 0,0,1
570 333 m 1,12,13
 538 262 538 262 521 173 c 128,-1,14
 504 84 504 84 503 -3 c 1,15,16
 484 -20 484 -20 455 -20 c 0,17,18
 420 -20 420 -20 399 -3.5 c 128,-1,19
 378 13 378 13 376 37 c 1,20,21
 348 12 348 12 306 -4 c 128,-1,22
 264 -20 264 -20 219 -20 c 0,23,24
 122 -20 122 -20 73 48 c 128,-1,25
 24 116 24 116 24 236 c 0,26,27
 24 304 24 304 39 368.5 c 128,-1,28
 54 433 54 433 85 489.5 c 128,-1,29
 116 546 116 546 160 588.5 c 128,-1,30
 204 631 204 631 265.5 655.5 c 128,-1,31
 327 680 327 680 398 680 c 0,32,33
 449 680 449 680 489 668 c 128,-1,34
 529 656 529 656 555.5 626.5 c 128,-1,35
 582 597 582 597 582 554 c 0,36,37
 582 503 582 503 549.5 472.5 c 128,-1,38
 517 442 517 442 470 442 c 0,39,40
 439 442 439 442 422 453 c 1,41,42
 433 489 433 489 433 529 c 0,43,44
 433 562 433 562 418.5 585.5 c 128,-1,45
 404 609 404 609 372 609 c 0,46,47
 338 609 338 609 308.5 584.5 c 128,-1,48
 279 560 279 560 258.5 521 c 128,-1,49
 238 482 238 482 223 434 c 128,-1,50
 208 386 208 386 201 338 c 128,-1,51
 194 290 194 290 194 247 c 0,52,53
 194 88 194 88 299 88 c 0,54,55
 351 88 351 88 374 109 c 1,56,-1
 406 315 l 1,57,-1
 570 333 l 1,12,13
EndSplineSet
Validated: 8388609
Position2: "'cpsp' Capital Spacing lookup 3 subtable" dx=5 dy=0 dh=10 dv=0
EndChar

StartChar: H
Encoding: 72 72 48
Width: 646
Flags: MW
HStem: 288 75<241 410 226 424> 640 20G<135 299 299 299 479 644 644 644>
VStem: 376 161<53 72 53 72>
LayerCount: 2
UndoRedoHistory
Layer: 0
Undoes
EndUndoes
Redoes
EndRedoes
EndUndoRedoHistory
UndoRedoHistory
Layer: 1
Undoes
EndUndoes
Redoes
EndRedoes
EndUndoRedoHistory
Fore
SplineSet
544 127 m 2,0,1
 537 94 537 94 537 63 c 0,2,3
 537 30 537 30 549 9 c 1,4,5
 510 -20 510 -20 459 -20 c 0,6,7
 376 -20 376 -20 376 63 c 0,8,9
 376 84 376 84 387 151 c 2,10,-1
 410 288 l 1,11,-1
 226 288 l 1,12,-1
 170 0 l 1,13,-1
 8 0 l 1,14,-1
 135 660 l 1,15,-1
 299 660 l 1,16,-1
 241 363 l 1,17,-1
 424 363 l 1,18,-1
 479 660 l 1,19,-1
 644 660 l 1,20,-1
 544 127 l 2,0,1
EndSplineSet
Validated: 1
Position2: "'cpsp' Capital Spacing lookup 3 subtable" dx=5 dy=0 dh=10 dv=0
EndChar

StartChar: Hbar
Encoding: 294 294 49
Width: 646
Flags: MW
HStem: 288 75<241 410 226 424> 463 87<37 114 37 114 277 442> 463 197<37 299 37 299 260 260 260 299 135 442 607 614 607 607>
VStem: 376 161<53 72 53 72>
LayerCount: 2
UndoRedoHistory
Layer: 0
Undoes
EndUndoes
Redoes
EndRedoes
EndUndoRedoHistory
UndoRedoHistory
Layer: 1
Undoes
EndUndoes
Redoes
EndRedoes
EndUndoRedoHistory
Fore
SplineSet
683 550 m 1,0,1
 686 538 686 538 686 524 c 0,2,3
 686 497 686 497 667.5 480 c 128,-1,4
 649 463 649 463 614 463 c 2,5,-1
 607 463 l 1,6,-1
 544 127 l 2,7,8
 537 94 537 94 537 63 c 0,9,10
 537 30 537 30 549 9 c 1,11,12
 510 -20 510 -20 459 -20 c 0,13,14
 376 -20 376 -20 376 63 c 0,15,16
 376 84 376 84 387 151 c 2,17,-1
 410 288 l 1,18,-1
 226 288 l 1,19,-1
 170 0 l 1,20,-1
 8 0 l 1,21,-1
 97 463 l 1,22,-1
 37 463 l 1,23,24
 34 471 34 471 34 488 c 0,25,26
 34 516 34 516 52 533 c 128,-1,27
 70 550 70 550 99 550 c 2,28,-1
 114 550 l 1,29,-1
 135 660 l 1,30,-1
 299 660 l 1,31,-1
 277 550 l 1,32,-1
 459 550 l 1,33,-1
 479 660 l 1,34,-1
 644 660 l 1,35,-1
 623 550 l 1,36,-1
 683 550 l 1,0,1
442 463 m 1,37,-1
 260 463 l 1,38,-1
 241 363 l 1,39,-1
 424 363 l 1,40,-1
 442 463 l 1,37,-1
EndSplineSet
Validated: 8388609
Position2: "'cpsp' Capital Spacing lookup 3 subtable" dx=5 dy=0 dh=10 dv=0
EndChar

StartChar: Hcircumflex
Encoding: 292 292 50
Width: 646
Flags: MW
HStem: 288 75<241 410 226 424> 640 20G<135 299 299 299 479 644 644 644>
VStem: 376 161<53 72 53 72>
LayerCount: 2
UndoRedoHistory
Layer: 0
Undoes
EndUndoes
Redoes
EndRedoes
EndUndoRedoHistory
UndoRedoHistory
Layer: 1
Undoes
EndUndoes
Redoes
EndRedoes
EndUndoRedoHistory
Fore
SplineSet
507 681 m 1,0,-1
 396 743 l 1,1,-1
 257 681 l 1,2,-1
 228 729 l 1,3,-1
 393 845 l 1,4,-1
 419 845 l 1,5,-1
 552 728 l 1,6,-1
 507 681 l 1,0,-1
544 127 m 2,7,8
 537 94 537 94 537 63 c 0,9,10
 537 30 537 30 549 9 c 1,11,12
 510 -20 510 -20 459 -20 c 0,13,14
 376 -20 376 -20 376 63 c 0,15,16
 376 84 376 84 387 151 c 2,17,-1
 410 288 l 1,18,-1
 226 288 l 1,19,-1
 170 0 l 1,20,-1
 8 0 l 1,21,-1
 135 660 l 1,22,-1
 299 660 l 1,23,-1
 241 363 l 1,24,-1
 424 363 l 1,25,-1
 479 660 l 1,26,-1
 644 660 l 1,27,-1
 544 127 l 2,7,8
EndSplineSet
Validated: 1
Position2: "'cpsp' Capital Spacing lookup 3 subtable" dx=5 dy=0 dh=10 dv=0
EndChar

StartChar: Hdotbelow
Encoding: 7716 7716 51
Width: 646
Flags: MW
HStem: -187 139<232 279> 288 75<241 410 226 424> 640 20G<135 299 299 299 479 644 644 644>
VStem: 167 178<-141 -96> 376 161<53 72 53 72>
LayerCount: 2
UndoRedoHistory
Layer: 0
Undoes
EndUndoes
Redoes
EndRedoes
EndUndoRedoHistory
UndoRedoHistory
Layer: 1
Undoes
EndUndoes
Redoes
EndRedoes
EndUndoRedoHistory
Fore
SplineSet
544 127 m 2,0,1
 537 94 537 94 537 63 c 0,2,3
 537 30 537 30 549 9 c 1,4,5
 510 -20 510 -20 459 -20 c 0,6,7
 376 -20 376 -20 376 63 c 0,8,9
 376 84 376 84 387 151 c 2,10,-1
 410 288 l 1,11,-1
 226 288 l 1,12,-1
 170 0 l 1,13,-1
 8 0 l 1,14,-1
 135 660 l 1,15,-1
 299 660 l 1,16,-1
 241 363 l 1,17,-1
 424 363 l 1,18,-1
 479 660 l 1,19,-1
 644 660 l 1,20,-1
 544 127 l 2,0,1
258 -48 m 0,21,22
 297 -48 297 -48 321 -66 c 128,-1,23
 345 -84 345 -84 345 -117 c 0,24,25
 345 -151 345 -151 319.5 -169 c 128,-1,26
 294 -187 294 -187 254 -187 c 0,27,28
 215 -187 215 -187 191 -169.5 c 128,-1,29
 167 -152 167 -152 167 -119 c 0,30,31
 167 -85 167 -85 192.5 -66.5 c 128,-1,32
 218 -48 218 -48 258 -48 c 0,21,22
EndSplineSet
Validated: 1
Position2: "'cpsp' Capital Spacing lookup 3 subtable" dx=5 dy=0 dh=10 dv=0
EndChar

StartChar: I
Encoding: 73 73 52
Width: 312
Flags: MW
HStem: 640 20G<135 304 304 304>
VStem: 8 296
LayerCount: 2
UndoRedoHistory
Layer: 0
Undoes
EndUndoes
Redoes
EndRedoes
EndUndoRedoHistory
UndoRedoHistory
Layer: 1
Undoes
EndUndoes
Redoes
EndRedoes
EndUndoRedoHistory
Fore
SplineSet
175 0 m 1,0,-1
 8 0 l 1,1,-1
 135 660 l 1,2,-1
 304 660 l 1,3,-1
 175 0 l 1,0,-1
EndSplineSet
Validated: 1
Position2: "'cpsp' Capital Spacing lookup 3 subtable" dx=5 dy=0 dh=10 dv=0
EndChar

StartChar: IJ
Encoding: 306 306 53
Width: 625
Flags: MW
HStem: 640 20G<135 304 304 304 449 616 616 616>
VStem: 8 608
LayerCount: 2
UndoRedoHistory
Layer: 0
Undoes
EndUndoes
Redoes
EndRedoes
EndUndoRedoHistory
UndoRedoHistory
Layer: 1
Undoes
EndUndoes
Redoes
EndRedoes
EndUndoRedoHistory
Fore
SplineSet
8 0 m 1,0,-1
 135 660 l 1,1,-1
 304 660 l 1,2,-1
 175 0 l 1,3,-1
 8 0 l 1,0,-1
510 113 m 2,4,5
 482 -34 482 -34 436.5 -104.5 c 128,-1,6
 391 -175 391 -175 314 -175 c 0,7,8
 281 -175 281 -175 257 -163.5 c 128,-1,9
 233 -152 233 -152 223 -130 c 1,10,11
 271 -110 271 -110 295.5 -60.5 c 128,-1,12
 320 -11 320 -11 342 103 c 2,13,-1
 449 660 l 1,14,-1
 616 660 l 1,15,-1
 510 113 l 2,4,5
EndSplineSet
Validated: 1
Position2: "'cpsp' Capital Spacing lookup 3 subtable" dx=5 dy=0 dh=10 dv=0
EndChar

StartChar: Iacute
Encoding: 205 205 54
Width: 312
Flags: MW
HStem: 640 20G<135 304 304 304>
VStem: 8 409
LayerCount: 2
UndoRedoHistory
Layer: 0
Undoes
EndUndoes
Redoes
EndRedoes
EndUndoRedoHistory
UndoRedoHistory
Layer: 1
Undoes
EndUndoes
Redoes
EndRedoes
EndUndoRedoHistory
Fore
SplineSet
153 758 m 1,0,-1
 392 853 l 1,1,2
 417 836 417 836 417 804 c 0,3,4
 417 721 417 721 280 717 c 1,5,-1
 163 712 l 1,6,-1
 153 758 l 1,0,-1
8 0 m 1,7,-1
 135 660 l 1,8,-1
 304 660 l 1,9,-1
 175 0 l 1,10,-1
 8 0 l 1,7,-1
EndSplineSet
Validated: 1
Position2: "'cpsp' Capital Spacing lookup 3 subtable" dx=5 dy=0 dh=10 dv=0
EndChar

StartChar: Ibreve
Encoding: 300 300 55
Width: 312
Flags: MW
HStem: 640 20G<135 304 304 304> 700 49<229 270 229 294>
VStem: 86 117<788 805 788 811>
LayerCount: 2
UndoRedoHistory
Layer: 0
Undoes
EndUndoes
Redoes
EndRedoes
EndUndoRedoHistory
UndoRedoHistory
Layer: 1
Undoes
EndUndoes
Redoes
EndRedoes
EndUndoRedoHistory
Fore
SplineSet
207 833 m 1,0,1
 203 814 203 814 203 800 c 0,2,3
 203 779 203 779 213 764 c 128,-1,4
 223 749 223 749 246 749 c 0,5,6
 278 749 278 749 297 774 c 128,-1,7
 316 799 316 799 323 833 c 1,8,-1
 435 833 l 1,9,10
 422 772 422 772 371.5 736 c 128,-1,11
 321 700 321 700 236 700 c 0,12,13
 163 700 163 700 124.5 729 c 128,-1,14
 86 758 86 758 86 806 c 0,15,16
 86 818 86 818 89 833 c 1,17,-1
 207 833 l 1,0,1
8 0 m 1,18,-1
 135 660 l 1,19,-1
 304 660 l 1,20,-1
 175 0 l 1,21,-1
 8 0 l 1,18,-1
EndSplineSet
Validated: 1
Position2: "'cpsp' Capital Spacing lookup 3 subtable" dx=5 dy=0 dh=10 dv=0
EndChar

StartChar: Icircumflex
Encoding: 206 206 56
Width: 312
Flags: MW
HStem: 640 20G<135 304 304 304>
VStem: 8 383
LayerCount: 2
UndoRedoHistory
Layer: 0
Undoes
EndUndoes
Redoes
EndRedoes
EndUndoRedoHistory
UndoRedoHistory
Layer: 1
Undoes
EndUndoes
Redoes
EndRedoes
EndUndoRedoHistory
Fore
SplineSet
346 681 m 1,0,-1
 235 743 l 1,1,-1
 96 681 l 1,2,-1
 67 729 l 1,3,-1
 232 845 l 1,4,-1
 258 845 l 1,5,-1
 391 728 l 1,6,-1
 346 681 l 1,0,-1
8 0 m 1,7,-1
 135 660 l 1,8,-1
 304 660 l 1,9,-1
 175 0 l 1,10,-1
 8 0 l 1,7,-1
EndSplineSet
Validated: 1
Position2: "'cpsp' Capital Spacing lookup 3 subtable" dx=5 dy=0 dh=10 dv=0
EndChar

StartChar: Idieresis
Encoding: 207 207 57
Width: 312
Flags: MW
HStem: 640 20G<135 304 304 304> 709 139<108 155 331 377>
VStem: 43 177<755 800> 265 177<755 800>
LayerCount: 2
UndoRedoHistory
Layer: 0
Undoes
EndUndoes
Redoes
EndRedoes
EndUndoRedoHistory
UndoRedoHistory
Layer: 1
Undoes
EndUndoes
Redoes
EndRedoes
EndUndoRedoHistory
Fore
SplineSet
134 848 m 0,0,1
 173 848 173 848 196.5 830 c 128,-1,2
 220 812 220 812 220 779 c 0,3,4
 220 745 220 745 195 727 c 128,-1,5
 170 709 170 709 130 709 c 0,6,7
 91 709 91 709 67 726.5 c 128,-1,8
 43 744 43 744 43 777 c 0,9,10
 43 811 43 811 68.5 829.5 c 128,-1,11
 94 848 94 848 134 848 c 0,0,1
356 848 m 0,12,13
 395 848 395 848 418.5 830 c 128,-1,14
 442 812 442 812 442 779 c 0,15,16
 442 745 442 745 417 727 c 128,-1,17
 392 709 392 709 352 709 c 0,18,19
 313 709 313 709 289 726.5 c 128,-1,20
 265 744 265 744 265 777 c 0,21,22
 265 811 265 811 290.5 829.5 c 128,-1,23
 316 848 316 848 356 848 c 0,12,13
8 0 m 1,24,-1
 135 660 l 1,25,-1
 304 660 l 1,26,-1
 175 0 l 1,27,-1
 8 0 l 1,24,-1
EndSplineSet
Validated: 1
Position2: "'cpsp' Capital Spacing lookup 3 subtable" dx=5 dy=0 dh=10 dv=0
EndChar

StartChar: Idotaccent
Encoding: 304 304 58
Width: 312
Flags: MW
HStem: 640 20G<135 304 304 304> 709 139<215 263>
VStem: 150 177<755 800>
LayerCount: 2
UndoRedoHistory
Layer: 0
Undoes
EndUndoes
Redoes
EndRedoes
EndUndoRedoHistory
UndoRedoHistory
Layer: 1
Undoes
EndUndoes
Redoes
EndRedoes
EndUndoRedoHistory
Fore
SplineSet
241 848 m 0,0,1
 280 848 280 848 303.5 830 c 128,-1,2
 327 812 327 812 327 779 c 0,3,4
 327 745 327 745 302 727 c 128,-1,5
 277 709 277 709 237 709 c 0,6,7
 198 709 198 709 174 726.5 c 128,-1,8
 150 744 150 744 150 777 c 0,9,10
 150 811 150 811 175.5 829.5 c 128,-1,11
 201 848 201 848 241 848 c 0,0,1
8 0 m 1,12,-1
 135 660 l 1,13,-1
 304 660 l 1,14,-1
 175 0 l 1,15,-1
 8 0 l 1,12,-1
EndSplineSet
Validated: 1
Position2: "'cpsp' Capital Spacing lookup 3 subtable" dx=5 dy=0 dh=10 dv=0
EndChar

StartChar: Idotbelow
Encoding: 7882 7882 59
Width: 312
Flags: MW
HStem: -187 139<47 95> 640 20G<135 304 304 304>
VStem: -19 179<-141 -96>
LayerCount: 2
UndoRedoHistory
Layer: 0
Undoes
EndUndoes
Redoes
EndRedoes
EndUndoRedoHistory
UndoRedoHistory
Layer: 1
Undoes
EndUndoes
Redoes
EndRedoes
EndUndoRedoHistory
Fore
SplineSet
8 0 m 1,0,-1
 135 660 l 1,1,-1
 304 660 l 1,2,-1
 175 0 l 1,3,-1
 8 0 l 1,0,-1
73 -48 m 0,4,5
 112 -48 112 -48 136 -66 c 128,-1,6
 160 -84 160 -84 160 -117 c 0,7,8
 160 -151 160 -151 134.5 -169 c 128,-1,9
 109 -187 109 -187 69 -187 c 0,10,11
 30 -187 30 -187 5.5 -169.5 c 128,-1,12
 -19 -152 -19 -152 -19 -119 c 0,13,14
 -19 -85 -19 -85 7 -66.5 c 128,-1,15
 33 -48 33 -48 73 -48 c 0,4,5
EndSplineSet
Validated: 1
Position2: "'cpsp' Capital Spacing lookup 3 subtable" dx=5 dy=0 dh=10 dv=0
EndChar

StartChar: Igrave
Encoding: 204 204 60
Width: 312
Flags: MW
HStem: 640 20G<135 304 304 304>
VStem: 8 327
LayerCount: 2
UndoRedoHistory
Layer: 0
Undoes
EndUndoes
Redoes
EndRedoes
EndUndoRedoHistory
UndoRedoHistory
Layer: 1
Undoes
EndUndoes
Redoes
EndRedoes
EndUndoRedoHistory
Fore
SplineSet
325 712 m 1,0,-1
 208 717 l 2,1,2
 70 723 70 723 70 804 c 0,3,4
 70 835 70 835 95 854 c 1,5,-1
 335 758 l 1,6,-1
 325 712 l 1,0,-1
8 0 m 1,7,-1
 135 660 l 1,8,-1
 304 660 l 1,9,-1
 175 0 l 1,10,-1
 8 0 l 1,7,-1
EndSplineSet
Validated: 1
Position2: "'cpsp' Capital Spacing lookup 3 subtable" dx=5 dy=0 dh=10 dv=0
EndChar

StartChar: Imacron
Encoding: 298 298 61
Width: 312
Flags: MW
HStem: 640 20G<135 304 304 304> 737 87<156 317 94 385>
VStem: 8 381
LayerCount: 2
UndoRedoHistory
Layer: 0
Undoes
EndUndoes
Redoes
EndRedoes
EndUndoRedoHistory
UndoRedoHistory
Layer: 1
Undoes
EndUndoes
Redoes
EndRedoes
EndUndoRedoHistory
Fore
SplineSet
385 824 m 1,0,1
 389 808 389 808 389 798 c 0,2,3
 389 771 389 771 370.5 754 c 128,-1,4
 352 737 352 737 317 737 c 2,5,-1
 94 737 l 1,6,7
 92 748 92 748 92 763 c 0,8,9
 92 791 92 791 110 807.5 c 128,-1,10
 128 824 128 824 156 824 c 2,11,-1
 385 824 l 1,0,1
8 0 m 1,12,-1
 135 660 l 1,13,-1
 304 660 l 1,14,-1
 175 0 l 1,15,-1
 8 0 l 1,12,-1
EndSplineSet
Validated: 1
Position2: "'cpsp' Capital Spacing lookup 3 subtable" dx=5 dy=0 dh=10 dv=0
EndChar

StartChar: Iogonek
Encoding: 302 302 62
Width: 312
Flags: MW
HStem: -258 73<118 144> 640 20G<135 304 304 304>
VStem: -9 92<-149 -114>
LayerCount: 2
UndoRedoHistory
Layer: 0
Undoes
EndUndoes
Redoes
EndRedoes
EndUndoRedoHistory
UndoRedoHistory
Layer: 1
Undoes
EndUndoes
Redoes
EndRedoes
EndUndoRedoHistory
Fore
SplineSet
162 0 m 1,0,1
 127 -26 127 -26 105 -60.5 c 128,-1,2
 83 -95 83 -95 83 -130 c 0,3,4
 83 -159 83 -159 95.5 -172 c 128,-1,5
 108 -185 108 -185 136 -185 c 0,6,7
 173 -185 173 -185 193 -160 c 1,8,9
 210 -177 210 -177 210 -198 c 0,10,11
 210 -223 210 -223 184 -240.5 c 128,-1,12
 158 -258 158 -258 114 -258 c 0,13,14
 57 -258 57 -258 24 -229.5 c 128,-1,15
 -9 -201 -9 -201 -9 -148 c 0,16,17
 -9 -100 -9 -100 18 -62 c 128,-1,18
 45 -24 45 -24 88 0 c 1,19,-1
 8 0 l 1,20,-1
 135 660 l 1,21,-1
 304 660 l 1,22,-1
 177 10 l 1,23,-1
 175 0 l 1,24,-1
 162 0 l 1,0,1
EndSplineSet
Validated: 1
Position2: "'cpsp' Capital Spacing lookup 3 subtable" dx=5 dy=0 dh=10 dv=0
EndChar

StartChar: Itilde
Encoding: 296 296 63
Width: 312
Flags: MW
HStem: 640 20G<135 304 304 304> 724 96<325 359 325 359> 741 96<134 168>
VStem: 8 412
LayerCount: 2
UndoRedoHistory
Layer: 0
Undoes
EndUndoes
Redoes
EndRedoes
EndUndoRedoHistory
UndoRedoHistory
Layer: 1
Undoes
EndUndoes
Redoes
EndRedoes
EndUndoRedoHistory
Fore
SplineSet
402 837 m 1,0,1
 420 815 420 815 420 791 c 0,2,3
 420 759 420 759 397 741.5 c 128,-1,4
 374 724 374 724 333 724 c 0,5,6
 311 724 311 724 239 732.5 c 128,-1,7
 167 741 167 741 148 741 c 0,8,9
 110 741 110 741 87 725 c 1,10,11
 68 750 68 750 68 776 c 0,12,13
 68 805 68 805 91.5 821 c 128,-1,14
 115 837 115 837 158 837 c 0,15,16
 183 837 183 837 254 828.5 c 128,-1,17
 325 820 325 820 347 820 c 0,18,19
 388 820 388 820 402 837 c 1,0,1
8 0 m 1,20,-1
 135 660 l 1,21,-1
 304 660 l 1,22,-1
 175 0 l 1,23,-1
 8 0 l 1,20,-1
EndSplineSet
Validated: 8388609
Position2: "'cpsp' Capital Spacing lookup 3 subtable" dx=5 dy=0 dh=10 dv=0
EndChar

StartChar: J
Encoding: 74 74 64
Width: 312
Flags: MW
HStem: 640 20G<136 303 303 303>
VStem: -90 393
LayerCount: 2
UndoRedoHistory
Layer: 0
Undoes
EndUndoes
Redoes
EndRedoes
EndUndoRedoHistory
UndoRedoHistory
Layer: 1
Undoes
EndUndoes
Redoes
EndRedoes
EndUndoRedoHistory
Fore
SplineSet
197 113 m 2,0,1
 169 -34 169 -34 123.5 -104.5 c 128,-1,2
 78 -175 78 -175 1 -175 c 0,3,4
 -32 -175 -32 -175 -56 -163.5 c 128,-1,5
 -80 -152 -80 -152 -90 -130 c 1,6,7
 -42 -110 -42 -110 -17.5 -60.5 c 128,-1,8
 7 -11 7 -11 29 103 c 2,9,-1
 136 660 l 1,10,-1
 303 660 l 1,11,-1
 197 113 l 2,0,1
EndSplineSet
Validated: 1
Position2: "'cpsp' Capital Spacing lookup 3 subtable" dx=5 dy=0 dh=10 dv=0
EndChar

StartChar: Jcircumflex
Encoding: 308 308 65
Width: 312
Flags: MW
HStem: 640 20G<136 303 303 303>
VStem: -90 480
LayerCount: 2
UndoRedoHistory
Layer: 0
Undoes
EndUndoes
Redoes
EndRedoes
EndUndoRedoHistory
UndoRedoHistory
Layer: 1
Undoes
EndUndoes
Redoes
EndRedoes
EndUndoRedoHistory
Fore
SplineSet
345 681 m 1,0,-1
 234 743 l 1,1,-1
 95 681 l 1,2,-1
 66 729 l 1,3,-1
 231 845 l 1,4,-1
 257 845 l 1,5,-1
 390 728 l 1,6,-1
 345 681 l 1,0,-1
197 113 m 2,7,8
 169 -34 169 -34 123.5 -104.5 c 128,-1,9
 78 -175 78 -175 1 -175 c 0,10,11
 -32 -175 -32 -175 -56 -163.5 c 128,-1,12
 -80 -152 -80 -152 -90 -130 c 1,13,14
 -42 -110 -42 -110 -17.5 -60.5 c 128,-1,15
 7 -11 7 -11 29 103 c 2,16,-1
 136 660 l 1,17,-1
 303 660 l 1,18,-1
 197 113 l 2,7,8
EndSplineSet
Validated: 1
Position2: "'cpsp' Capital Spacing lookup 3 subtable" dx=5 dy=0 dh=10 dv=0
EndChar

StartChar: K
Encoding: 75 75 66
Width: 599
Flags: MW
HStem: 640 20G<135 301 301 301 502 676 676 676>
VStem: 10 666<0 660>
LayerCount: 2
UndoRedoHistory
Layer: 0
Undoes
EndUndoes
Redoes
EndRedoes
EndUndoRedoHistory
UndoRedoHistory
Layer: 1
Undoes
EndUndoes
Redoes
EndRedoes
EndUndoRedoHistory
Fore
SplineSet
175 0 m 1,0,-1
 10 0 l 1,1,2
 120 586 120 586 135 660 c 1,3,-1
 301 660 l 1,4,-1
 175 0 l 1,0,-1
676 660 m 1,5,6
 503 459 503 459 407 336 c 1,7,8
 449 214 449 214 493 140.5 c 128,-1,9
 537 67 537 67 578 47 c 1,10,11
 568 14 568 14 542.5 -3 c 128,-1,12
 517 -20 517 -20 480 -20 c 0,13,14
 458 -20 458 -20 439.5 -15 c 128,-1,15
 421 -10 421 -10 405 3 c 128,-1,16
 389 16 389 16 375.5 30 c 128,-1,17
 362 44 362 44 349 69.5 c 128,-1,18
 336 95 336 95 326 118 c 128,-1,19
 316 141 316 141 304 179 c 128,-1,20
 292 217 292 217 282.5 248 c 128,-1,21
 273 279 273 279 259 328 c 1,22,-1
 502 660 l 1,23,-1
 676 660 l 1,5,6
EndSplineSet
Validated: 1
Position2: "'cpsp' Capital Spacing lookup 3 subtable" dx=5 dy=0 dh=10 dv=0
EndChar

StartChar: Kcommaaccent
Encoding: 310 310 67
Width: 599
Flags: MW
HStem: 640 20G<135 301 301 301 502 676 676 676>
VStem: 213 118<-134 -100>
LayerCount: 2
UndoRedoHistory
Layer: 0
Undoes
EndUndoes
Redoes
EndRedoes
EndUndoRedoHistory
UndoRedoHistory
Layer: 1
Undoes
EndUndoes
Redoes
EndRedoes
EndUndoRedoHistory
Fore
SplineSet
10 0 m 1,0,1
 120 586 120 586 135 660 c 1,2,-1
 301 660 l 1,3,-1
 175 0 l 1,4,-1
 10 0 l 1,0,1
676 660 m 1,5,6
 503 459 503 459 407 336 c 1,7,8
 449 214 449 214 493 140.5 c 128,-1,9
 537 67 537 67 578 47 c 1,10,11
 568 14 568 14 542.5 -3 c 128,-1,12
 517 -20 517 -20 480 -20 c 0,13,14
 458 -20 458 -20 439.5 -15 c 128,-1,15
 421 -10 421 -10 405 3 c 128,-1,16
 389 16 389 16 375.5 30 c 128,-1,17
 362 44 362 44 349 69.5 c 128,-1,18
 336 95 336 95 326 118 c 128,-1,19
 316 141 316 141 304 179 c 128,-1,20
 292 217 292 217 282.5 248 c 128,-1,21
 273 279 273 279 259 328 c 1,22,-1
 502 660 l 1,23,-1
 676 660 l 1,5,6
331 -112 m 0,24,25
 331 -149 331 -149 308 -181 c 128,-1,26
 285 -213 285 -213 252 -230.5 c 128,-1,27
 219 -248 219 -248 188 -248 c 0,28,29
 165 -248 165 -248 154 -240 c 1,30,31
 184 -204 184 -204 198.5 -174.5 c 128,-1,32
 213 -145 213 -145 213 -107 c 0,33,34
 213 -83 213 -83 205 -63 c 1,35,36
 214 -58 214 -58 231 -54 c 128,-1,37
 248 -50 248 -50 262 -50 c 0,38,39
 293 -50 293 -50 312 -66.5 c 128,-1,40
 331 -83 331 -83 331 -112 c 0,24,25
EndSplineSet
Validated: 1
Position2: "'cpsp' Capital Spacing lookup 3 subtable" dx=5 dy=0 dh=10 dv=0
EndChar

StartChar: L
Encoding: 76 76 68
Width: 408
Flags: MW
HStem: 0 105<198 295> 640 20G<135 303 303 303>
VStem: 11 397<0 74>
LayerCount: 2
UndoRedoHistory
Layer: 0
Undoes
EndUndoes
Redoes
EndRedoes
EndUndoRedoHistory
UndoRedoHistory
Layer: 1
Undoes
EndUndoes
Redoes
EndRedoes
EndUndoRedoHistory
Fore
SplineSet
135 660 m 1,0,-1
 303 660 l 1,1,-1
 198 105 l 1,2,-1
 305 105 l 2,3,4
 367 105 367 105 394 116 c 1,5,6
 408 96 408 96 408 66 c 0,7,8
 408 46 408 46 398.5 32.5 c 128,-1,9
 389 19 389 19 371.5 12 c 128,-1,10
 354 5 354 5 336 2.5 c 128,-1,11
 318 0 318 0 295 0 c 2,12,-1
 11 0 l 1,13,-1
 135 660 l 1,0,-1
EndSplineSet
Validated: 1
Position2: "'cpsp' Capital Spacing lookup 3 subtable" dx=5 dy=0 dh=10 dv=0
EndChar

StartChar: LJ
Encoding: 455 455 69
Width: 721
Flags: MW
HStem: 0 105<198 295> 640 20G<135 303 303 303 545 712 712 712>
VStem: 11 701<0 660>
LayerCount: 2
UndoRedoHistory
Layer: 0
Undoes
EndUndoes
Redoes
EndRedoes
EndUndoRedoHistory
UndoRedoHistory
Layer: 1
Undoes
EndUndoes
Redoes
EndRedoes
EndUndoRedoHistory
Fore
SplineSet
303 660 m 1,0,-1
 198 105 l 1,1,-1
 305 105 l 2,2,3
 367 105 367 105 394 116 c 1,4,5
 408 96 408 96 408 66 c 0,6,7
 408 46 408 46 398.5 32.5 c 128,-1,8
 389 19 389 19 371.5 12 c 128,-1,9
 354 5 354 5 336 2.5 c 128,-1,10
 318 0 318 0 295 0 c 2,11,-1
 11 0 l 1,12,-1
 135 660 l 1,13,-1
 303 660 l 1,0,-1
606 113 m 2,14,15
 578 -34 578 -34 532.5 -104.5 c 128,-1,16
 487 -175 487 -175 410 -175 c 0,17,18
 377 -175 377 -175 353 -163.5 c 128,-1,19
 329 -152 329 -152 319 -130 c 1,20,21
 367 -110 367 -110 391.5 -60 c 128,-1,22
 416 -10 416 -10 438 103 c 2,23,-1
 545 660 l 1,24,-1
 712 660 l 1,25,-1
 606 113 l 2,14,15
EndSplineSet
Validated: 1
Position2: "'cpsp' Capital Spacing lookup 3 subtable" dx=5 dy=0 dh=10 dv=0
EndChar

StartChar: Lacute
Encoding: 313 313 70
Width: 408
Flags: MW
HStem: 0 105<198 295> 640 20G<135 303 303 303>
VStem: 11 397<0 74>
LayerCount: 2
UndoRedoHistory
Layer: 0
Undoes
EndUndoes
Redoes
EndRedoes
EndUndoRedoHistory
UndoRedoHistory
Layer: 1
Undoes
EndUndoes
Redoes
EndRedoes
EndUndoRedoHistory
Fore
SplineSet
134 758 m 1,0,-1
 373 853 l 1,1,2
 398 836 398 836 398 804 c 0,3,4
 398 721 398 721 261 717 c 1,5,-1
 144 712 l 1,6,-1
 134 758 l 1,0,-1
303 660 m 1,7,-1
 198 105 l 1,8,-1
 305 105 l 2,9,10
 367 105 367 105 394 116 c 1,11,12
 408 96 408 96 408 66 c 0,13,14
 408 46 408 46 398.5 32.5 c 128,-1,15
 389 19 389 19 371.5 12 c 128,-1,16
 354 5 354 5 336 2.5 c 128,-1,17
 318 0 318 0 295 0 c 2,18,-1
 11 0 l 1,19,-1
 135 660 l 1,20,-1
 303 660 l 1,7,-1
EndSplineSet
Validated: 1
Position2: "'cpsp' Capital Spacing lookup 3 subtable" dx=5 dy=0 dh=10 dv=0
EndChar

StartChar: Lcaron
Encoding: 317 317 71
Width: 408
Flags: MW
HStem: 0 105<198 295> 528 132<135 404> 698 20G<425 453>
VStem: 388 108<636 667>
LayerCount: 2
UndoRedoHistory
Layer: 0
Undoes
EndUndoes
Redoes
EndRedoes
EndUndoRedoHistory
UndoRedoHistory
Layer: 1
Undoes
EndUndoes
Redoes
EndRedoes
EndUndoRedoHistory
Fore
SplineSet
380 705 m 1,0,1
 404 718 404 718 435 718 c 0,2,3
 462 718 462 718 479 700 c 128,-1,4
 496 682 496 682 496 649 c 0,5,6
 496 604 496 604 458 566 c 128,-1,7
 420 528 420 528 371 528 c 0,8,9
 359 528 359 528 338 534 c 1,10,11
 388 594 388 594 388 657 c 0,12,13
 388 684 388 684 380 705 c 1,0,1
303 660 m 1,14,-1
 198 105 l 1,15,-1
 305 105 l 2,16,17
 367 105 367 105 394 116 c 1,18,19
 408 96 408 96 408 66 c 0,20,21
 408 46 408 46 398.5 32.5 c 128,-1,22
 389 19 389 19 371.5 12 c 128,-1,23
 354 5 354 5 336 2.5 c 128,-1,24
 318 0 318 0 295 0 c 2,25,-1
 11 0 l 1,26,-1
 135 660 l 1,27,-1
 303 660 l 1,14,-1
EndSplineSet
Validated: 1
Position2: "'cpsp' Capital Spacing lookup 3 subtable" dx=5 dy=0 dh=10 dv=0
EndChar

StartChar: Lcommaaccent
Encoding: 315 315 72
Width: 408
Flags: MW
HStem: 0 105<198 295> 640 20G<135 303 303 303>
VStem: 127 118<-134 -100>
LayerCount: 2
UndoRedoHistory
Layer: 0
Undoes
EndUndoes
Redoes
EndRedoes
EndUndoRedoHistory
UndoRedoHistory
Layer: 1
Undoes
EndUndoes
Redoes
EndRedoes
EndUndoRedoHistory
Fore
SplineSet
303 660 m 1,0,-1
 198 105 l 1,1,-1
 305 105 l 2,2,3
 367 105 367 105 394 116 c 1,4,5
 408 96 408 96 408 66 c 0,6,7
 408 46 408 46 398.5 32.5 c 128,-1,8
 389 19 389 19 371.5 12 c 128,-1,9
 354 5 354 5 336 2.5 c 128,-1,10
 318 0 318 0 295 0 c 2,11,-1
 11 0 l 1,12,-1
 135 660 l 1,13,-1
 303 660 l 1,0,-1
245 -112 m 0,14,15
 245 -149 245 -149 222 -181 c 128,-1,16
 199 -213 199 -213 166 -230.5 c 128,-1,17
 133 -248 133 -248 102 -248 c 0,18,19
 79 -248 79 -248 68 -240 c 1,20,21
 98 -204 98 -204 112.5 -174.5 c 128,-1,22
 127 -145 127 -145 127 -107 c 0,23,24
 127 -83 127 -83 119 -63 c 1,25,26
 142 -50 142 -50 176 -50 c 0,27,28
 207 -50 207 -50 226 -66.5 c 128,-1,29
 245 -83 245 -83 245 -112 c 0,14,15
EndSplineSet
Validated: 1
Position2: "'cpsp' Capital Spacing lookup 3 subtable" dx=5 dy=0 dh=10 dv=0
EndChar

StartChar: Ldot
Encoding: 319 319 73
Width: 408
Flags: MW
HStem: 0 105<198 295> 640 20G<135 303 303 303>
VStem: 11 399<0 368> 280 130<306 368>
LayerCount: 2
UndoRedoHistory
Layer: 0
Undoes
EndUndoes
Redoes
EndRedoes
EndUndoRedoHistory
UndoRedoHistory
Layer: 1
Undoes
EndUndoes
Redoes
EndRedoes
EndUndoRedoHistory
Fore
SplineSet
303 660 m 1,0,-1
 198 105 l 1,1,-1
 305 105 l 2,2,3
 367 105 367 105 394 116 c 1,4,5
 408 96 408 96 408 66 c 0,6,7
 408 46 408 46 398.5 32.5 c 128,-1,8
 389 19 389 19 371.5 12 c 128,-1,9
 354 5 354 5 336 2.5 c 128,-1,10
 318 0 318 0 295 0 c 2,11,-1
 11 0 l 1,12,-1
 135 660 l 1,13,-1
 303 660 l 1,0,-1
360 401 m 0,14,15
 382 401 382 401 396 388 c 128,-1,16
 410 375 410 375 410 352 c 0,17,18
 410 343 410 343 409 338 c 0,19,20
 403 308 403 308 381.5 290.5 c 128,-1,21
 360 273 360 273 331 273 c 0,22,23
 308 273 308 273 294 285.5 c 128,-1,24
 280 298 280 298 280 320 c 0,25,26
 280 356 280 356 304 378.5 c 128,-1,27
 328 401 328 401 360 401 c 0,14,15
EndSplineSet
Validated: 8388609
Ligature2: "Ligature Substitution lookup 20 subtable" L periodcentered
Position2: "'cpsp' Capital Spacing lookup 3 subtable" dx=5 dy=0 dh=10 dv=0
EndChar

StartChar: Lj
Encoding: 456 456 74
Width: 691
Flags: MW
HStem: -200 66 0 105<198 295> 506 20G<684 684> 594 143<604 653> 640 20G<135 303 303 303>
VStem: 537 182<642 688>
LayerCount: 2
UndoRedoHistory
Layer: 0
Undoes
EndUndoes
Redoes
EndRedoes
EndUndoRedoHistory
UndoRedoHistory
Layer: 1
Undoes
EndUndoes
Redoes
EndRedoes
EndUndoRedoHistory
Fore
SplineSet
630 737 m 0,0,1
 670 737 670 737 694.5 718.5 c 128,-1,2
 719 700 719 700 719 666 c 0,3,4
 719 631 719 631 693 612.5 c 128,-1,5
 667 594 667 594 627 594 c 0,6,7
 587 594 587 594 562 612.5 c 128,-1,8
 537 631 537 631 537 664 c 0,9,10
 537 699 537 699 563 718 c 128,-1,11
 589 737 589 737 630 737 c 0,0,1
303 660 m 1,12,-1
 198 105 l 1,13,-1
 305 105 l 2,14,15
 367 105 367 105 394 116 c 1,16,17
 408 96 408 96 408 66 c 0,18,19
 408 46 408 46 398.5 32.5 c 128,-1,20
 389 19 389 19 371.5 12 c 128,-1,21
 354 5 354 5 336 2.5 c 128,-1,22
 318 0 318 0 295 0 c 2,23,-1
 11 0 l 1,24,-1
 135 660 l 1,25,-1
 303 660 l 1,12,-1
592 61 m 2,26,27
 565 -75 565 -75 518.5 -137.5 c 128,-1,28
 472 -200 472 -200 399 -200 c 0,29,30
 361 -200 361 -200 336 -183.5 c 128,-1,31
 311 -167 311 -167 304 -134 c 1,32,33
 361 -132 361 -132 391 -79 c 128,-1,34
 421 -26 421 -26 447 106 c 2,35,-1
 527 510 l 1,36,-1
 684 526 l 1,37,-1
 592 61 l 2,26,27
EndSplineSet
Validated: 8388609
Position2: "'cpsp' Capital Spacing lookup 3 subtable" dx=5 dy=0 dh=10 dv=0
EndChar

StartChar: Lslash
Encoding: 321 321 75
Width: 448
Flags: MW
HStem: 0 105<238 334> 640 20G<174 343 343 343>
VStem: -10 457<38 266>
LayerCount: 2
UndoRedoHistory
Layer: 0
Undoes
EndUndoes
Redoes
EndRedoes
EndUndoRedoHistory
UndoRedoHistory
Layer: 1
Undoes
EndUndoes
Redoes
EndRedoes
EndUndoRedoHistory
Fore
SplineSet
344 105 m 2,0,1
 406 105 406 105 433 116 c 1,2,3
 447 97 447 97 447 66 c 0,4,5
 447 46 447 46 437.5 32.5 c 128,-1,6
 428 19 428 19 411 12 c 128,-1,7
 394 5 394 5 375.5 2.5 c 128,-1,8
 357 0 357 0 334 0 c 2,9,-1
 50 0 l 1,10,-1
 96 243 l 1,11,-1
 10 212 l 1,12,13
 -10 230 -10 230 -10 255 c 0,14,15
 -10 294 -10 294 32 310 c 2,16,-1
 114 340 l 1,17,-1
 174 660 l 1,18,-1
 343 660 l 1,19,-1
 295 406 l 1,20,-1
 392 442 l 1,21,22
 409 427 409 427 409 397 c 0,23,24
 409 375 409 375 393.5 360 c 128,-1,25
 378 345 378 345 344 333 c 2,26,-1
 276 308 l 1,27,-1
 238 105 l 1,28,-1
 344 105 l 2,0,1
EndSplineSet
Validated: 1
Position2: "'cpsp' Capital Spacing lookup 3 subtable" dx=5 dy=0 dh=10 dv=0
EndChar

StartChar: M
Encoding: 77 77 76
Width: 779
Flags: MW
HStem: 484 176<203 203 606 606> 640 20G<148 326 326 326 591 767 767 767>
VStem: 568 154<86 88>
LayerCount: 2
UndoRedoHistory
Layer: 0
Undoes
EndUndoes
Redoes
EndRedoes
EndUndoRedoHistory
UndoRedoHistory
Layer: 1
Undoes
EndUndoes
Redoes
EndRedoes
EndUndoRedoHistory
Fore
SplineSet
767 660 m 1,0,-1
 725 149 l 2,1,2
 722 123 722 123 722 102 c 0,3,4
 722 48 722 48 749 25 c 1,5,6
 719 -21 719 -21 651 -21 c 0,7,8
 605 -21 605 -21 586.5 4.5 c 128,-1,9
 568 30 568 30 568 81 c 0,10,11
 568 111 568 111 572 141 c 1,12,-1
 606 484 l 1,13,-1
 386 0 l 1,14,-1
 287 0 l 1,15,-1
 203 484 l 1,16,-1
 101 0 l 1,17,-1
 -6 0 l 1,18,-1
 148 660 l 1,19,-1
 326 660 l 1,20,-1
 400 244 l 1,21,-1
 591 660 l 1,22,-1
 767 660 l 1,0,-1
EndSplineSet
Validated: 8388609
Position2: "'cpsp' Capital Spacing lookup 3 subtable" dx=5 dy=0 dh=10 dv=0
EndChar

StartChar: N
Encoding: 78 78 77
Width: 667
Flags: MW
HStem: 640 20G<135 314 314 314 545 652 652 652>
VStem: 14 638
LayerCount: 2
UndoRedoHistory
Layer: 0
Undoes
EndUndoes
Redoes
EndRedoes
EndUndoRedoHistory
UndoRedoHistory
Layer: 1
Undoes
EndUndoes
Redoes
EndRedoes
EndUndoRedoHistory
Fore
SplineSet
14 0 m 1,0,-1
 135 660 l 1,1,-1
 314 660 l 1,2,-1
 464 175 l 1,3,-1
 545 660 l 1,4,-1
 652 660 l 1,5,-1
 531 0 l 1,6,-1
 352 0 l 1,7,-1
 202 486 l 1,8,-1
 121 0 l 1,9,-1
 14 0 l 1,0,-1
EndSplineSet
Validated: 1
Position2: "'cpsp' Capital Spacing lookup 3 subtable" dx=5 dy=0 dh=10 dv=0
EndChar

StartChar: NJ
Encoding: 458 458 78
Width: 980
Flags: MW
HStem: 486 174<202 202> 640 20G<135 314 314 314 545 652 652 652 804 971 971 971>
VStem: 14 957<0 660>
LayerCount: 2
UndoRedoHistory
Layer: 0
Undoes
EndUndoes
Redoes
EndRedoes
EndUndoRedoHistory
UndoRedoHistory
Layer: 1
Undoes
EndUndoes
Redoes
EndRedoes
EndUndoRedoHistory
Fore
SplineSet
135 660 m 1,0,-1
 314 660 l 1,1,-1
 464 175 l 1,2,-1
 545 660 l 1,3,-1
 652 660 l 1,4,-1
 531 0 l 1,5,-1
 352 0 l 1,6,-1
 202 486 l 1,7,-1
 121 0 l 1,8,-1
 14 0 l 1,9,-1
 135 660 l 1,0,-1
865 113 m 2,10,11
 837 -34 837 -34 791.5 -104.5 c 128,-1,12
 746 -175 746 -175 669 -175 c 0,13,14
 636 -175 636 -175 612 -163.5 c 128,-1,15
 588 -152 588 -152 578 -130 c 1,16,17
 626 -110 626 -110 650.5 -60.5 c 128,-1,18
 675 -11 675 -11 697 103 c 2,19,-1
 804 660 l 1,20,-1
 971 660 l 1,21,-1
 865 113 l 2,10,11
EndSplineSet
Validated: 8388609
Position2: "'cpsp' Capital Spacing lookup 3 subtable" dx=5 dy=0 dh=10 dv=0
EndChar

StartChar: Nacute
Encoding: 323 323 79
Width: 667
Flags: MW
HStem: 640 20G<135 314 314 314 545 652 652 652>
VStem: 14 638
LayerCount: 2
UndoRedoHistory
Layer: 0
Undoes
EndUndoes
Redoes
EndRedoes
EndUndoRedoHistory
UndoRedoHistory
Layer: 1
Undoes
EndUndoes
Redoes
EndRedoes
EndUndoRedoHistory
Fore
SplineSet
328 758 m 1,0,-1
 567 853 l 1,1,2
 592 836 592 836 592 804 c 0,3,4
 592 721 592 721 455 717 c 1,5,-1
 338 712 l 1,6,-1
 328 758 l 1,0,-1
135 660 m 1,7,-1
 314 660 l 1,8,-1
 464 175 l 1,9,-1
 545 660 l 1,10,-1
 652 660 l 1,11,-1
 531 0 l 1,12,-1
 352 0 l 1,13,-1
 202 486 l 1,14,-1
 121 0 l 1,15,-1
 14 0 l 1,16,-1
 135 660 l 1,7,-1
EndSplineSet
Validated: 1
Substitution2: "'locl' Localized Forms in Latin lookup 13 subtable" Nacute.loclPLK
Substitution2: "'aalt' Access All Alternates lookup 0 subtable" Nacute.loclPLK
Position2: "'cpsp' Capital Spacing lookup 3 subtable" dx=5 dy=0 dh=10 dv=0
EndChar

StartChar: Ncaron
Encoding: 327 327 80
Width: 667
Flags: MW
HStem: 640 20G<135 314 314 314 545 652 652 652>
VStem: 14 638
LayerCount: 2
UndoRedoHistory
Layer: 0
Undoes
EndUndoes
Redoes
EndRedoes
EndUndoRedoHistory
UndoRedoHistory
Layer: 1
Undoes
EndUndoes
Redoes
EndRedoes
EndUndoRedoHistory
Fore
SplineSet
314 846 m 1,0,-1
 425 794 l 1,1,-1
 564 846 l 1,2,-1
 593 803 l 1,3,-1
 433 692 l 1,4,-1
 397 692 l 1,5,-1
 269 804 l 1,6,-1
 314 846 l 1,0,-1
135 660 m 1,7,-1
 314 660 l 1,8,-1
 464 175 l 1,9,-1
 545 660 l 1,10,-1
 652 660 l 1,11,-1
 531 0 l 1,12,-1
 352 0 l 1,13,-1
 202 486 l 1,14,-1
 121 0 l 1,15,-1
 14 0 l 1,16,-1
 135 660 l 1,7,-1
EndSplineSet
Validated: 1
Position2: "'cpsp' Capital Spacing lookup 3 subtable" dx=5 dy=0 dh=10 dv=0
EndChar

StartChar: Ncommaaccent
Encoding: 325 325 81
Width: 667
Flags: MW
HStem: 640 20G<135 314 314 314 545 652 652 652>
VStem: 239 118<-134 -100>
LayerCount: 2
UndoRedoHistory
Layer: 0
Undoes
EndUndoes
Redoes
EndRedoes
EndUndoRedoHistory
UndoRedoHistory
Layer: 1
Undoes
EndUndoes
Redoes
EndRedoes
EndUndoRedoHistory
Fore
SplineSet
135 660 m 1,0,-1
 314 660 l 1,1,-1
 464 175 l 1,2,-1
 545 660 l 1,3,-1
 652 660 l 1,4,-1
 531 0 l 1,5,-1
 352 0 l 1,6,-1
 202 486 l 1,7,-1
 121 0 l 1,8,-1
 14 0 l 1,9,-1
 135 660 l 1,0,-1
357 -112 m 0,10,11
 357 -149 357 -149 334 -181 c 128,-1,12
 311 -213 311 -213 278 -230.5 c 128,-1,13
 245 -248 245 -248 214 -248 c 0,14,15
 191 -248 191 -248 180 -240 c 1,16,17
 210 -204 210 -204 224.5 -174.5 c 128,-1,18
 239 -145 239 -145 239 -107 c 0,19,20
 239 -83 239 -83 231 -63 c 1,21,22
 240 -58 240 -58 257 -54 c 128,-1,23
 274 -50 274 -50 288 -50 c 0,24,25
 319 -50 319 -50 338 -66.5 c 128,-1,26
 357 -83 357 -83 357 -112 c 0,10,11
EndSplineSet
Validated: 1
Position2: "'cpsp' Capital Spacing lookup 3 subtable" dx=5 dy=0 dh=10 dv=0
EndChar

StartChar: Ndotaccent
Encoding: 7748 7748 82
Width: 667
Flags: MW
HStem: 640 20G<135 314 314 314 545 652 652 652> 709 139<391 438>
VStem: 325 177<755 800>
LayerCount: 2
UndoRedoHistory
Layer: 0
Undoes
EndUndoes
Redoes
EndRedoes
EndUndoRedoHistory
UndoRedoHistory
Layer: 1
Undoes
EndUndoes
Redoes
EndRedoes
EndUndoRedoHistory
Fore
SplineSet
416 848 m 0,0,1
 455 848 455 848 478.5 830 c 128,-1,2
 502 812 502 812 502 779 c 0,3,4
 502 745 502 745 477 727 c 128,-1,5
 452 709 452 709 412 709 c 0,6,7
 373 709 373 709 349 726.5 c 128,-1,8
 325 744 325 744 325 777 c 0,9,10
 325 811 325 811 350.5 829.5 c 128,-1,11
 376 848 376 848 416 848 c 0,0,1
135 660 m 1,12,-1
 314 660 l 1,13,-1
 464 175 l 1,14,-1
 545 660 l 1,15,-1
 652 660 l 1,16,-1
 531 0 l 1,17,-1
 352 0 l 1,18,-1
 202 486 l 1,19,-1
 121 0 l 1,20,-1
 14 0 l 1,21,-1
 135 660 l 1,12,-1
EndSplineSet
Validated: 1
Position2: "'cpsp' Capital Spacing lookup 3 subtable" dx=5 dy=0 dh=10 dv=0
EndChar

StartChar: Eng
Encoding: 330 330 83
Width: 667
Flags: MW
HStem: 640 20G<135 314 314 314 545 652 652 652>
VStem: 14 638
LayerCount: 2
UndoRedoHistory
Layer: 0
Undoes
EndUndoes
Redoes
EndRedoes
EndUndoRedoHistory
UndoRedoHistory
Layer: 1
Undoes
EndUndoes
Redoes
EndRedoes
EndUndoRedoHistory
Fore
SplineSet
121 0 m 1,0,-1
 14 0 l 1,1,-1
 135 660 l 1,2,-1
 314 660 l 1,3,-1
 464 175 l 1,4,-1
 545 660 l 1,5,-1
 652 660 l 1,6,-1
 542 59 l 2,7,8
 520 -61 520 -61 485.5 -120 c 128,-1,9
 451 -179 451 -179 391 -179 c 0,10,11
 368 -179 368 -179 350.5 -170.5 c 128,-1,12
 333 -162 333 -162 325 -146 c 1,13,14
 366 -131 366 -131 390.5 -97.5 c 128,-1,15
 415 -64 415 -64 430 0 c 1,16,-1
 354 0 l 1,17,-1
 202 486 l 1,18,-1
 121 0 l 1,0,-1
EndSplineSet
Validated: 1
Position2: "'cpsp' Capital Spacing lookup 3 subtable" dx=5 dy=0 dh=10 dv=0
EndChar

StartChar: Nj
Encoding: 459 459 84
Width: 950
Flags: MW
HStem: -200 66 506 20G<943 943> 594 143<863 912> 640 20G<135 314 314 314 545 652 652 652>
VStem: 796 182<642 688>
LayerCount: 2
UndoRedoHistory
Layer: 0
Undoes
EndUndoes
Redoes
EndRedoes
EndUndoRedoHistory
UndoRedoHistory
Layer: 1
Undoes
EndUndoes
Redoes
EndRedoes
EndUndoRedoHistory
Fore
SplineSet
889 737 m 0,0,1
 929 737 929 737 953.5 718.5 c 128,-1,2
 978 700 978 700 978 666 c 0,3,4
 978 631 978 631 952.5 612.5 c 128,-1,5
 927 594 927 594 886 594 c 0,6,7
 846 594 846 594 821 612.5 c 128,-1,8
 796 631 796 631 796 664 c 0,9,10
 796 699 796 699 822 718 c 128,-1,11
 848 737 848 737 889 737 c 0,0,1
135 660 m 1,12,-1
 314 660 l 1,13,-1
 464 175 l 1,14,-1
 545 660 l 1,15,-1
 652 660 l 1,16,-1
 531 0 l 1,17,-1
 352 0 l 1,18,-1
 202 486 l 1,19,-1
 121 0 l 1,20,-1
 14 0 l 1,21,-1
 135 660 l 1,12,-1
851 61 m 2,22,23
 824 -75 824 -75 777.5 -137.5 c 128,-1,24
 731 -200 731 -200 658 -200 c 0,25,26
 620 -200 620 -200 595 -183.5 c 128,-1,27
 570 -167 570 -167 563 -134 c 1,28,29
 620 -132 620 -132 650 -79 c 128,-1,30
 680 -26 680 -26 706 106 c 2,31,-1
 786 510 l 1,32,-1
 943 526 l 1,33,-1
 851 61 l 2,22,23
EndSplineSet
Validated: 8388609
Position2: "'cpsp' Capital Spacing lookup 3 subtable" dx=5 dy=0 dh=10 dv=0
EndChar

StartChar: Ntilde
Encoding: 209 209 85
Width: 667
Flags: MW
HStem: 640 20G<135 314 314 314 545 652 652 652> 724 96<500 534 500 535> 741 96<310 343>
VStem: 14 638
LayerCount: 2
UndoRedoHistory
Layer: 0
Undoes
EndUndoes
Redoes
EndRedoes
EndUndoRedoHistory
UndoRedoHistory
Layer: 1
Undoes
EndUndoes
Redoes
EndRedoes
EndUndoRedoHistory
Fore
SplineSet
577 837 m 1,0,1
 595 815 595 815 595 791 c 0,2,3
 595 759 595 759 571.5 741.5 c 128,-1,4
 548 724 548 724 508 724 c 0,5,6
 486 724 486 724 414.5 732.5 c 128,-1,7
 343 741 343 741 323 741 c 0,8,9
 285 741 285 741 262 725 c 1,10,11
 243 750 243 750 243 776 c 0,12,13
 243 805 243 805 266.5 821 c 128,-1,14
 290 837 290 837 333 837 c 0,15,16
 358 837 358 837 429 828.5 c 128,-1,17
 500 820 500 820 522 820 c 0,18,19
 563 820 563 820 577 837 c 1,0,1
135 660 m 1,20,-1
 314 660 l 1,21,-1
 464 175 l 1,22,-1
 545 660 l 1,23,-1
 652 660 l 1,24,-1
 531 0 l 1,25,-1
 352 0 l 1,26,-1
 202 486 l 1,27,-1
 121 0 l 1,28,-1
 14 0 l 1,29,-1
 135 660 l 1,20,-1
EndSplineSet
Validated: 8388609
Position2: "'cpsp' Capital Spacing lookup 3 subtable" dx=5 dy=0 dh=10 dv=0
EndChar

StartChar: O
Encoding: 79 79 86
Width: 639
Flags: MW
HStem: -20 71<241 314 241 375> 610 70<328 400>
VStem: 24 171<150 189 130 344> 445 171<473 511 318 532>
LayerCount: 2
UndoRedoHistory
Layer: 0
Undoes
EndUndoes
Redoes
EndRedoes
EndUndoRedoHistory
UndoRedoHistory
Layer: 1
Undoes
EndUndoes
Redoes
EndRedoes
EndUndoRedoHistory
Fore
SplineSet
390 680 m 0,0,1
 504 680 504 680 560 616.5 c 128,-1,2
 616 553 616 553 616 425 c 0,3,4
 616 360 616 360 602.5 296.5 c 128,-1,5
 589 233 589 233 559 175.5 c 128,-1,6
 529 118 529 118 487 75 c 128,-1,7
 445 32 445 32 384 6 c 128,-1,8
 323 -20 323 -20 251 -20 c 0,9,10
 137 -20 137 -20 80.5 43.5 c 128,-1,11
 24 107 24 107 24 236 c 0,12,13
 24 302 24 302 38 365 c 128,-1,14
 52 428 52 428 81.5 485.5 c 128,-1,15
 111 543 111 543 153.5 586 c 128,-1,16
 196 629 196 629 257 654.5 c 128,-1,17
 318 680 318 680 390 680 c 0,0,1
370 610 m 0,18,19
 309 610 309 610 273 545.5 c 128,-1,20
 237 481 237 481 217 357 c 1,21,22
 195 245 195 245 195 162 c 0,23,24
 195 109 195 109 212 80 c 128,-1,25
 229 51 229 51 270 51 c 0,26,27
 302 51 302 51 327.5 69 c 128,-1,28
 353 87 353 87 371 122 c 128,-1,29
 389 157 389 157 401.5 201 c 128,-1,30
 414 245 414 245 423 304 c 1,31,32
 445 418 445 418 445 500 c 0,33,34
 445 553 445 553 428.5 581.5 c 128,-1,35
 412 610 412 610 370 610 c 0,18,19
EndSplineSet
Validated: 1
Substitution2: "Single Substitution lookup 21 subtable" ordmasculine
Substitution2: "'aalt' Access All Alternates lookup 0 subtable" ordmasculine
Position2: "'cpsp' Capital Spacing lookup 3 subtable" dx=5 dy=0 dh=10 dv=0
EndChar

StartChar: Oacute
Encoding: 211 211 87
Width: 639
Flags: MW
HStem: -20 71<241 314 241 375> 610 70<328 400>
VStem: 24 171<150 189 130 344> 445 171<473 511 318 532>
LayerCount: 2
UndoRedoHistory
Layer: 0
Undoes
EndUndoes
Redoes
EndRedoes
EndUndoRedoHistory
UndoRedoHistory
Layer: 1
Undoes
EndUndoes
Redoes
EndRedoes
EndUndoRedoHistory
Fore
SplineSet
315 758 m 1,0,-1
 554 853 l 1,1,2
 579 836 579 836 579 804 c 0,3,4
 579 721 579 721 442 717 c 1,5,-1
 325 712 l 1,6,-1
 315 758 l 1,0,-1
390 680 m 0,7,8
 504 680 504 680 560 616.5 c 128,-1,9
 616 553 616 553 616 425 c 0,10,11
 616 360 616 360 602.5 296.5 c 128,-1,12
 589 233 589 233 559 175.5 c 128,-1,13
 529 118 529 118 487 75 c 128,-1,14
 445 32 445 32 384 6 c 128,-1,15
 323 -20 323 -20 251 -20 c 0,16,17
 137 -20 137 -20 80.5 43.5 c 128,-1,18
 24 107 24 107 24 236 c 0,19,20
 24 302 24 302 38 365 c 128,-1,21
 52 428 52 428 81.5 485.5 c 128,-1,22
 111 543 111 543 153.5 586 c 128,-1,23
 196 629 196 629 257 654.5 c 128,-1,24
 318 680 318 680 390 680 c 0,7,8
370 610 m 0,25,26
 309 610 309 610 273 545.5 c 128,-1,27
 237 481 237 481 217 357 c 1,28,29
 195 245 195 245 195 162 c 0,30,31
 195 109 195 109 212 80 c 128,-1,32
 229 51 229 51 270 51 c 0,33,34
 302 51 302 51 327.5 69 c 128,-1,35
 353 87 353 87 371 122 c 128,-1,36
 389 157 389 157 401.5 201 c 128,-1,37
 414 245 414 245 423 304 c 1,38,39
 445 418 445 418 445 500 c 0,40,41
 445 553 445 553 428.5 581.5 c 128,-1,42
 412 610 412 610 370 610 c 0,25,26
EndSplineSet
Validated: 1
Substitution2: "'locl' Localized Forms in Latin lookup 13 subtable" Oacute.loclPLK
Substitution2: "'aalt' Access All Alternates lookup 0 subtable" Oacute.loclPLK
Position2: "'cpsp' Capital Spacing lookup 3 subtable" dx=5 dy=0 dh=10 dv=0
EndChar

StartChar: Obreve
Encoding: 334 334 88
Width: 639
Flags: MW
HStem: -20 71<241 314 241 375> 610 70<328 400> 700 49<391 432 391 457>
VStem: 24 171<150 189 130 344> 248 117<788 805 788 811> 445 171<473 511 318 532>
LayerCount: 2
UndoRedoHistory
Layer: 0
Undoes
EndUndoes
Redoes
EndRedoes
EndUndoRedoHistory
UndoRedoHistory
Layer: 1
Undoes
EndUndoes
Redoes
EndRedoes
EndUndoRedoHistory
Fore
SplineSet
369 833 m 1,0,1
 365 814 365 814 365 800 c 0,2,3
 365 779 365 779 375 764 c 128,-1,4
 385 749 385 749 408 749 c 0,5,6
 440 749 440 749 459 774 c 128,-1,7
 478 799 478 799 485 833 c 1,8,-1
 597 833 l 1,9,10
 584 772 584 772 533.5 736 c 128,-1,11
 483 700 483 700 398 700 c 0,12,13
 325 700 325 700 286.5 729 c 128,-1,14
 248 758 248 758 248 806 c 0,15,16
 248 818 248 818 251 833 c 1,17,-1
 369 833 l 1,0,1
390 680 m 0,18,19
 504 680 504 680 560 616.5 c 128,-1,20
 616 553 616 553 616 425 c 0,21,22
 616 360 616 360 602.5 296.5 c 128,-1,23
 589 233 589 233 559 175.5 c 128,-1,24
 529 118 529 118 487 75 c 128,-1,25
 445 32 445 32 384 6 c 128,-1,26
 323 -20 323 -20 251 -20 c 0,27,28
 137 -20 137 -20 80.5 43.5 c 128,-1,29
 24 107 24 107 24 236 c 0,30,31
 24 302 24 302 38 365 c 128,-1,32
 52 428 52 428 81.5 485.5 c 128,-1,33
 111 543 111 543 153.5 586 c 128,-1,34
 196 629 196 629 257 654.5 c 128,-1,35
 318 680 318 680 390 680 c 0,18,19
370 610 m 0,36,37
 309 610 309 610 273 545.5 c 128,-1,38
 237 481 237 481 217 357 c 1,39,40
 195 245 195 245 195 162 c 0,41,42
 195 109 195 109 212 80 c 128,-1,43
 229 51 229 51 270 51 c 0,44,45
 302 51 302 51 327.5 69 c 128,-1,46
 353 87 353 87 371 122 c 128,-1,47
 389 157 389 157 401.5 201 c 128,-1,48
 414 245 414 245 423 304 c 1,49,50
 445 418 445 418 445 500 c 0,51,52
 445 553 445 553 428.5 581.5 c 128,-1,53
 412 610 412 610 370 610 c 0,36,37
EndSplineSet
Validated: 1
Position2: "'cpsp' Capital Spacing lookup 3 subtable" dx=5 dy=0 dh=10 dv=0
EndChar

StartChar: Ocircumflex
Encoding: 212 212 89
Width: 639
Flags: MW
HStem: -20 71<241 314 241 375> 610 70<328 400>
VStem: 24 171<150 189 130 344> 445 171<473 511 318 532>
LayerCount: 2
UndoRedoHistory
Layer: 0
Undoes
EndUndoes
Redoes
EndRedoes
EndUndoRedoHistory
UndoRedoHistory
Layer: 1
Undoes
EndUndoes
Redoes
EndRedoes
EndUndoRedoHistory
Fore
SplineSet
508 681 m 1,0,-1
 397 743 l 1,1,-1
 258 681 l 1,2,-1
 229 729 l 1,3,-1
 394 845 l 1,4,-1
 420 845 l 1,5,-1
 553 728 l 1,6,-1
 508 681 l 1,0,-1
390 680 m 0,7,8
 504 680 504 680 560 616.5 c 128,-1,9
 616 553 616 553 616 425 c 0,10,11
 616 360 616 360 602.5 296.5 c 128,-1,12
 589 233 589 233 559 175.5 c 128,-1,13
 529 118 529 118 487 75 c 128,-1,14
 445 32 445 32 384 6 c 128,-1,15
 323 -20 323 -20 251 -20 c 0,16,17
 137 -20 137 -20 80.5 43.5 c 128,-1,18
 24 107 24 107 24 236 c 0,19,20
 24 302 24 302 38 365 c 128,-1,21
 52 428 52 428 81.5 485.5 c 128,-1,22
 111 543 111 543 153.5 586 c 128,-1,23
 196 629 196 629 257 654.5 c 128,-1,24
 318 680 318 680 390 680 c 0,7,8
370 610 m 0,25,26
 309 610 309 610 273 545.5 c 128,-1,27
 237 481 237 481 217 357 c 1,28,29
 195 245 195 245 195 162 c 0,30,31
 195 109 195 109 212 80 c 128,-1,32
 229 51 229 51 270 51 c 0,33,34
 302 51 302 51 327.5 69 c 128,-1,35
 353 87 353 87 371 122 c 128,-1,36
 389 157 389 157 401.5 201 c 128,-1,37
 414 245 414 245 423 304 c 1,38,39
 445 418 445 418 445 500 c 0,40,41
 445 553 445 553 428.5 581.5 c 128,-1,42
 412 610 412 610 370 610 c 0,25,26
EndSplineSet
Validated: 1
Position2: "'cpsp' Capital Spacing lookup 3 subtable" dx=5 dy=0 dh=10 dv=0
EndChar

StartChar: Odieresis
Encoding: 214 214 90
Width: 639
Flags: MW
HStem: -20 71<241 314 241 375> 610 70<328 400> 709 139<271 317 493 540>
VStem: 24 171<150 189 130 344> 205 177<755 800> 427 177<755 800> 445 171<473 511 318 532>
LayerCount: 2
UndoRedoHistory
Layer: 0
Undoes
EndUndoes
Redoes
EndRedoes
EndUndoRedoHistory
UndoRedoHistory
Layer: 1
Undoes
EndUndoes
Redoes
EndRedoes
EndUndoRedoHistory
Fore
SplineSet
296 848 m 0,0,1
 335 848 335 848 358.5 830 c 128,-1,2
 382 812 382 812 382 779 c 0,3,4
 382 745 382 745 357 727 c 128,-1,5
 332 709 332 709 292 709 c 0,6,7
 253 709 253 709 229 726.5 c 128,-1,8
 205 744 205 744 205 777 c 0,9,10
 205 811 205 811 230.5 829.5 c 128,-1,11
 256 848 256 848 296 848 c 0,0,1
518 848 m 0,12,13
 557 848 557 848 580.5 830 c 128,-1,14
 604 812 604 812 604 779 c 0,15,16
 604 745 604 745 579 727 c 128,-1,17
 554 709 554 709 514 709 c 0,18,19
 475 709 475 709 451 726.5 c 128,-1,20
 427 744 427 744 427 777 c 0,21,22
 427 811 427 811 452.5 829.5 c 128,-1,23
 478 848 478 848 518 848 c 0,12,13
390 680 m 0,24,25
 504 680 504 680 560 616.5 c 128,-1,26
 616 553 616 553 616 425 c 0,27,28
 616 360 616 360 602.5 296.5 c 128,-1,29
 589 233 589 233 559 175.5 c 128,-1,30
 529 118 529 118 487 75 c 128,-1,31
 445 32 445 32 384 6 c 128,-1,32
 323 -20 323 -20 251 -20 c 0,33,34
 137 -20 137 -20 80.5 43.5 c 128,-1,35
 24 107 24 107 24 236 c 0,36,37
 24 302 24 302 38 365 c 128,-1,38
 52 428 52 428 81.5 485.5 c 128,-1,39
 111 543 111 543 153.5 586 c 128,-1,40
 196 629 196 629 257 654.5 c 128,-1,41
 318 680 318 680 390 680 c 0,24,25
370 610 m 0,42,43
 309 610 309 610 273 545.5 c 128,-1,44
 237 481 237 481 217 357 c 1,45,46
 195 245 195 245 195 162 c 0,47,48
 195 109 195 109 212 80 c 128,-1,49
 229 51 229 51 270 51 c 0,50,51
 302 51 302 51 327.5 69 c 128,-1,52
 353 87 353 87 371 122 c 128,-1,53
 389 157 389 157 401.5 201 c 128,-1,54
 414 245 414 245 423 304 c 1,55,56
 445 418 445 418 445 500 c 0,57,58
 445 553 445 553 428.5 581.5 c 128,-1,59
 412 610 412 610 370 610 c 0,42,43
EndSplineSet
Validated: 8388609
Position2: "'cpsp' Capital Spacing lookup 3 subtable" dx=5 dy=0 dh=10 dv=0
EndChar

StartChar: Odotbelow
Encoding: 7884 7884 91
Width: 639
Flags: MW
HStem: -187 139<217 265> -20 71<241 314 241 375> 610 70<328 400>
VStem: 24 171<150 189 130 344> 152 178<-141 -96> 445 171<473 511 318 532>
LayerCount: 2
UndoRedoHistory
Layer: 0
Undoes
EndUndoes
Redoes
EndRedoes
EndUndoRedoHistory
UndoRedoHistory
Layer: 1
Undoes
EndUndoes
Redoes
EndRedoes
EndUndoRedoHistory
Fore
SplineSet
390 680 m 0,0,1
 504 680 504 680 560 616.5 c 128,-1,2
 616 553 616 553 616 425 c 0,3,4
 616 360 616 360 602.5 296.5 c 128,-1,5
 589 233 589 233 559 175.5 c 128,-1,6
 529 118 529 118 487 75 c 128,-1,7
 445 32 445 32 384 6 c 128,-1,8
 323 -20 323 -20 251 -20 c 0,9,10
 137 -20 137 -20 80.5 43.5 c 128,-1,11
 24 107 24 107 24 236 c 0,12,13
 24 302 24 302 38 365 c 128,-1,14
 52 428 52 428 81.5 485.5 c 128,-1,15
 111 543 111 543 153.5 586 c 128,-1,16
 196 629 196 629 257 654.5 c 128,-1,17
 318 680 318 680 390 680 c 0,0,1
370 610 m 0,18,19
 309 610 309 610 273 545.5 c 128,-1,20
 237 481 237 481 217 357 c 1,21,22
 195 245 195 245 195 162 c 0,23,24
 195 109 195 109 212 80 c 128,-1,25
 229 51 229 51 270 51 c 0,26,27
 302 51 302 51 327.5 69 c 128,-1,28
 353 87 353 87 371 122 c 128,-1,29
 389 157 389 157 401.5 201 c 128,-1,30
 414 245 414 245 423 304 c 1,31,32
 445 418 445 418 445 500 c 0,33,34
 445 553 445 553 428.5 581.5 c 128,-1,35
 412 610 412 610 370 610 c 0,18,19
243 -48 m 0,36,37
 282 -48 282 -48 306 -66 c 128,-1,38
 330 -84 330 -84 330 -117 c 0,39,40
 330 -151 330 -151 304.5 -169 c 128,-1,41
 279 -187 279 -187 239 -187 c 0,42,43
 200 -187 200 -187 176 -169.5 c 128,-1,44
 152 -152 152 -152 152 -119 c 0,45,46
 152 -85 152 -85 177.5 -66.5 c 128,-1,47
 203 -48 203 -48 243 -48 c 0,36,37
EndSplineSet
Validated: 8388609
Position2: "'cpsp' Capital Spacing lookup 3 subtable" dx=5 dy=0 dh=10 dv=0
EndChar

StartChar: Ograve
Encoding: 210 210 92
Width: 639
Flags: MW
HStem: -20 71<241 314 241 375> 610 70<328 400>
VStem: 24 171<150 189 130 344> 445 171<473 511 318 532>
LayerCount: 2
UndoRedoHistory
Layer: 0
Undoes
EndUndoes
Redoes
EndRedoes
EndUndoRedoHistory
UndoRedoHistory
Layer: 1
Undoes
EndUndoes
Redoes
EndRedoes
EndUndoRedoHistory
Fore
SplineSet
487 712 m 1,0,-1
 370 717 l 2,1,2
 232 723 232 723 232 804 c 0,3,4
 232 835 232 835 257 854 c 1,5,-1
 497 758 l 1,6,-1
 487 712 l 1,0,-1
390 680 m 0,7,8
 504 680 504 680 560 616.5 c 128,-1,9
 616 553 616 553 616 425 c 0,10,11
 616 360 616 360 602.5 296.5 c 128,-1,12
 589 233 589 233 559 175.5 c 128,-1,13
 529 118 529 118 487 75 c 128,-1,14
 445 32 445 32 384 6 c 128,-1,15
 323 -20 323 -20 251 -20 c 0,16,17
 137 -20 137 -20 80.5 43.5 c 128,-1,18
 24 107 24 107 24 236 c 0,19,20
 24 302 24 302 38 365 c 128,-1,21
 52 428 52 428 81.5 485.5 c 128,-1,22
 111 543 111 543 153.5 586 c 128,-1,23
 196 629 196 629 257 654.5 c 128,-1,24
 318 680 318 680 390 680 c 0,7,8
370 610 m 0,25,26
 309 610 309 610 273 545.5 c 128,-1,27
 237 481 237 481 217 357 c 1,28,29
 195 245 195 245 195 162 c 0,30,31
 195 109 195 109 212 80 c 128,-1,32
 229 51 229 51 270 51 c 0,33,34
 302 51 302 51 327.5 69 c 128,-1,35
 353 87 353 87 371 122 c 128,-1,36
 389 157 389 157 401.5 201 c 128,-1,37
 414 245 414 245 423 304 c 1,38,39
 445 418 445 418 445 500 c 0,40,41
 445 553 445 553 428.5 581.5 c 128,-1,42
 412 610 412 610 370 610 c 0,25,26
EndSplineSet
Validated: 1
Position2: "'cpsp' Capital Spacing lookup 3 subtable" dx=5 dy=0 dh=10 dv=0
EndChar

StartChar: Ohungarumlaut
Encoding: 336 336 93
Width: 639
Flags: MW
HStem: -20 71<241 314 241 375> 610 70<328 400>
VStem: 24 171<150 189 130 344> 445 171<473 511 318 532>
LayerCount: 2
UndoRedoHistory
Layer: 0
Undoes
EndUndoes
Redoes
EndRedoes
EndUndoRedoHistory
UndoRedoHistory
Layer: 1
Undoes
EndUndoes
Redoes
EndRedoes
EndUndoRedoHistory
Fore
SplineSet
418 852 m 1,0,1
 451 833 451 833 451 800 c 0,2,3
 451 767 451 767 428.5 749.5 c 128,-1,4
 406 732 406 732 353 720 c 2,5,-1
 271 702 l 1,6,-1
 246 736 l 1,7,-1
 418 852 l 1,0,1
619 852 m 1,8,9
 652 833 652 833 652 801 c 0,10,11
 652 768 652 768 629.5 750 c 128,-1,12
 607 732 607 732 555 720 c 2,13,-1
 472 702 l 1,14,-1
 447 736 l 1,15,-1
 619 852 l 1,8,9
390 680 m 0,16,17
 504 680 504 680 560 616.5 c 128,-1,18
 616 553 616 553 616 425 c 0,19,20
 616 360 616 360 602.5 296.5 c 128,-1,21
 589 233 589 233 559 175.5 c 128,-1,22
 529 118 529 118 487 75 c 128,-1,23
 445 32 445 32 384 6 c 128,-1,24
 323 -20 323 -20 251 -20 c 0,25,26
 137 -20 137 -20 80.5 43.5 c 128,-1,27
 24 107 24 107 24 236 c 0,28,29
 24 302 24 302 38 365 c 128,-1,30
 52 428 52 428 81.5 485.5 c 128,-1,31
 111 543 111 543 153.5 586 c 128,-1,32
 196 629 196 629 257 654.5 c 128,-1,33
 318 680 318 680 390 680 c 0,16,17
370 610 m 0,34,35
 309 610 309 610 273 545.5 c 128,-1,36
 237 481 237 481 217 357 c 1,37,38
 195 245 195 245 195 162 c 0,39,40
 195 109 195 109 212 80 c 128,-1,41
 229 51 229 51 270 51 c 0,42,43
 302 51 302 51 327.5 69 c 128,-1,44
 353 87 353 87 371 122 c 128,-1,45
 389 157 389 157 401.5 201 c 128,-1,46
 414 245 414 245 423 304 c 1,47,48
 445 418 445 418 445 500 c 0,49,50
 445 553 445 553 428.5 581.5 c 128,-1,51
 412 610 412 610 370 610 c 0,34,35
EndSplineSet
Validated: 1
Position2: "'cpsp' Capital Spacing lookup 3 subtable" dx=5 dy=0 dh=10 dv=0
EndChar

StartChar: Omacron
Encoding: 332 332 94
Width: 639
Flags: MW
HStem: -20 71<241 314 241 375> 610 70<328 400> 737 87<318 479 256 547>
VStem: 24 171<150 189 130 344> 445 171<473 511 318 532>
LayerCount: 2
UndoRedoHistory
Layer: 0
Undoes
EndUndoes
Redoes
EndRedoes
EndUndoRedoHistory
UndoRedoHistory
Layer: 1
Undoes
EndUndoes
Redoes
EndRedoes
EndUndoRedoHistory
Fore
SplineSet
547 824 m 1,0,1
 551 810 551 810 551 798 c 0,2,3
 551 771 551 771 532.5 754 c 128,-1,4
 514 737 514 737 479 737 c 2,5,-1
 256 737 l 1,6,7
 254 746 254 746 254 763 c 0,8,9
 254 791 254 791 272 807.5 c 128,-1,10
 290 824 290 824 318 824 c 2,11,-1
 547 824 l 1,0,1
390 680 m 0,12,13
 504 680 504 680 560 616.5 c 128,-1,14
 616 553 616 553 616 425 c 0,15,16
 616 360 616 360 602.5 296.5 c 128,-1,17
 589 233 589 233 559 175.5 c 128,-1,18
 529 118 529 118 487 75 c 128,-1,19
 445 32 445 32 384 6 c 128,-1,20
 323 -20 323 -20 251 -20 c 0,21,22
 137 -20 137 -20 80.5 43.5 c 128,-1,23
 24 107 24 107 24 236 c 0,24,25
 24 302 24 302 38 365 c 128,-1,26
 52 428 52 428 81.5 485.5 c 128,-1,27
 111 543 111 543 153.5 586 c 128,-1,28
 196 629 196 629 257 654.5 c 128,-1,29
 318 680 318 680 390 680 c 0,12,13
370 610 m 0,30,31
 309 610 309 610 273 545.5 c 128,-1,32
 237 481 237 481 217 357 c 1,33,34
 195 245 195 245 195 162 c 0,35,36
 195 109 195 109 212 80 c 128,-1,37
 229 51 229 51 270 51 c 0,38,39
 302 51 302 51 327.5 69 c 128,-1,40
 353 87 353 87 371 122 c 128,-1,41
 389 157 389 157 401.5 201 c 128,-1,42
 414 245 414 245 423 304 c 1,43,44
 445 418 445 418 445 500 c 0,45,46
 445 553 445 553 428.5 581.5 c 128,-1,47
 412 610 412 610 370 610 c 0,30,31
EndSplineSet
Validated: 1
Position2: "'cpsp' Capital Spacing lookup 3 subtable" dx=5 dy=0 dh=10 dv=0
EndChar

StartChar: Oogonek
Encoding: 490 490 95
Width: 639
Flags: MW
HStem: -258 73<335 362> -20 71<241 255> 610 70<328 400>
VStem: 24 171<150 189 130 344> 209 92<-149 -121> 445 171<473 511 341 532>
LayerCount: 2
UndoRedoHistory
Layer: 0
Undoes
EndUndoes
Redoes
EndRedoes
EndUndoRedoHistory
UndoRedoHistory
Layer: 1
Undoes
EndUndoes
Redoes
EndRedoes
EndUndoRedoHistory
Fore
SplineSet
395 10 m 1,0,1
 353 -16 353 -16 327 -53.5 c 128,-1,2
 301 -91 301 -91 301 -130 c 0,3,4
 301 -159 301 -159 313.5 -172 c 128,-1,5
 326 -185 326 -185 354 -185 c 0,6,7
 392 -185 392 -185 411 -160 c 1,8,9
 428 -177 428 -177 428 -198 c 0,10,11
 428 -223 428 -223 402 -240.5 c 128,-1,12
 376 -258 376 -258 332 -258 c 0,13,14
 275 -258 275 -258 242 -229.5 c 128,-1,15
 209 -201 209 -201 209 -148 c 0,16,17
 209 -71 209 -71 277 -19 c 1,18,19
 269 -20 269 -20 251 -20 c 0,20,21
 137 -20 137 -20 80.5 43.5 c 128,-1,22
 24 107 24 107 24 236 c 0,23,24
 24 302 24 302 38 365 c 128,-1,25
 52 428 52 428 81.5 485.5 c 128,-1,26
 111 543 111 543 153.5 586 c 128,-1,27
 196 629 196 629 257 654.5 c 128,-1,28
 318 680 318 680 390 680 c 0,29,30
 504 680 504 680 560 616.5 c 128,-1,31
 616 553 616 553 616 425 c 0,32,33
 616 339 616 339 592.5 259 c 128,-1,34
 569 179 569 179 518 111.5 c 128,-1,35
 467 44 467 44 395 10 c 1,0,1
195 162 m 0,36,37
 195 109 195 109 212 80 c 128,-1,38
 229 51 229 51 270 51 c 0,39,40
 302 51 302 51 327.5 69 c 128,-1,41
 353 87 353 87 371 122 c 128,-1,42
 389 157 389 157 401.5 201 c 128,-1,43
 414 245 414 245 423 304 c 1,44,45
 445 418 445 418 445 500 c 0,46,47
 445 553 445 553 428.5 581.5 c 128,-1,48
 412 610 412 610 370 610 c 0,49,50
 309 610 309 610 273 545.5 c 128,-1,51
 237 481 237 481 217 357 c 1,52,53
 195 245 195 245 195 162 c 0,36,37
EndSplineSet
Validated: 1
Position2: "'cpsp' Capital Spacing lookup 3 subtable" dx=5 dy=0 dh=10 dv=0
EndChar

StartChar: Oslash
Encoding: 216 216 96
Width: 648
Flags: MW
HStem: -20 71<252 346 252 384> 610 70<336 401> 697 20G<599 610>
VStem: 33 180<276 276 276 344> 447 178<411 411>
LayerCount: 2
UndoRedoHistory
Layer: 0
Undoes
EndUndoes
Redoes
EndRedoes
EndUndoRedoHistory
UndoRedoHistory
Layer: 1
Undoes
EndUndoes
Redoes
EndRedoes
EndUndoRedoHistory
Fore
SplineSet
548 653 m 2,0,1
 580 689 580 689 599 717 c 1,2,3
 617 717 617 717 632.5 700 c 128,-1,4
 648 683 648 683 648 660 c 0,5,6
 648 633 648 633 625 609 c 2,7,-1
 594 575 l 1,8,9
 625 518 625 518 625 425 c 0,10,11
 625 360 625 360 611.5 296.5 c 128,-1,12
 598 233 598 233 568 175.5 c 128,-1,13
 538 118 538 118 496 75 c 128,-1,14
 454 32 454 32 393 6 c 128,-1,15
 332 -20 332 -20 259 -20 c 0,16,17
 163 -20 163 -20 105 28 c 1,18,-1
 98 21 l 2,19,20
 66 -12 66 -12 39 -56 c 1,21,22
 18 -56 18 -56 4.5 -41.5 c 128,-1,23
 -9 -27 -9 -27 -10 -5 c 1,24,25
 -10 26 -10 26 11 49 c 2,26,-1
 57 100 l 1,27,28
 33 154 33 154 33 236 c 0,29,30
 33 302 33 302 47 365 c 128,-1,31
 61 428 61 428 90.5 485.5 c 128,-1,32
 120 543 120 543 162 586 c 128,-1,33
 204 629 204 629 265 654.5 c 128,-1,34
 326 680 326 680 398 680 c 0,35,36
 487 680 487 680 539 643 c 1,37,-1
 548 653 l 2,0,1
449 542 m 1,38,39
 444 574 444 574 427.5 592 c 128,-1,40
 411 610 411 610 379 610 c 0,41,42
 318 610 318 610 282.5 546 c 128,-1,43
 247 482 247 482 226 358 c 1,44,45
 216 308 216 308 213 276 c 1,46,-1
 449 542 l 1,38,39
205 140 m 1,47,48
 210 51 210 51 278 51 c 0,49,50
 408 51 408 51 443 370 c 0,51,52
 444 379 444 379 447 411 c 1,53,-1
 205 140 l 1,47,48
EndSplineSet
Validated: 1
Position2: "'cpsp' Capital Spacing lookup 3 subtable" dx=5 dy=0 dh=10 dv=0
EndChar

StartChar: Oslashacute
Encoding: 510 510 97
Width: 648
Flags: MW
HStem: -20 71<252 346 252 384> 610 70<336 401> 697 20G<431 431 599 610>
VStem: 33 180<276 276 276 344> 447 178<411 411>
LayerCount: 2
UndoRedoHistory
Layer: 0
Undoes
EndUndoes
Redoes
EndRedoes
EndUndoRedoHistory
UndoRedoHistory
Layer: 1
Undoes
EndUndoes
Redoes
EndRedoes
EndUndoRedoHistory
Fore
SplineSet
304 758 m 1,0,-1
 543 853 l 1,1,2
 568 836 568 836 568 804 c 0,3,4
 568 721 568 721 431 717 c 1,5,-1
 314 712 l 1,6,-1
 304 758 l 1,0,-1
548 653 m 2,7,8
 580 689 580 689 599 717 c 1,9,10
 617 717 617 717 632.5 700 c 128,-1,11
 648 683 648 683 648 660 c 0,12,13
 648 633 648 633 625 609 c 2,14,-1
 594 575 l 1,15,16
 625 518 625 518 625 425 c 0,17,18
 625 360 625 360 611.5 296.5 c 128,-1,19
 598 233 598 233 568 175.5 c 128,-1,20
 538 118 538 118 496 75 c 128,-1,21
 454 32 454 32 393 6 c 128,-1,22
 332 -20 332 -20 259 -20 c 0,23,24
 163 -20 163 -20 105 28 c 1,25,-1
 98 21 l 2,26,27
 66 -12 66 -12 39 -56 c 1,28,29
 18 -56 18 -56 4.5 -41.5 c 128,-1,30
 -9 -27 -9 -27 -10 -5 c 1,31,32
 -10 26 -10 26 11 49 c 2,33,-1
 57 100 l 1,34,35
 33 154 33 154 33 236 c 0,36,37
 33 302 33 302 47 365 c 128,-1,38
 61 428 61 428 90.5 485.5 c 128,-1,39
 120 543 120 543 162 586 c 128,-1,40
 204 629 204 629 265 654.5 c 128,-1,41
 326 680 326 680 398 680 c 0,42,43
 487 680 487 680 539 643 c 1,44,-1
 548 653 l 2,7,8
449 542 m 1,45,46
 444 574 444 574 427.5 592 c 128,-1,47
 411 610 411 610 379 610 c 0,48,49
 318 610 318 610 282.5 546 c 128,-1,50
 247 482 247 482 226 358 c 1,51,52
 216 308 216 308 213 276 c 1,53,-1
 449 542 l 1,45,46
205 140 m 1,54,55
 210 51 210 51 278 51 c 0,56,57
 408 51 408 51 443 370 c 0,58,59
 444 379 444 379 447 411 c 1,60,-1
 205 140 l 1,54,55
EndSplineSet
Validated: 1
Position2: "'cpsp' Capital Spacing lookup 3 subtable" dx=5 dy=0 dh=10 dv=0
EndChar

StartChar: Otilde
Encoding: 213 213 98
Width: 639
Flags: MW
HStem: -20 71<241 314 241 375> 610 70<328 400> 724 96<486 521 486 521> 741 96<296 330>
VStem: 24 171<150 189 130 344> 445 171<473 511 318 532>
LayerCount: 2
UndoRedoHistory
Layer: 0
Undoes
EndUndoes
Redoes
EndRedoes
EndUndoRedoHistory
UndoRedoHistory
Layer: 1
Undoes
EndUndoes
Redoes
EndRedoes
EndUndoRedoHistory
Fore
SplineSet
564 837 m 1,0,1
 582 815 582 815 582 791 c 0,2,3
 582 759 582 759 559 741.5 c 128,-1,4
 536 724 536 724 495 724 c 0,5,6
 473 724 473 724 401.5 732.5 c 128,-1,7
 330 741 330 741 310 741 c 0,8,9
 272 741 272 741 249 725 c 1,10,11
 230 750 230 750 230 776 c 0,12,13
 230 805 230 805 253 821 c 128,-1,14
 276 837 276 837 320 837 c 0,15,16
 345 837 345 837 416 828.5 c 128,-1,17
 487 820 487 820 509 820 c 0,18,19
 550 820 550 820 564 837 c 1,0,1
390 680 m 0,20,21
 504 680 504 680 560 616.5 c 128,-1,22
 616 553 616 553 616 425 c 0,23,24
 616 360 616 360 602.5 296.5 c 128,-1,25
 589 233 589 233 559 175.5 c 128,-1,26
 529 118 529 118 487 75 c 128,-1,27
 445 32 445 32 384 6 c 128,-1,28
 323 -20 323 -20 251 -20 c 0,29,30
 137 -20 137 -20 80.5 43.5 c 128,-1,31
 24 107 24 107 24 236 c 0,32,33
 24 302 24 302 38 365 c 128,-1,34
 52 428 52 428 81.5 485.5 c 128,-1,35
 111 543 111 543 153.5 586 c 128,-1,36
 196 629 196 629 257 654.5 c 128,-1,37
 318 680 318 680 390 680 c 0,20,21
370 610 m 0,38,39
 309 610 309 610 273 545.5 c 128,-1,40
 237 481 237 481 217 357 c 1,41,42
 195 245 195 245 195 162 c 0,43,44
 195 109 195 109 212 80 c 128,-1,45
 229 51 229 51 270 51 c 0,46,47
 302 51 302 51 327.5 69 c 128,-1,48
 353 87 353 87 371 122 c 128,-1,49
 389 157 389 157 401.5 201 c 128,-1,50
 414 245 414 245 423 304 c 1,51,52
 445 418 445 418 445 500 c 0,53,54
 445 553 445 553 428.5 581.5 c 128,-1,55
 412 610 412 610 370 610 c 0,38,39
EndSplineSet
Validated: 8388609
Position2: "'cpsp' Capital Spacing lookup 3 subtable" dx=5 dy=0 dh=10 dv=0
EndChar

StartChar: OE
Encoding: 338 338 99
Width: 830
Flags: MW
HStem: -20 71<239 292> -20 115<636 649> 285 97<664 709> 550 110<722 773> 577 83<614 614> 610 70<327 399>
VStem: 24 171<148 190 132 343>
LayerCount: 2
UndoRedoHistory
Layer: 0
Undoes
EndUndoes
Redoes
EndRedoes
EndUndoRedoHistory
UndoRedoHistory
Layer: 1
Undoes
EndUndoes
Redoes
EndRedoes
EndUndoRedoHistory
Fore
SplineSet
779 382 m 1,0,1
 779 334 779 334 752.5 309.5 c 128,-1,2
 726 285 726 285 679 285 c 0,3,4
 626 285 626 285 583 306 c 1,5,6
 571 202 571 202 571 185 c 0,7,8
 571 134 571 134 594 114.5 c 128,-1,9
 617 95 617 95 668 95 c 0,10,11
 721 95 721 95 761 110 c 1,12,13
 769 92 769 92 769 71 c 0,14,15
 769 45 769 45 755 26 c 128,-1,16
 741 7 741 7 717 -2.5 c 128,-1,17
 693 -12 693 -12 668.5 -16 c 128,-1,18
 644 -20 644 -20 615 -20 c 0,19,20
 496 -20 496 -20 455 57 c 1,21,22
 378 -20 378 -20 254 -20 c 0,23,24
 137 -20 137 -20 80.5 42.5 c 128,-1,25
 24 105 24 105 24 233 c 0,26,27
 24 300 24 300 38.5 364.5 c 128,-1,28
 53 429 53 429 82.5 486 c 128,-1,29
 112 543 112 543 154 586.5 c 128,-1,30
 196 630 196 630 254.5 655 c 128,-1,31
 313 680 313 680 382 680 c 0,32,33
 447 680 447 680 496 660 c 1,34,-1
 855 660 l 1,35,36
 855 604 855 604 823.5 577 c 128,-1,37
 792 550 792 550 740 550 c 0,38,39
 712 550 712 550 677 557.5 c 128,-1,40
 642 565 642 565 614 577 c 1,41,-1
 592 382 l 1,42,-1
 779 382 l 1,0,1
269 51 m 0,43,44
 300 51 300 51 325.5 69 c 128,-1,45
 351 87 351 87 369 122 c 128,-1,46
 387 157 387 157 399.5 201.5 c 128,-1,47
 412 246 412 246 422 305 c 1,48,49
 444 417 444 417 444 498 c 0,50,51
 444 550 444 550 427.5 580 c 128,-1,52
 411 610 411 610 370 610 c 0,53,54
 339 610 339 610 314 592 c 128,-1,55
 289 574 289 574 270.5 539 c 128,-1,56
 252 504 252 504 239.5 459.5 c 128,-1,57
 227 415 227 415 217 356 c 1,58,59
 195 244 195 244 195 163 c 0,60,61
 195 111 195 111 211.5 81 c 128,-1,62
 228 51 228 51 269 51 c 0,43,44
EndSplineSet
Validated: 8388609
Position2: "'cpsp' Capital Spacing lookup 3 subtable" dx=5 dy=0 dh=10 dv=0
EndChar

StartChar: P
Encoding: 80 80 100
Width: 564
Flags: MW
HStem: 274 53 602 66<335 376>
VStem: 438 158<448 534>
LayerCount: 2
UndoRedoHistory
Layer: 0
Undoes
EndUndoes
Redoes
EndRedoes
EndUndoRedoHistory
UndoRedoHistory
Layer: 1
Undoes
EndUndoes
Redoes
EndRedoes
EndUndoRedoHistory
Fore
SplineSet
8 0 m 1,0,-1
 135 660 l 1,1,2
 261 668 261 668 311 668 c 0,3,4
 359 668 359 668 394.5 665.5 c 128,-1,5
 430 663 430 663 464 656 c 128,-1,6
 498 649 498 649 521 637 c 128,-1,7
 544 625 544 625 561.5 606.5 c 128,-1,8
 579 588 579 588 587.5 560.5 c 128,-1,9
 596 533 596 533 596 497 c 0,10,11
 596 396 596 396 535 335 c 128,-1,12
 474 274 474 274 376 274 c 0,13,14
 335 274 335 274 305 286.5 c 128,-1,15
 275 299 275 299 267 328 c 1,16,17
 269 328 269 328 273.5 327.5 c 128,-1,18
 278 327 278 327 280 327 c 0,19,20
 287 327 287 327 299 329 c 1,21,22
 362 333 362 333 400 378.5 c 128,-1,23
 438 424 438 424 438 498 c 0,24,25
 438 552 438 552 415.5 577 c 128,-1,26
 393 602 393 602 343 602 c 0,27,28
 319 602 319 602 290 597 c 1,29,-1
 175 0 l 1,30,-1
 8 0 l 1,0,-1
EndSplineSet
Validated: 1
Position2: "'cpsp' Capital Spacing lookup 3 subtable" dx=5 dy=0 dh=10 dv=0
EndChar

StartChar: Thorn
Encoding: 222 222 101
Width: 544
Flags: MW
HStem: 146 54 470 68<324 348> 470 190<135 348>
VStem: 414 158<316 402>
LayerCount: 2
UndoRedoHistory
Layer: 0
Undoes
EndUndoes
Redoes
EndRedoes
EndUndoRedoHistory
UndoRedoHistory
Layer: 1
Undoes
EndUndoes
Redoes
EndRedoes
EndUndoRedoHistory
Fore
SplineSet
279 537 m 1,0,1
 295 538 295 538 332 538 c 0,2,3
 390 538 390 538 431.5 530 c 128,-1,4
 473 522 473 522 506 503.5 c 128,-1,5
 539 485 539 485 555.5 451.5 c 128,-1,6
 572 418 572 418 572 369 c 0,7,8
 572 269 572 269 511 207.5 c 128,-1,9
 450 146 450 146 352 146 c 0,10,11
 311 146 311 146 281 158.5 c 128,-1,12
 251 171 251 171 243 200 c 1,13,-1
 268 200 l 1,14,15
 338 204 338 204 376 247.5 c 128,-1,16
 414 291 414 291 414 364 c 0,17,18
 414 421 414 421 389.5 445.5 c 128,-1,19
 365 470 365 470 313 470 c 0,20,21
 291 470 291 470 265 465 c 1,22,-1
 175 0 l 1,23,-1
 8 0 l 1,24,-1
 135 660 l 1,25,-1
 303 660 l 1,26,-1
 279 537 l 1,0,1
EndSplineSet
Validated: 8388609
Position2: "'cpsp' Capital Spacing lookup 3 subtable" dx=5 dy=0 dh=10 dv=0
EndChar

StartChar: Q
Encoding: 81 81 102
Width: 641
Flags: MW
HStem: -166 125<419 477 419 495> -35 20G 88 53 610 70<345 415>
VStem: 35 172<202 240 195 349> 456 171<468 512 322 526>
LayerCount: 2
UndoRedoHistory
Layer: 0
Undoes
EndUndoes
Redoes
EndRedoes
EndUndoRedoHistory
UndoRedoHistory
Layer: 1
Undoes
EndUndoes
Redoes
EndRedoes
EndUndoRedoHistory
Fore
SplineSet
402 680 m 0,0,1
 627 680 627 680 627 428 c 0,2,3
 627 365 627 365 611.5 301.5 c 128,-1,4
 596 238 596 238 566.5 182.5 c 128,-1,5
 537 127 537 127 496.5 83 c 128,-1,6
 456 39 456 39 402.5 12.5 c 128,-1,7
 349 -14 349 -14 289 -17 c 1,8,9
 379 -41 379 -41 454 -41 c 0,10,11
 532 -41 532 -41 576 -15 c 1,12,13
 589 -38 589 -38 589 -70 c 0,14,15
 589 -105 589 -105 569.5 -127 c 128,-1,16
 550 -149 550 -149 523.5 -157.5 c 128,-1,17
 497 -166 497 -166 465 -166 c 0,18,19
 429 -166 429 -166 389 -156.5 c 128,-1,20
 349 -147 349 -147 319 -136 c 128,-1,21
 289 -125 289 -125 251.5 -116 c 128,-1,22
 214 -107 214 -107 184 -107 c 0,23,24
 136 -107 136 -107 104 -126 c 1,25,26
 77 -96 77 -96 77 -57 c 0,27,28
 77 -43 77 -43 81 -31.5 c 128,-1,29
 85 -20 85 -20 91 -11.5 c 128,-1,30
 97 -3 97 -3 108 3.5 c 128,-1,31
 119 10 119 10 128 14 c 128,-1,32
 137 18 137 18 152.5 21 c 128,-1,33
 168 24 168 24 178.5 25.5 c 128,-1,34
 189 27 189 27 208 30 c 0,35,36
 250 35 250 35 281 48 c 128,-1,37
 312 61 312 61 342.5 90 c 128,-1,38
 373 119 373 119 395.5 172.5 c 128,-1,39
 418 226 418 226 434 305 c 0,40,41
 456 418 456 418 456 495 c 0,42,43
 456 549 456 549 441 579.5 c 128,-1,44
 426 610 426 610 386 610 c 0,45,46
 357 610 357 610 331.5 592 c 128,-1,47
 306 574 306 574 288 542.5 c 128,-1,48
 270 511 270 511 256.5 476 c 128,-1,49
 243 441 243 441 233 399 c 0,50,51
 207 296 207 296 207 215 c 0,52,53
 207 182 207 182 216.5 163.5 c 128,-1,54
 226 145 226 145 253 141 c 1,55,56
 253 118 253 118 230.5 103 c 128,-1,57
 208 88 208 88 168 88 c 0,58,59
 35 88 35 88 35 257 c 0,60,61
 35 314 35 314 49 372 c 128,-1,62
 63 430 63 430 93 485.5 c 128,-1,63
 123 541 123 541 165 584 c 128,-1,64
 207 627 207 627 268.5 653.5 c 128,-1,65
 330 680 330 680 402 680 c 0,0,1
EndSplineSet
Validated: 1
Position2: "'cpsp' Capital Spacing lookup 3 subtable" dx=5 dy=0 dh=10 dv=0
EndChar

StartChar: R
Encoding: 82 82 103
Width: 602
Flags: MW
HStem: 602 65<328 371>
VStem: 431 159<442 528>
LayerCount: 2
UndoRedoHistory
Layer: 0
Undoes
EndUndoes
Redoes
EndRedoes
EndUndoRedoHistory
UndoRedoHistory
Layer: 1
Undoes
EndUndoes
Redoes
EndRedoes
EndUndoRedoHistory
Fore
SplineSet
135 660 m 1,0,1
 291 667 291 667 334 667 c 0,2,3
 383 667 383 667 418.5 663.5 c 128,-1,4
 454 660 454 660 488 649.5 c 128,-1,5
 522 639 522 639 543 620.5 c 128,-1,6
 564 602 564 602 577 571.5 c 128,-1,7
 590 541 590 541 590 499 c 0,8,9
 590 415 590 415 545 357.5 c 128,-1,10
 500 300 500 300 425 286 c 1,11,12
 462 185 462 185 502 124.5 c 128,-1,13
 542 64 542 64 580 47 c 1,14,15
 570 13 570 13 544 -3.5 c 128,-1,16
 518 -20 518 -20 482 -20 c 0,17,18
 461 -20 461 -20 442.5 -15 c 128,-1,19
 424 -10 424 -10 408 3 c 128,-1,20
 392 16 392 16 379.5 30.5 c 128,-1,21
 367 45 367 45 354 71 c 128,-1,22
 341 97 341 97 331 120 c 128,-1,23
 321 143 321 143 308.5 182 c 128,-1,24
 296 221 296 221 287 252 c 128,-1,25
 278 283 278 283 264 334 c 1,26,27
 271 333 271 333 281 333 c 0,28,29
 354 333 354 333 392.5 374.5 c 128,-1,30
 431 416 431 416 431 492 c 0,31,32
 431 547 431 547 409 574.5 c 128,-1,33
 387 602 387 602 337 602 c 0,34,35
 315 602 315 602 290 598 c 1,36,-1
 175 0 l 1,37,-1
 10 0 l 1,38,-1
 135 660 l 1,0,1
EndSplineSet
Validated: 1
Position2: "'cpsp' Capital Spacing lookup 3 subtable" dx=5 dy=0 dh=10 dv=0
EndChar

StartChar: Racute
Encoding: 340 340 104
Width: 602
Flags: MW
HStem: 602 65<328 371>
VStem: 431 159<442 528>
LayerCount: 2
UndoRedoHistory
Layer: 0
Undoes
EndUndoes
Redoes
EndRedoes
EndUndoRedoHistory
UndoRedoHistory
Layer: 1
Undoes
EndUndoes
Redoes
EndRedoes
EndUndoRedoHistory
Fore
SplineSet
280 758 m 1,0,-1
 519 853 l 1,1,2
 544 836 544 836 544 804 c 0,3,4
 544 721 544 721 407 717 c 1,5,-1
 290 712 l 1,6,-1
 280 758 l 1,0,-1
135 660 m 1,7,8
 291 667 291 667 334 667 c 0,9,10
 383 667 383 667 418.5 663.5 c 128,-1,11
 454 660 454 660 488 649.5 c 128,-1,12
 522 639 522 639 543 620.5 c 128,-1,13
 564 602 564 602 577 571.5 c 128,-1,14
 590 541 590 541 590 499 c 0,15,16
 590 415 590 415 545 357.5 c 128,-1,17
 500 300 500 300 425 286 c 1,18,19
 462 185 462 185 502 124.5 c 128,-1,20
 542 64 542 64 580 47 c 1,21,22
 570 13 570 13 544 -3.5 c 128,-1,23
 518 -20 518 -20 482 -20 c 0,24,25
 461 -20 461 -20 442.5 -15 c 128,-1,26
 424 -10 424 -10 408 3 c 128,-1,27
 392 16 392 16 379.5 30.5 c 128,-1,28
 367 45 367 45 354 71 c 128,-1,29
 341 97 341 97 331 120 c 128,-1,30
 321 143 321 143 308.5 182 c 128,-1,31
 296 221 296 221 287 252 c 128,-1,32
 278 283 278 283 264 334 c 1,33,34
 271 333 271 333 281 333 c 0,35,36
 354 333 354 333 392.5 374.5 c 128,-1,37
 431 416 431 416 431 492 c 0,38,39
 431 547 431 547 409 574.5 c 128,-1,40
 387 602 387 602 337 602 c 0,41,42
 315 602 315 602 290 598 c 1,43,-1
 175 0 l 1,44,-1
 10 0 l 1,45,-1
 135 660 l 1,7,8
EndSplineSet
Validated: 1
Position2: "'cpsp' Capital Spacing lookup 3 subtable" dx=5 dy=0 dh=10 dv=0
EndChar

StartChar: Rcaron
Encoding: 344 344 105
Width: 602
Flags: MW
HStem: 602 65<328 371>
VStem: 431 159<442 528>
LayerCount: 2
UndoRedoHistory
Layer: 0
Undoes
EndUndoes
Redoes
EndRedoes
EndUndoRedoHistory
UndoRedoHistory
Layer: 1
Undoes
EndUndoes
Redoes
EndRedoes
EndUndoRedoHistory
Fore
SplineSet
266 846 m 1,0,-1
 377 794 l 1,1,-1
 516 846 l 1,2,-1
 545 803 l 1,3,-1
 385 692 l 1,4,-1
 349 692 l 1,5,-1
 221 804 l 1,6,-1
 266 846 l 1,0,-1
135 660 m 1,7,8
 291 667 291 667 334 667 c 0,9,10
 383 667 383 667 418.5 663.5 c 128,-1,11
 454 660 454 660 488 649.5 c 128,-1,12
 522 639 522 639 543 620.5 c 128,-1,13
 564 602 564 602 577 571.5 c 128,-1,14
 590 541 590 541 590 499 c 0,15,16
 590 415 590 415 545 357.5 c 128,-1,17
 500 300 500 300 425 286 c 1,18,19
 462 185 462 185 502 124.5 c 128,-1,20
 542 64 542 64 580 47 c 1,21,22
 570 13 570 13 544 -3.5 c 128,-1,23
 518 -20 518 -20 482 -20 c 0,24,25
 461 -20 461 -20 442.5 -15 c 128,-1,26
 424 -10 424 -10 408 3 c 128,-1,27
 392 16 392 16 379.5 30.5 c 128,-1,28
 367 45 367 45 354 71 c 128,-1,29
 341 97 341 97 331 120 c 128,-1,30
 321 143 321 143 308.5 182 c 128,-1,31
 296 221 296 221 287 252 c 128,-1,32
 278 283 278 283 264 334 c 1,33,34
 271 333 271 333 281 333 c 0,35,36
 354 333 354 333 392.5 374.5 c 128,-1,37
 431 416 431 416 431 492 c 0,38,39
 431 547 431 547 409 574.5 c 128,-1,40
 387 602 387 602 337 602 c 0,41,42
 315 602 315 602 290 598 c 1,43,-1
 175 0 l 1,44,-1
 10 0 l 1,45,-1
 135 660 l 1,7,8
EndSplineSet
Validated: 1
Position2: "'cpsp' Capital Spacing lookup 3 subtable" dx=5 dy=0 dh=10 dv=0
EndChar

StartChar: Rcommaaccent
Encoding: 342 342 106
Width: 602
Flags: MW
HStem: 602 65<328 371>
VStem: 216 118<-134 -100> 431 159<442 528>
LayerCount: 2
UndoRedoHistory
Layer: 0
Undoes
EndUndoes
Redoes
EndRedoes
EndUndoRedoHistory
UndoRedoHistory
Layer: 1
Undoes
EndUndoes
Redoes
EndRedoes
EndUndoRedoHistory
Fore
SplineSet
135 660 m 1,0,1
 291 667 291 667 334 667 c 0,2,3
 383 667 383 667 418.5 663.5 c 128,-1,4
 454 660 454 660 488 649.5 c 128,-1,5
 522 639 522 639 543 620.5 c 128,-1,6
 564 602 564 602 577 571.5 c 128,-1,7
 590 541 590 541 590 499 c 0,8,9
 590 415 590 415 545 357.5 c 128,-1,10
 500 300 500 300 425 286 c 1,11,12
 462 185 462 185 502 124.5 c 128,-1,13
 542 64 542 64 580 47 c 1,14,15
 570 13 570 13 544 -3.5 c 128,-1,16
 518 -20 518 -20 482 -20 c 0,17,18
 461 -20 461 -20 442.5 -15 c 128,-1,19
 424 -10 424 -10 408 3 c 128,-1,20
 392 16 392 16 379.5 30.5 c 128,-1,21
 367 45 367 45 354 71 c 128,-1,22
 341 97 341 97 331 120 c 128,-1,23
 321 143 321 143 308.5 182 c 128,-1,24
 296 221 296 221 287 252 c 128,-1,25
 278 283 278 283 264 334 c 1,26,27
 271 333 271 333 281 333 c 0,28,29
 354 333 354 333 392.5 374.5 c 128,-1,30
 431 416 431 416 431 492 c 0,31,32
 431 547 431 547 409 574.5 c 128,-1,33
 387 602 387 602 337 602 c 0,34,35
 315 602 315 602 290 598 c 1,36,-1
 175 0 l 1,37,-1
 10 0 l 1,38,-1
 135 660 l 1,0,1
334 -112 m 0,39,40
 334 -149 334 -149 311 -181 c 128,-1,41
 288 -213 288 -213 255 -230.5 c 128,-1,42
 222 -248 222 -248 191 -248 c 0,43,44
 168 -248 168 -248 157 -240 c 1,45,46
 187 -204 187 -204 201.5 -174.5 c 128,-1,47
 216 -145 216 -145 216 -107 c 0,48,49
 216 -83 216 -83 208 -63 c 1,50,51
 217 -58 217 -58 234 -54 c 128,-1,52
 251 -50 251 -50 265 -50 c 0,53,54
 296 -50 296 -50 315 -66.5 c 128,-1,55
 334 -83 334 -83 334 -112 c 0,39,40
EndSplineSet
Validated: 1
Position2: "'cpsp' Capital Spacing lookup 3 subtable" dx=5 dy=0 dh=10 dv=0
EndChar

StartChar: Rdotbelow
Encoding: 7770 7770 107
Width: 602
Flags: MW
HStem: -187 139<236 284> 602 65<328 371>
VStem: 171 178<-141 -96> 431 159<442 528>
LayerCount: 2
UndoRedoHistory
Layer: 0
Undoes
EndUndoes
Redoes
EndRedoes
EndUndoRedoHistory
UndoRedoHistory
Layer: 1
Undoes
EndUndoes
Redoes
EndRedoes
EndUndoRedoHistory
Fore
SplineSet
135 660 m 1,0,1
 291 667 291 667 334 667 c 0,2,3
 383 667 383 667 418.5 663.5 c 128,-1,4
 454 660 454 660 488 649.5 c 128,-1,5
 522 639 522 639 543 620.5 c 128,-1,6
 564 602 564 602 577 571.5 c 128,-1,7
 590 541 590 541 590 499 c 0,8,9
 590 415 590 415 545 357.5 c 128,-1,10
 500 300 500 300 425 286 c 1,11,12
 462 185 462 185 502 124.5 c 128,-1,13
 542 64 542 64 580 47 c 1,14,15
 570 13 570 13 544 -3.5 c 128,-1,16
 518 -20 518 -20 482 -20 c 0,17,18
 461 -20 461 -20 442.5 -15 c 128,-1,19
 424 -10 424 -10 408 3 c 128,-1,20
 392 16 392 16 379.5 30.5 c 128,-1,21
 367 45 367 45 354 71 c 128,-1,22
 341 97 341 97 331 120 c 128,-1,23
 321 143 321 143 308.5 182 c 128,-1,24
 296 221 296 221 287 252 c 128,-1,25
 278 283 278 283 264 334 c 1,26,27
 271 333 271 333 281 333 c 0,28,29
 354 333 354 333 392.5 374.5 c 128,-1,30
 431 416 431 416 431 492 c 0,31,32
 431 547 431 547 409 574.5 c 128,-1,33
 387 602 387 602 337 602 c 0,34,35
 315 602 315 602 290 598 c 1,36,-1
 175 0 l 1,37,-1
 10 0 l 1,38,-1
 135 660 l 1,0,1
262 -48 m 0,39,40
 301 -48 301 -48 325 -66 c 128,-1,41
 349 -84 349 -84 349 -117 c 0,42,43
 349 -151 349 -151 323.5 -169 c 128,-1,44
 298 -187 298 -187 258 -187 c 0,45,46
 219 -187 219 -187 195 -169.5 c 128,-1,47
 171 -152 171 -152 171 -119 c 0,48,49
 171 -85 171 -85 196.5 -66.5 c 128,-1,50
 222 -48 222 -48 262 -48 c 0,39,40
EndSplineSet
Validated: 1
Position2: "'cpsp' Capital Spacing lookup 3 subtable" dx=5 dy=0 dh=10 dv=0
EndChar

StartChar: S
Encoding: 83 83 108
Width: 541
Flags: MW
HStem: -21 67<199 249 199 270> 617 63<298 347>
VStem: 4 148<93 128 93 139> 74 155<487 533> 326 158<128 171> 388 144<533 566>
LayerCount: 2
UndoRedoHistory
Layer: 0
Undoes
EndUndoes
Redoes
EndRedoes
EndUndoRedoHistory
UndoRedoHistory
Layer: 1
Undoes
EndUndoes
Redoes
EndRedoes
EndUndoRedoHistory
Fore
SplineSet
355 680 m 0,0,1
 391 680 391 680 421 674 c 128,-1,2
 451 668 451 668 477 655 c 128,-1,3
 503 642 503 642 517.5 618 c 128,-1,4
 532 594 532 594 532 561 c 0,5,6
 532 511 532 511 500 483.5 c 128,-1,7
 468 456 468 456 426 456 c 0,8,9
 399 456 399 456 373 468 c 1,10,11
 388 504 388 504 388 544 c 0,12,13
 388 578 388 578 372 597.5 c 128,-1,14
 356 617 356 617 325 617 c 0,15,16
 285 617 285 617 257 588.5 c 128,-1,17
 229 560 229 560 229 520 c 0,18,19
 229 508 229 508 232.5 496.5 c 128,-1,20
 236 485 236 485 240 476 c 128,-1,21
 244 467 244 467 254 456.5 c 128,-1,22
 264 446 264 446 269.5 440 c 128,-1,23
 275 434 275 434 290 423 c 128,-1,24
 305 412 305 412 311 408 c 128,-1,25
 317 404 317 404 335.5 392 c 128,-1,26
 354 380 354 380 359 377 c 0,27,28
 381 362 381 362 396 350.5 c 128,-1,29
 411 339 411 339 429 321.5 c 128,-1,30
 447 304 447 304 458 287 c 128,-1,31
 469 270 469 270 476.5 246 c 128,-1,32
 484 222 484 222 484 196 c 0,33,34
 484 131 484 131 442.5 80.5 c 128,-1,35
 401 30 401 30 336 4.5 c 128,-1,36
 271 -21 271 -21 194 -21 c 0,37,38
 158 -21 158 -21 126 -14.5 c 128,-1,39
 94 -8 94 -8 65.5 6.5 c 128,-1,40
 37 21 37 21 20.5 46.5 c 128,-1,41
 4 72 4 72 4 107 c 0,42,43
 4 153 4 153 32.5 181 c 128,-1,44
 61 209 61 209 107 209 c 0,45,46
 137 209 137 209 167 196 c 1,47,48
 152 157 152 157 152 116 c 0,49,50
 152 82 152 82 170 64 c 128,-1,51
 188 46 188 46 221 46 c 0,52,53
 264 46 264 46 295 72 c 128,-1,54
 326 98 326 98 326 139 c 0,55,56
 326 151 326 151 322.5 162 c 128,-1,57
 319 173 319 173 315 182 c 128,-1,58
 311 191 311 191 301.5 201.5 c 128,-1,59
 292 212 292 212 285.5 218.5 c 128,-1,60
 279 225 279 225 265.5 235.5 c 128,-1,61
 252 246 252 246 245 251 c 128,-1,62
 238 256 238 256 222.5 267 c 128,-1,63
 207 278 207 278 200 282 c 0,64,65
 177 298 177 298 162 309.5 c 128,-1,66
 147 321 147 321 129 339 c 128,-1,67
 111 357 111 357 100 374.5 c 128,-1,68
 89 392 89 392 81.5 416 c 128,-1,69
 74 440 74 440 74 468 c 0,70,71
 74 531 74 531 111.5 580 c 128,-1,72
 149 629 149 629 212.5 654.5 c 128,-1,73
 276 680 276 680 355 680 c 0,0,1
EndSplineSet
Validated: 8388609
Position2: "'cpsp' Capital Spacing lookup 3 subtable" dx=5 dy=0 dh=10 dv=0
EndChar

StartChar: Sacute
Encoding: 346 346 109
Width: 541
Flags: MW
HStem: -21 67<199 249 199 270> 617 63<298 347>
VStem: 4 148<93 128 93 139> 74 155<487 533> 326 158<128 171> 388 144<533 566>
LayerCount: 2
UndoRedoHistory
Layer: 0
Undoes
EndUndoes
Redoes
EndRedoes
EndUndoRedoHistory
UndoRedoHistory
Layer: 1
Undoes
EndUndoes
Redoes
EndRedoes
EndUndoRedoHistory
Fore
SplineSet
286 758 m 1,0,-1
 525 853 l 1,1,2
 550 836 550 836 550 804 c 0,3,4
 550 721 550 721 413 717 c 1,5,-1
 296 712 l 1,6,-1
 286 758 l 1,0,-1
355 680 m 0,7,8
 391 680 391 680 421 674 c 128,-1,9
 451 668 451 668 477 655 c 128,-1,10
 503 642 503 642 517.5 618 c 128,-1,11
 532 594 532 594 532 561 c 0,12,13
 532 511 532 511 500 483.5 c 128,-1,14
 468 456 468 456 426 456 c 0,15,16
 399 456 399 456 373 468 c 1,17,18
 388 504 388 504 388 544 c 0,19,20
 388 578 388 578 372 597.5 c 128,-1,21
 356 617 356 617 325 617 c 0,22,23
 285 617 285 617 257 588.5 c 128,-1,24
 229 560 229 560 229 520 c 0,25,26
 229 508 229 508 232.5 496.5 c 128,-1,27
 236 485 236 485 240 476 c 128,-1,28
 244 467 244 467 254 456.5 c 128,-1,29
 264 446 264 446 269.5 440 c 128,-1,30
 275 434 275 434 290 423 c 128,-1,31
 305 412 305 412 311 408 c 128,-1,32
 317 404 317 404 335.5 392 c 128,-1,33
 354 380 354 380 359 377 c 0,34,35
 381 362 381 362 396 350.5 c 128,-1,36
 411 339 411 339 429 321.5 c 128,-1,37
 447 304 447 304 458 287 c 128,-1,38
 469 270 469 270 476.5 246 c 128,-1,39
 484 222 484 222 484 196 c 0,40,41
 484 131 484 131 442.5 80.5 c 128,-1,42
 401 30 401 30 336 4.5 c 128,-1,43
 271 -21 271 -21 194 -21 c 0,44,45
 158 -21 158 -21 126 -14.5 c 128,-1,46
 94 -8 94 -8 65.5 6.5 c 128,-1,47
 37 21 37 21 20.5 46.5 c 128,-1,48
 4 72 4 72 4 107 c 0,49,50
 4 153 4 153 32.5 181 c 128,-1,51
 61 209 61 209 107 209 c 0,52,53
 137 209 137 209 167 196 c 1,54,55
 152 157 152 157 152 116 c 0,56,57
 152 82 152 82 170 64 c 128,-1,58
 188 46 188 46 221 46 c 0,59,60
 264 46 264 46 295 72 c 128,-1,61
 326 98 326 98 326 139 c 0,62,63
 326 151 326 151 322.5 162 c 128,-1,64
 319 173 319 173 315 182 c 128,-1,65
 311 191 311 191 301.5 201.5 c 128,-1,66
 292 212 292 212 285.5 218.5 c 128,-1,67
 279 225 279 225 265.5 235.5 c 128,-1,68
 252 246 252 246 245 251 c 128,-1,69
 238 256 238 256 222.5 267 c 128,-1,70
 207 278 207 278 200 282 c 0,71,72
 177 298 177 298 162 309.5 c 128,-1,73
 147 321 147 321 129 339 c 128,-1,74
 111 357 111 357 100 374.5 c 128,-1,75
 89 392 89 392 81.5 416 c 128,-1,76
 74 440 74 440 74 468 c 0,77,78
 74 531 74 531 111.5 580 c 128,-1,79
 149 629 149 629 212.5 654.5 c 128,-1,80
 276 680 276 680 355 680 c 0,7,8
EndSplineSet
Validated: 8388609
Substitution2: "'locl' Localized Forms in Latin lookup 13 subtable" Sacute.loclPLK
Substitution2: "'aalt' Access All Alternates lookup 0 subtable" Sacute.loclPLK
Position2: "'cpsp' Capital Spacing lookup 3 subtable" dx=5 dy=0 dh=10 dv=0
EndChar

StartChar: Scaron
Encoding: 352 352 110
Width: 541
Flags: MW
HStem: -21 67<199 249 199 270> 617 63<298 347>
VStem: 4 148<93 128 93 139> 74 155<487 533> 326 158<128 171> 388 144<533 566>
LayerCount: 2
UndoRedoHistory
Layer: 0
Undoes
EndUndoes
Redoes
EndRedoes
EndUndoRedoHistory
UndoRedoHistory
Layer: 1
Undoes
EndUndoes
Redoes
EndRedoes
EndUndoRedoHistory
Fore
SplineSet
272 846 m 1,0,-1
 383 794 l 1,1,-1
 522 846 l 1,2,-1
 551 803 l 1,3,-1
 391 692 l 1,4,-1
 355 692 l 1,5,-1
 227 804 l 1,6,-1
 272 846 l 1,0,-1
355 680 m 0,7,8
 391 680 391 680 421 674 c 128,-1,9
 451 668 451 668 477 655 c 128,-1,10
 503 642 503 642 517.5 618 c 128,-1,11
 532 594 532 594 532 561 c 0,12,13
 532 511 532 511 500 483.5 c 128,-1,14
 468 456 468 456 426 456 c 0,15,16
 399 456 399 456 373 468 c 1,17,18
 388 504 388 504 388 544 c 0,19,20
 388 578 388 578 372 597.5 c 128,-1,21
 356 617 356 617 325 617 c 0,22,23
 285 617 285 617 257 588.5 c 128,-1,24
 229 560 229 560 229 520 c 0,25,26
 229 508 229 508 232.5 496.5 c 128,-1,27
 236 485 236 485 240 476 c 128,-1,28
 244 467 244 467 254 456.5 c 128,-1,29
 264 446 264 446 269.5 440 c 128,-1,30
 275 434 275 434 290 423 c 128,-1,31
 305 412 305 412 311 408 c 128,-1,32
 317 404 317 404 335.5 392 c 128,-1,33
 354 380 354 380 359 377 c 0,34,35
 381 362 381 362 396 350.5 c 128,-1,36
 411 339 411 339 429 321.5 c 128,-1,37
 447 304 447 304 458 287 c 128,-1,38
 469 270 469 270 476.5 246 c 128,-1,39
 484 222 484 222 484 196 c 0,40,41
 484 131 484 131 442.5 80.5 c 128,-1,42
 401 30 401 30 336 4.5 c 128,-1,43
 271 -21 271 -21 194 -21 c 0,44,45
 158 -21 158 -21 126 -14.5 c 128,-1,46
 94 -8 94 -8 65.5 6.5 c 128,-1,47
 37 21 37 21 20.5 46.5 c 128,-1,48
 4 72 4 72 4 107 c 0,49,50
 4 153 4 153 32.5 181 c 128,-1,51
 61 209 61 209 107 209 c 0,52,53
 137 209 137 209 167 196 c 1,54,55
 152 157 152 157 152 116 c 0,56,57
 152 82 152 82 170 64 c 128,-1,58
 188 46 188 46 221 46 c 0,59,60
 264 46 264 46 295 72 c 128,-1,61
 326 98 326 98 326 139 c 0,62,63
 326 151 326 151 322.5 162 c 128,-1,64
 319 173 319 173 315 182 c 128,-1,65
 311 191 311 191 301.5 201.5 c 128,-1,66
 292 212 292 212 285.5 218.5 c 128,-1,67
 279 225 279 225 265.5 235.5 c 128,-1,68
 252 246 252 246 245 251 c 128,-1,69
 238 256 238 256 222.5 267 c 128,-1,70
 207 278 207 278 200 282 c 0,71,72
 177 298 177 298 162 309.5 c 128,-1,73
 147 321 147 321 129 339 c 128,-1,74
 111 357 111 357 100 374.5 c 128,-1,75
 89 392 89 392 81.5 416 c 128,-1,76
 74 440 74 440 74 468 c 0,77,78
 74 531 74 531 111.5 580 c 128,-1,79
 149 629 149 629 212.5 654.5 c 128,-1,80
 276 680 276 680 355 680 c 0,7,8
EndSplineSet
Validated: 8388609
Position2: "'cpsp' Capital Spacing lookup 3 subtable" dx=5 dy=0 dh=10 dv=0
EndChar

StartChar: Scedilla
Encoding: 350 350 111
Width: 541
Flags: MW
HStem: -256 61<187 220 187 254> -111 50<191 293> -21 67<186 249> 617 63<298 347>
VStem: 4 148<93 128 93 139> 74 155<487 533> 267 102<-167 -134> 326 158<136 171> 388 144<533 566>
LayerCount: 2
UndoRedoHistory
Layer: 0
Undoes
EndUndoes
Redoes
EndRedoes
EndUndoRedoHistory
UndoRedoHistory
Layer: 1
Undoes
EndUndoes
Redoes
EndRedoes
EndUndoRedoHistory
Fore
SplineSet
186 -21 m 1,0,1
 151 -20 151 -20 120.5 -13 c 128,-1,2
 90 -6 90 -6 63 8 c 128,-1,3
 36 22 36 22 20 47.5 c 128,-1,4
 4 73 4 73 4 107 c 0,5,6
 4 153 4 153 32.5 181 c 128,-1,7
 61 209 61 209 107 209 c 0,8,9
 137 209 137 209 167 196 c 1,10,11
 152 157 152 157 152 116 c 0,12,13
 152 82 152 82 170 64 c 128,-1,14
 188 46 188 46 221 46 c 0,15,16
 264 46 264 46 295 72 c 128,-1,17
 326 98 326 98 326 139 c 0,18,19
 326 151 326 151 322.5 162 c 128,-1,20
 319 173 319 173 315 182 c 128,-1,21
 311 191 311 191 301.5 201.5 c 128,-1,22
 292 212 292 212 285.5 218.5 c 128,-1,23
 279 225 279 225 265.5 235.5 c 128,-1,24
 252 246 252 246 245 251 c 128,-1,25
 238 256 238 256 222.5 267 c 128,-1,26
 207 278 207 278 200 282 c 0,27,28
 177 298 177 298 162 309.5 c 128,-1,29
 147 321 147 321 129 339 c 128,-1,30
 111 357 111 357 100 374.5 c 128,-1,31
 89 392 89 392 81.5 416 c 128,-1,32
 74 440 74 440 74 468 c 0,33,34
 74 531 74 531 111.5 580 c 128,-1,35
 149 629 149 629 212.5 654.5 c 128,-1,36
 276 680 276 680 355 680 c 0,37,38
 391 680 391 680 421 674 c 128,-1,39
 451 668 451 668 477 655 c 128,-1,40
 503 642 503 642 517.5 618 c 128,-1,41
 532 594 532 594 532 561 c 0,42,43
 532 511 532 511 500 483.5 c 128,-1,44
 468 456 468 456 426 456 c 0,45,46
 399 456 399 456 373 468 c 1,47,48
 388 504 388 504 388 544 c 0,49,50
 388 578 388 578 372 597.5 c 128,-1,51
 356 617 356 617 325 617 c 0,52,53
 285 617 285 617 257 588.5 c 128,-1,54
 229 560 229 560 229 520 c 0,55,56
 229 508 229 508 232.5 496.5 c 128,-1,57
 236 485 236 485 240 476 c 128,-1,58
 244 467 244 467 254 456.5 c 128,-1,59
 264 446 264 446 269.5 440 c 128,-1,60
 275 434 275 434 290 423 c 128,-1,61
 305 412 305 412 311 408 c 128,-1,62
 317 404 317 404 335.5 392 c 128,-1,63
 354 380 354 380 359 377 c 0,64,65
 381 362 381 362 396 350.5 c 128,-1,66
 411 339 411 339 429 321.5 c 128,-1,67
 447 304 447 304 458 287 c 128,-1,68
 469 270 469 270 476.5 246 c 128,-1,69
 484 222 484 222 484 196 c 0,70,71
 484 152 484 152 464.5 114 c 128,-1,72
 445 76 445 76 411.5 49 c 128,-1,73
 378 22 378 22 334.5 5 c 128,-1,74
 291 -12 291 -12 241 -18 c 1,75,-1
 228 -62 l 1,76,77
 233 -62 233 -62 246.5 -61.5 c 128,-1,78
 260 -61 260 -61 265 -61 c 0,79,80
 311 -61 311 -61 340 -80 c 128,-1,81
 369 -99 369 -99 369 -139 c 0,82,83
 369 -190 369 -190 323 -223 c 128,-1,84
 277 -256 277 -256 210 -256 c 0,85,86
 169 -256 169 -256 144.5 -242.5 c 128,-1,87
 120 -229 120 -229 120 -205 c 0,88,89
 120 -179 120 -179 137 -165 c 1,90,91
 156 -195 156 -195 204 -195 c 0,92,93
 267 -195 267 -195 267 -150 c 0,94,95
 267 -111 267 -111 198 -111 c 0,96,97
 185 -111 185 -111 159 -113 c 1,98,-1
 186 -21 l 1,0,1
EndSplineSet
Validated: 8388609
Substitution2: "'locl' Localized Forms in Latin lookup 12 subtable" Scommaaccent
Substitution2: "'locl' Localized Forms in Latin lookup 11 subtable" Scommaaccent
Substitution2: "'aalt' Access All Alternates lookup 0 subtable" Scommaaccent
Position2: "'cpsp' Capital Spacing lookup 3 subtable" dx=5 dy=0 dh=10 dv=0
EndChar

StartChar: Scircumflex
Encoding: 348 348 112
Width: 541
Flags: MW
HStem: -21 67<199 249 199 270> 617 63<298 347>
VStem: 4 148<93 128 93 139> 74 155<487 533> 326 158<128 171> 388 144<533 566>
LayerCount: 2
UndoRedoHistory
Layer: 0
Undoes
EndUndoes
Redoes
EndRedoes
EndUndoRedoHistory
UndoRedoHistory
Layer: 1
Undoes
EndUndoes
Redoes
EndRedoes
EndUndoRedoHistory
Fore
SplineSet
479 681 m 1,0,-1
 368 743 l 1,1,-1
 229 681 l 1,2,-1
 200 729 l 1,3,-1
 365 845 l 1,4,-1
 391 845 l 1,5,-1
 524 728 l 1,6,-1
 479 681 l 1,0,-1
355 680 m 0,7,8
 391 680 391 680 421 674 c 128,-1,9
 451 668 451 668 477 655 c 128,-1,10
 503 642 503 642 517.5 618 c 128,-1,11
 532 594 532 594 532 561 c 0,12,13
 532 511 532 511 500 483.5 c 128,-1,14
 468 456 468 456 426 456 c 0,15,16
 399 456 399 456 373 468 c 1,17,18
 388 504 388 504 388 544 c 0,19,20
 388 578 388 578 372 597.5 c 128,-1,21
 356 617 356 617 325 617 c 0,22,23
 285 617 285 617 257 588.5 c 128,-1,24
 229 560 229 560 229 520 c 0,25,26
 229 508 229 508 232.5 496.5 c 128,-1,27
 236 485 236 485 240 476 c 128,-1,28
 244 467 244 467 254 456.5 c 128,-1,29
 264 446 264 446 269.5 440 c 128,-1,30
 275 434 275 434 290 423 c 128,-1,31
 305 412 305 412 311 408 c 128,-1,32
 317 404 317 404 335.5 392 c 128,-1,33
 354 380 354 380 359 377 c 0,34,35
 381 362 381 362 396 350.5 c 128,-1,36
 411 339 411 339 429 321.5 c 128,-1,37
 447 304 447 304 458 287 c 128,-1,38
 469 270 469 270 476.5 246 c 128,-1,39
 484 222 484 222 484 196 c 0,40,41
 484 131 484 131 442.5 80.5 c 128,-1,42
 401 30 401 30 336 4.5 c 128,-1,43
 271 -21 271 -21 194 -21 c 0,44,45
 158 -21 158 -21 126 -14.5 c 128,-1,46
 94 -8 94 -8 65.5 6.5 c 128,-1,47
 37 21 37 21 20.5 46.5 c 128,-1,48
 4 72 4 72 4 107 c 0,49,50
 4 153 4 153 32.5 181 c 128,-1,51
 61 209 61 209 107 209 c 0,52,53
 137 209 137 209 167 196 c 1,54,55
 152 157 152 157 152 116 c 0,56,57
 152 82 152 82 170 64 c 128,-1,58
 188 46 188 46 221 46 c 0,59,60
 264 46 264 46 295 72 c 128,-1,61
 326 98 326 98 326 139 c 0,62,63
 326 151 326 151 322.5 162 c 128,-1,64
 319 173 319 173 315 182 c 128,-1,65
 311 191 311 191 301.5 201.5 c 128,-1,66
 292 212 292 212 285.5 218.5 c 128,-1,67
 279 225 279 225 265.5 235.5 c 128,-1,68
 252 246 252 246 245 251 c 128,-1,69
 238 256 238 256 222.5 267 c 128,-1,70
 207 278 207 278 200 282 c 0,71,72
 177 298 177 298 162 309.5 c 128,-1,73
 147 321 147 321 129 339 c 128,-1,74
 111 357 111 357 100 374.5 c 128,-1,75
 89 392 89 392 81.5 416 c 128,-1,76
 74 440 74 440 74 468 c 0,77,78
 74 531 74 531 111.5 580 c 128,-1,79
 149 629 149 629 212.5 654.5 c 128,-1,80
 276 680 276 680 355 680 c 0,7,8
EndSplineSet
Validated: 8388609
Position2: "'cpsp' Capital Spacing lookup 3 subtable" dx=5 dy=0 dh=10 dv=0
EndChar

StartChar: Scommaaccent
Encoding: 536 536 113
Width: 541
Flags: MW
HStem: -21 67<199 249 199 270> 617 63<298 347>
VStem: 4 148<93 128 93 139> 74 155<487 533> 164 118<-134 -100> 326 158<128 171> 388 144<533 566>
LayerCount: 2
UndoRedoHistory
Layer: 0
Undoes
EndUndoes
Redoes
EndRedoes
EndUndoRedoHistory
UndoRedoHistory
Layer: 1
Undoes
EndUndoes
Redoes
EndRedoes
EndUndoRedoHistory
Fore
SplineSet
355 680 m 0,0,1
 391 680 391 680 421 674 c 128,-1,2
 451 668 451 668 477 655 c 128,-1,3
 503 642 503 642 517.5 618 c 128,-1,4
 532 594 532 594 532 561 c 0,5,6
 532 511 532 511 500 483.5 c 128,-1,7
 468 456 468 456 426 456 c 0,8,9
 399 456 399 456 373 468 c 1,10,11
 388 504 388 504 388 544 c 0,12,13
 388 578 388 578 372 597.5 c 128,-1,14
 356 617 356 617 325 617 c 0,15,16
 285 617 285 617 257 588.5 c 128,-1,17
 229 560 229 560 229 520 c 0,18,19
 229 508 229 508 232.5 496.5 c 128,-1,20
 236 485 236 485 240 476 c 128,-1,21
 244 467 244 467 254 456.5 c 128,-1,22
 264 446 264 446 269.5 440 c 128,-1,23
 275 434 275 434 290 423 c 128,-1,24
 305 412 305 412 311 408 c 128,-1,25
 317 404 317 404 335.5 392 c 128,-1,26
 354 380 354 380 359 377 c 0,27,28
 381 362 381 362 396 350.5 c 128,-1,29
 411 339 411 339 429 321.5 c 128,-1,30
 447 304 447 304 458 287 c 128,-1,31
 469 270 469 270 476.5 246 c 128,-1,32
 484 222 484 222 484 196 c 0,33,34
 484 131 484 131 442.5 80.5 c 128,-1,35
 401 30 401 30 336 4.5 c 128,-1,36
 271 -21 271 -21 194 -21 c 0,37,38
 158 -21 158 -21 126 -14.5 c 128,-1,39
 94 -8 94 -8 65.5 6.5 c 128,-1,40
 37 21 37 21 20.5 46.5 c 128,-1,41
 4 72 4 72 4 107 c 0,42,43
 4 153 4 153 32.5 181 c 128,-1,44
 61 209 61 209 107 209 c 0,45,46
 137 209 137 209 167 196 c 1,47,48
 152 157 152 157 152 116 c 0,49,50
 152 82 152 82 170 64 c 128,-1,51
 188 46 188 46 221 46 c 0,52,53
 264 46 264 46 295 72 c 128,-1,54
 326 98 326 98 326 139 c 0,55,56
 326 151 326 151 322.5 162 c 128,-1,57
 319 173 319 173 315 182 c 128,-1,58
 311 191 311 191 301.5 201.5 c 128,-1,59
 292 212 292 212 285.5 218.5 c 128,-1,60
 279 225 279 225 265.5 235.5 c 128,-1,61
 252 246 252 246 245 251 c 128,-1,62
 238 256 238 256 222.5 267 c 128,-1,63
 207 278 207 278 200 282 c 0,64,65
 177 298 177 298 162 309.5 c 128,-1,66
 147 321 147 321 129 339 c 128,-1,67
 111 357 111 357 100 374.5 c 128,-1,68
 89 392 89 392 81.5 416 c 128,-1,69
 74 440 74 440 74 468 c 0,70,71
 74 531 74 531 111.5 580 c 128,-1,72
 149 629 149 629 212.5 654.5 c 128,-1,73
 276 680 276 680 355 680 c 0,0,1
282 -112 m 0,74,75
 282 -149 282 -149 259 -181 c 128,-1,76
 236 -213 236 -213 203 -230.5 c 128,-1,77
 170 -248 170 -248 139 -248 c 0,78,79
 116 -248 116 -248 105 -240 c 1,80,81
 135 -204 135 -204 149.5 -174.5 c 128,-1,82
 164 -145 164 -145 164 -107 c 0,83,84
 164 -84 164 -84 156 -63 c 1,85,86
 165 -58 165 -58 182 -54 c 128,-1,87
 199 -50 199 -50 213 -50 c 0,88,89
 244 -50 244 -50 263 -66.5 c 128,-1,90
 282 -83 282 -83 282 -112 c 0,74,75
EndSplineSet
Validated: 8388609
Position2: "'cpsp' Capital Spacing lookup 3 subtable" dx=5 dy=0 dh=10 dv=0
EndChar

StartChar: Sdotbelow
Encoding: 7778 7778 114
Width: 541
Flags: MW
HStem: -187 139<185 231> -21 67<199 249 199 270> 617 63<298 347>
VStem: 4 148<93 128 93 139> 74 155<487 533> 119 178<-141 -96> 326 158<128 171> 388 144<533 566>
LayerCount: 2
UndoRedoHistory
Layer: 0
Undoes
EndUndoes
Redoes
EndRedoes
EndUndoRedoHistory
UndoRedoHistory
Layer: 1
Undoes
EndUndoes
Redoes
EndRedoes
EndUndoRedoHistory
Fore
SplineSet
355 680 m 0,0,1
 391 680 391 680 421 674 c 128,-1,2
 451 668 451 668 477 655 c 128,-1,3
 503 642 503 642 517.5 618 c 128,-1,4
 532 594 532 594 532 561 c 0,5,6
 532 511 532 511 500 483.5 c 128,-1,7
 468 456 468 456 426 456 c 0,8,9
 399 456 399 456 373 468 c 1,10,11
 388 504 388 504 388 544 c 0,12,13
 388 578 388 578 372 597.5 c 128,-1,14
 356 617 356 617 325 617 c 0,15,16
 285 617 285 617 257 588.5 c 128,-1,17
 229 560 229 560 229 520 c 0,18,19
 229 508 229 508 232.5 496.5 c 128,-1,20
 236 485 236 485 240 476 c 128,-1,21
 244 467 244 467 254 456.5 c 128,-1,22
 264 446 264 446 269.5 440 c 128,-1,23
 275 434 275 434 290 423 c 128,-1,24
 305 412 305 412 311 408 c 128,-1,25
 317 404 317 404 335.5 392 c 128,-1,26
 354 380 354 380 359 377 c 0,27,28
 381 362 381 362 396 350.5 c 128,-1,29
 411 339 411 339 429 321.5 c 128,-1,30
 447 304 447 304 458 287 c 128,-1,31
 469 270 469 270 476.5 246 c 128,-1,32
 484 222 484 222 484 196 c 0,33,34
 484 131 484 131 442.5 80.5 c 128,-1,35
 401 30 401 30 336 4.5 c 128,-1,36
 271 -21 271 -21 194 -21 c 0,37,38
 158 -21 158 -21 126 -14.5 c 128,-1,39
 94 -8 94 -8 65.5 6.5 c 128,-1,40
 37 21 37 21 20.5 46.5 c 128,-1,41
 4 72 4 72 4 107 c 0,42,43
 4 153 4 153 32.5 181 c 128,-1,44
 61 209 61 209 107 209 c 0,45,46
 137 209 137 209 167 196 c 1,47,48
 152 157 152 157 152 116 c 0,49,50
 152 82 152 82 170 64 c 128,-1,51
 188 46 188 46 221 46 c 0,52,53
 264 46 264 46 295 72 c 128,-1,54
 326 98 326 98 326 139 c 0,55,56
 326 151 326 151 322.5 162 c 128,-1,57
 319 173 319 173 315 182 c 128,-1,58
 311 191 311 191 301.5 201.5 c 128,-1,59
 292 212 292 212 285.5 218.5 c 128,-1,60
 279 225 279 225 265.5 235.5 c 128,-1,61
 252 246 252 246 245 251 c 128,-1,62
 238 256 238 256 222.5 267 c 128,-1,63
 207 278 207 278 200 282 c 0,64,65
 177 298 177 298 162 309.5 c 128,-1,66
 147 321 147 321 129 339 c 128,-1,67
 111 357 111 357 100 374.5 c 128,-1,68
 89 392 89 392 81.5 416 c 128,-1,69
 74 440 74 440 74 468 c 0,70,71
 74 531 74 531 111.5 580 c 128,-1,72
 149 629 149 629 212.5 654.5 c 128,-1,73
 276 680 276 680 355 680 c 0,0,1
210 -48 m 0,74,75
 249 -48 249 -48 273 -66 c 128,-1,76
 297 -84 297 -84 297 -117 c 0,77,78
 297 -151 297 -151 271.5 -169 c 128,-1,79
 246 -187 246 -187 206 -187 c 0,80,81
 167 -187 167 -187 143 -169.5 c 128,-1,82
 119 -152 119 -152 119 -119 c 0,83,84
 119 -85 119 -85 144.5 -66.5 c 128,-1,85
 170 -48 170 -48 210 -48 c 0,74,75
EndSplineSet
Validated: 8388609
Position2: "'cpsp' Capital Spacing lookup 3 subtable" dx=5 dy=0 dh=10 dv=0
EndChar

StartChar: uni1E9E
Encoding: 7838 7838 115
Width: 734
Flags: MW
HStem: -21 67<424 470 424 496> 628 52<380 465>
VStem: 254 128<88 118 88 126> 372 156<383 408> 531 156<119 172>
LayerCount: 2
UndoRedoHistory
Layer: 0
Undoes
EndUndoes
Redoes
EndRedoes
EndUndoRedoHistory
UndoRedoHistory
Layer: 1
Undoes
EndUndoes
Redoes
EndRedoes
EndUndoRedoHistory
Fore
SplineSet
64 331 m 2,0,1
 80 411 80 411 107 471.5 c 128,-1,2
 134 532 134 532 168.5 571.5 c 128,-1,3
 203 611 203 611 248 635.5 c 128,-1,4
 293 660 293 660 341 670 c 128,-1,5
 389 680 389 680 446 680 c 0,6,7
 627 680 627 680 705 581 c 1,8,9
 658 561 658 561 619.5 537 c 128,-1,10
 581 513 581 513 554.5 482.5 c 128,-1,11
 528 452 528 452 528 424 c 0,12,13
 528 407 528 407 536.5 392.5 c 128,-1,14
 545 378 545 378 559 366 c 128,-1,15
 573 354 573 354 590 341 c 128,-1,16
 607 328 607 328 624.5 313 c 128,-1,17
 642 298 642 298 655.5 280.5 c 128,-1,18
 669 263 669 263 678 238 c 128,-1,19
 687 213 687 213 687 183 c 0,20,21
 687 121 687 121 650 73.5 c 128,-1,22
 613 26 613 26 555 2.5 c 128,-1,23
 497 -21 497 -21 428 -21 c 0,24,25
 402 -21 402 -21 378 -17.5 c 128,-1,26
 354 -14 354 -14 331 -5 c 128,-1,27
 308 4 308 4 291 17.5 c 128,-1,28
 274 31 274 31 264 51.5 c 128,-1,29
 254 72 254 72 254 98 c 0,30,31
 254 140 254 140 279 164.5 c 128,-1,32
 304 189 304 189 342 189 c 0,33,34
 370 189 370 189 395 176 c 1,35,36
 382 139 382 139 382 108 c 0,37,38
 382 78 382 78 398 62 c 128,-1,39
 414 46 414 46 445 46 c 0,40,41
 482 46 482 46 506.5 70 c 128,-1,42
 531 94 531 94 531 127 c 0,43,44
 531 145 531 145 522 161.5 c 128,-1,45
 513 178 513 178 499 191 c 128,-1,46
 485 204 485 204 468 217 c 128,-1,47
 451 230 451 230 434 245 c 128,-1,48
 417 260 417 260 403.5 276.5 c 128,-1,49
 390 293 390 293 381 316 c 128,-1,50
 372 339 372 339 372 366 c 0,51,52
 372 484 372 484 554 582 c 1,53,54
 508 628 508 628 441 628 c 0,55,56
 405 628 405 628 376 614.5 c 128,-1,57
 347 601 347 601 325.5 577.5 c 128,-1,58
 304 554 304 554 286 516.5 c 128,-1,59
 268 479 268 479 255.5 436.5 c 128,-1,60
 243 394 243 394 232 338 c 2,61,-1
 167 0 l 1,62,-1
 -1 0 l 1,63,-1
 64 331 l 2,0,1
EndSplineSet
Validated: 8388609
Position2: "'cpsp' Capital Spacing lookup 3 subtable" dx=5 dy=0 dh=10 dv=0
EndChar

StartChar: Schwa
Encoding: 399 399 116
Width: 573
Flags: MW
HStem: -26 59<191 246 191 304> 296 50<310 319 309 365> 556 124<270 315>
VStem: 10 147<87 170 87 191> 378 171<408 461>
LayerCount: 2
UndoRedoHistory
Layer: 0
Undoes
EndUndoes
Redoes
EndRedoes
EndUndoRedoHistory
UndoRedoHistory
Layer: 1
Undoes
EndUndoes
Redoes
EndRedoes
EndUndoRedoHistory
Fore
SplineSet
182 -26 m 0,0,1
 10 -26 10 -26 10 122 c 0,2,3
 10 224 10 224 90.5 283 c 128,-1,4
 171 342 171 342 309 346 c 0,5,6
 319 346 319 346 341.5 345.5 c 128,-1,7
 364 345 364 345 373 345 c 1,8,9
 378 388 378 388 378 417 c 0,10,11
 378 487 378 487 355.5 521.5 c 128,-1,12
 333 556 333 556 276 556 c 0,13,14
 228 556 228 556 185 531.5 c 128,-1,15
 142 507 142 507 118 463 c 1,16,17
 94 477 94 477 94 514 c 0,18,19
 94 559 94 559 127 597.5 c 128,-1,20
 160 636 160 636 215.5 658 c 128,-1,21
 271 680 271 680 335 680 c 0,22,23
 441 680 441 680 495 615 c 128,-1,24
 549 550 549 550 549 414 c 0,25,26
 549 347 549 347 534.5 283.5 c 128,-1,27
 520 220 520 220 489.5 164 c 128,-1,28
 459 108 459 108 417 65.5 c 128,-1,29
 375 23 375 23 314 -1.5 c 128,-1,30
 253 -26 253 -26 182 -26 c 0,0,1
210 33 m 0,31,32
 262 33 262 33 303.5 106.5 c 128,-1,33
 345 180 345 180 365 296 c 1,34,35
 309 296 309 296 262.5 275 c 128,-1,36
 216 254 216 254 186.5 211 c 128,-1,37
 157 168 157 168 157 112 c 0,38,39
 157 33 157 33 210 33 c 0,31,32
EndSplineSet
Validated: 1
Position2: "'cpsp' Capital Spacing lookup 3 subtable" dx=5 dy=0 dh=10 dv=0
EndChar

StartChar: T
Encoding: 84 84 117
Width: 428
Flags: MW
HStem: 556 104<104 406 134 181 343 403 343 343> 651 20G
VStem: 91 160<53 72 53 78>
LayerCount: 2
UndoRedoHistory
Layer: 0
Undoes
EndUndoes
Redoes
EndRedoes
EndUndoRedoHistory
UndoRedoHistory
Layer: 1
Undoes
EndUndoes
Redoes
EndRedoes
EndUndoRedoHistory
Fore
SplineSet
406 660 m 2,0,1
 466 660 466 660 495 671 c 1,2,3
 509 652 509 652 509 620 c 0,4,5
 509 600 509 600 500.5 587 c 128,-1,6
 492 574 492 574 475.5 567.5 c 128,-1,7
 459 561 459 561 442.5 558.5 c 128,-1,8
 426 556 426 556 403 556 c 2,9,-1
 343 556 l 1,10,-1
 258 127 l 1,11,12
 251 83 251 83 251 63 c 0,13,14
 251 33 251 33 264 9 c 1,15,16
 225 -20 225 -20 173 -20 c 0,17,18
 91 -20 91 -20 91 64 c 0,19,20
 91 111 91 111 108 195 c 2,21,-1
 181 556 l 1,22,-1
 116 556 l 2,23,24
 70 556 70 556 42 548 c 1,25,26
 33 568 33 568 33 591 c 0,27,28
 33 612 33 612 41 625.5 c 128,-1,29
 49 639 49 639 63.5 646.5 c 128,-1,30
 78 654 78 654 95 657 c 128,-1,31
 112 660 112 660 134 660 c 2,32,-1
 406 660 l 2,0,1
EndSplineSet
Validated: 8388609
Position2: "'cpsp' Capital Spacing lookup 3 subtable" dx=5 dy=0 dh=10 dv=0
EndChar

StartChar: Tbar
Encoding: 358 358 118
Width: 430
Flags: MW
HStem: 297 82<60 128 0 145 308 385> 556 104<104 406 134 181 343 403 343 343> 651 20G
VStem: -3 512<320 629> 91 160<53 72 53 75>
LayerCount: 2
UndoRedoHistory
Layer: 0
Undoes
EndUndoes
Redoes
EndRedoes
EndUndoRedoHistory
UndoRedoHistory
Layer: 1
Undoes
EndUndoes
Redoes
EndRedoes
EndUndoRedoHistory
Fore
SplineSet
406 660 m 2,0,1
 466 660 466 660 495 671 c 1,2,3
 509 652 509 652 509 620 c 0,4,5
 509 600 509 600 500.5 587 c 128,-1,6
 492 574 492 574 475.5 567.5 c 128,-1,7
 459 561 459 561 442.5 558.5 c 128,-1,8
 426 556 426 556 403 556 c 2,9,-1
 343 556 l 1,10,-1
 308 379 l 1,11,-1
 451 379 l 1,12,13
 455 365 455 365 455 353 c 0,14,15
 455 328 455 328 437.5 312.5 c 128,-1,16
 420 297 420 297 385 297 c 2,17,-1
 292 297 l 1,18,-1
 258 127 l 1,19,20
 251 83 251 83 251 63 c 0,21,22
 251 33 251 33 264 9 c 1,23,24
 225 -20 225 -20 173 -20 c 0,25,26
 91 -20 91 -20 91 64 c 0,27,28
 91 99 91 99 101 153 c 2,29,-1
 128 297 l 1,30,-1
 0 297 l 1,31,32
 -3 306 -3 306 -3 323 c 0,33,34
 -3 349 -3 349 14 364 c 128,-1,35
 31 379 31 379 60 379 c 2,36,-1
 145 379 l 1,37,-1
 181 556 l 1,38,-1
 116 556 l 2,39,40
 70 556 70 556 42 548 c 1,41,42
 33 568 33 568 33 591 c 0,43,44
 33 612 33 612 41 625.5 c 128,-1,45
 49 639 49 639 63.5 646.5 c 128,-1,46
 78 654 78 654 95 657 c 128,-1,47
 112 660 112 660 134 660 c 2,48,-1
 406 660 l 2,0,1
EndSplineSet
Validated: 8388609
Position2: "'cpsp' Capital Spacing lookup 3 subtable" dx=5 dy=0 dh=10 dv=0
EndChar

StartChar: Tcaron
Encoding: 356 356 119
Width: 428
Flags: MW
HStem: 556 104<104 406 134 181 343 403 343 343> 651 20G
VStem: 91 160<53 72 53 78>
LayerCount: 2
UndoRedoHistory
Layer: 0
Undoes
EndUndoes
Redoes
EndRedoes
EndUndoRedoHistory
UndoRedoHistory
Layer: 1
Undoes
EndUndoes
Redoes
EndRedoes
EndUndoRedoHistory
Fore
SplineSet
192 846 m 1,0,-1
 303 794 l 1,1,-1
 442 846 l 1,2,-1
 471 803 l 1,3,-1
 311 692 l 1,4,-1
 275 692 l 1,5,-1
 147 804 l 1,6,-1
 192 846 l 1,0,-1
406 660 m 2,7,8
 466 660 466 660 495 671 c 1,9,10
 509 652 509 652 509 620 c 0,11,12
 509 600 509 600 500.5 587 c 128,-1,13
 492 574 492 574 475.5 567.5 c 128,-1,14
 459 561 459 561 442.5 558.5 c 128,-1,15
 426 556 426 556 403 556 c 2,16,-1
 343 556 l 1,17,-1
 258 127 l 1,18,19
 251 83 251 83 251 63 c 0,20,21
 251 33 251 33 264 9 c 1,22,23
 225 -20 225 -20 173 -20 c 0,24,25
 91 -20 91 -20 91 64 c 0,26,27
 91 111 91 111 108 195 c 2,28,-1
 181 556 l 1,29,-1
 116 556 l 2,30,31
 70 556 70 556 42 548 c 1,32,33
 33 568 33 568 33 591 c 0,34,35
 33 612 33 612 41 625.5 c 128,-1,36
 49 639 49 639 63.5 646.5 c 128,-1,37
 78 654 78 654 95 657 c 128,-1,38
 112 660 112 660 134 660 c 2,39,-1
 406 660 l 2,7,8
EndSplineSet
Validated: 8388609
Position2: "'cpsp' Capital Spacing lookup 3 subtable" dx=5 dy=0 dh=10 dv=0
EndChar

StartChar: Tcedilla
Encoding: 354 354 120
Width: 428
Flags: MW
HStem: -256 61<133 166 133 201> -111 50<137 239> 556 104<104 406 134 181 343 403 343 343> 651 20G
VStem: 91 160<53 72 53 78> 213 102<-167 -134>
LayerCount: 2
UndoRedoHistory
Layer: 0
Undoes
EndUndoes
Redoes
EndRedoes
EndUndoRedoHistory
UndoRedoHistory
Layer: 1
Undoes
EndUndoes
Redoes
EndRedoes
EndUndoRedoHistory
Fore
SplineSet
406 660 m 2,0,1
 466 660 466 660 495 671 c 1,2,3
 509 652 509 652 509 620 c 0,4,5
 509 600 509 600 500.5 587 c 128,-1,6
 492 574 492 574 475.5 567.5 c 128,-1,7
 459 561 459 561 442.5 558.5 c 128,-1,8
 426 556 426 556 403 556 c 2,9,-1
 343 556 l 1,10,-1
 258 127 l 1,11,12
 251 83 251 83 251 63 c 0,13,14
 251 33 251 33 264 9 c 1,15,16
 231 -15 231 -15 187 -19 c 1,17,-1
 174 -62 l 1,18,19
 180 -62 180 -62 192.5 -61.5 c 128,-1,20
 205 -61 205 -61 211 -61 c 0,21,22
 257 -61 257 -61 286 -80 c 128,-1,23
 315 -99 315 -99 315 -139 c 0,24,25
 315 -190 315 -190 269 -223 c 128,-1,26
 223 -256 223 -256 156 -256 c 0,27,28
 115 -256 115 -256 90.5 -242.5 c 128,-1,29
 66 -229 66 -229 66 -205 c 0,30,31
 66 -179 66 -179 83 -165 c 1,32,33
 102 -195 102 -195 150 -195 c 0,34,35
 213 -195 213 -195 213 -150 c 0,36,37
 213 -111 213 -111 144 -111 c 0,38,39
 131 -111 131 -111 105 -113 c 1,40,-1
 135 -14 l 1,41,42
 91 4 91 4 91 64 c 0,43,44
 91 111 91 111 108 195 c 2,45,-1
 181 556 l 1,46,-1
 116 556 l 2,47,48
 70 556 70 556 42 548 c 1,49,50
 33 568 33 568 33 591 c 0,51,52
 33 612 33 612 41 625.5 c 128,-1,53
 49 639 49 639 63.5 646.5 c 128,-1,54
 78 654 78 654 95 657 c 128,-1,55
 112 660 112 660 134 660 c 2,56,-1
 406 660 l 2,0,1
EndSplineSet
Validated: 8388609
Substitution2: "'locl' Localized Forms in Latin lookup 12 subtable" uni021A
Substitution2: "'locl' Localized Forms in Latin lookup 11 subtable" uni021A
Substitution2: "'aalt' Access All Alternates lookup 0 subtable" uni021A
Position2: "'cpsp' Capital Spacing lookup 3 subtable" dx=5 dy=0 dh=10 dv=0
EndChar

StartChar: uni021A
Encoding: 538 538 121
Width: 428
Flags: MW
HStem: 556 104<104 406 134 181 343 403 343 343> 651 20G
VStem: 91 160<53 72 53 78> 110 118<-134 -100>
LayerCount: 2
UndoRedoHistory
Layer: 0
Undoes
EndUndoes
Redoes
EndRedoes
EndUndoRedoHistory
UndoRedoHistory
Layer: 1
Undoes
EndUndoes
Redoes
EndRedoes
EndUndoRedoHistory
Fore
SplineSet
406 660 m 2,0,1
 466 660 466 660 495 671 c 1,2,3
 509 652 509 652 509 620 c 0,4,5
 509 600 509 600 500.5 587 c 128,-1,6
 492 574 492 574 475.5 567.5 c 128,-1,7
 459 561 459 561 442.5 558.5 c 128,-1,8
 426 556 426 556 403 556 c 2,9,-1
 343 556 l 1,10,-1
 258 127 l 1,11,12
 251 83 251 83 251 63 c 0,13,14
 251 33 251 33 264 9 c 1,15,16
 225 -20 225 -20 173 -20 c 0,17,18
 91 -20 91 -20 91 64 c 0,19,20
 91 111 91 111 108 195 c 2,21,-1
 181 556 l 1,22,-1
 116 556 l 2,23,24
 70 556 70 556 42 548 c 1,25,26
 33 568 33 568 33 591 c 0,27,28
 33 612 33 612 41 625.5 c 128,-1,29
 49 639 49 639 63.5 646.5 c 128,-1,30
 78 654 78 654 95 657 c 128,-1,31
 112 660 112 660 134 660 c 2,32,-1
 406 660 l 2,0,1
228 -112 m 0,33,34
 228 -149 228 -149 205 -181 c 128,-1,35
 182 -213 182 -213 149 -230.5 c 128,-1,36
 116 -248 116 -248 85 -248 c 0,37,38
 62 -248 62 -248 51 -240 c 1,39,40
 81 -204 81 -204 95.5 -174.5 c 128,-1,41
 110 -145 110 -145 110 -107 c 0,42,43
 110 -83 110 -83 102 -63 c 1,44,45
 111 -58 111 -58 128 -54 c 128,-1,46
 145 -50 145 -50 159 -50 c 0,47,48
 190 -50 190 -50 209 -66.5 c 128,-1,49
 228 -83 228 -83 228 -112 c 0,33,34
EndSplineSet
Validated: 8388609
Position2: "'cpsp' Capital Spacing lookup 3 subtable" dx=5 dy=0 dh=10 dv=0
EndChar

StartChar: Tdotbelow
Encoding: 7788 7788 122
Width: 428
Flags: MW
HStem: -187 139<130 178> 556 104<104 406 134 181 343 403 343 343> 651 20G
VStem: 65 178<-141 -96> 91 160<53 72 53 78>
LayerCount: 2
UndoRedoHistory
Layer: 0
Undoes
EndUndoes
Redoes
EndRedoes
EndUndoRedoHistory
UndoRedoHistory
Layer: 1
Undoes
EndUndoes
Redoes
EndRedoes
EndUndoRedoHistory
Fore
SplineSet
406 660 m 2,0,1
 466 660 466 660 495 671 c 1,2,3
 509 652 509 652 509 620 c 0,4,5
 509 600 509 600 500.5 587 c 128,-1,6
 492 574 492 574 475.5 567.5 c 128,-1,7
 459 561 459 561 442.5 558.5 c 128,-1,8
 426 556 426 556 403 556 c 2,9,-1
 343 556 l 1,10,-1
 258 127 l 1,11,12
 251 83 251 83 251 63 c 0,13,14
 251 33 251 33 264 9 c 1,15,16
 225 -20 225 -20 173 -20 c 0,17,18
 91 -20 91 -20 91 64 c 0,19,20
 91 111 91 111 108 195 c 2,21,-1
 181 556 l 1,22,-1
 116 556 l 2,23,24
 70 556 70 556 42 548 c 1,25,26
 33 568 33 568 33 591 c 0,27,28
 33 612 33 612 41 625.5 c 128,-1,29
 49 639 49 639 63.5 646.5 c 128,-1,30
 78 654 78 654 95 657 c 128,-1,31
 112 660 112 660 134 660 c 2,32,-1
 406 660 l 2,0,1
156 -48 m 0,33,34
 195 -48 195 -48 219 -66 c 128,-1,35
 243 -84 243 -84 243 -117 c 0,36,37
 243 -151 243 -151 217.5 -169 c 128,-1,38
 192 -187 192 -187 152 -187 c 0,39,40
 113 -187 113 -187 89 -169.5 c 128,-1,41
 65 -152 65 -152 65 -119 c 0,42,43
 65 -85 65 -85 90.5 -66.5 c 128,-1,44
 116 -48 116 -48 156 -48 c 0,33,34
EndSplineSet
Validated: 8388609
Position2: "'cpsp' Capital Spacing lookup 3 subtable" dx=5 dy=0 dh=10 dv=0
EndChar

StartChar: U
Encoding: 85 85 123
Width: 607
Flags: MW
HStem: -20 84<254 323 254 331> 640 20G<126 295 295 295 485 613 613 613>
VStem: 34 170<118 156>
LayerCount: 2
UndoRedoHistory
Layer: 0
Undoes
EndUndoes
Redoes
EndRedoes
EndUndoRedoHistory
UndoRedoHistory
Layer: 1
Undoes
EndUndoes
Redoes
EndRedoes
EndUndoRedoHistory
Fore
SplineSet
537 263 m 2,0,1
 509 118 509 118 440.5 49 c 128,-1,2
 372 -20 372 -20 244 -20 c 0,3,4
 147 -20 147 -20 90.5 20 c 128,-1,5
 34 60 34 60 34 140 c 0,6,7
 34 184 34 184 48 255 c 2,8,-1
 126 660 l 1,9,-1
 295 660 l 1,10,-1
 217 243 l 1,11,12
 204 181 204 181 204 143 c 0,13,14
 204 105 204 105 223 84.5 c 128,-1,15
 242 64 242 64 279 64 c 0,16,17
 304 64 304 64 324.5 74 c 128,-1,18
 345 84 345 84 358 100.5 c 128,-1,19
 371 117 371 117 381.5 143 c 128,-1,20
 392 169 392 169 398.5 193.5 c 128,-1,21
 405 218 405 218 411 253 c 2,22,-1
 485 660 l 1,23,-1
 613 660 l 1,24,-1
 537 263 l 2,0,1
EndSplineSet
Validated: 1
Position2: "'cpsp' Capital Spacing lookup 3 subtable" dx=5 dy=0 dh=10 dv=0
EndChar

StartChar: Uacute
Encoding: 218 218 124
Width: 607
Flags: MW
HStem: -20 84<254 323 254 331> 640 20G<126 295 295 295 485 613 613 613>
VStem: 34 170<118 156>
LayerCount: 2
UndoRedoHistory
Layer: 0
Undoes
EndUndoes
Redoes
EndRedoes
EndUndoRedoHistory
UndoRedoHistory
Layer: 1
Undoes
EndUndoes
Redoes
EndRedoes
EndUndoRedoHistory
Fore
SplineSet
322 758 m 1,0,-1
 561 853 l 1,1,2
 586 836 586 836 586 804 c 0,3,4
 586 721 586 721 449 717 c 1,5,-1
 332 712 l 1,6,-1
 322 758 l 1,0,-1
537 263 m 2,7,8
 509 118 509 118 440.5 49 c 128,-1,9
 372 -20 372 -20 244 -20 c 0,10,11
 147 -20 147 -20 90.5 20 c 128,-1,12
 34 60 34 60 34 140 c 0,13,14
 34 184 34 184 48 255 c 2,15,-1
 126 660 l 1,16,-1
 295 660 l 1,17,-1
 217 243 l 1,18,19
 204 181 204 181 204 143 c 0,20,21
 204 105 204 105 223 84.5 c 128,-1,22
 242 64 242 64 279 64 c 0,23,24
 304 64 304 64 324.5 74 c 128,-1,25
 345 84 345 84 358 100.5 c 128,-1,26
 371 117 371 117 381.5 143 c 128,-1,27
 392 169 392 169 398.5 193.5 c 128,-1,28
 405 218 405 218 411 253 c 2,29,-1
 485 660 l 1,30,-1
 613 660 l 1,31,-1
 537 263 l 2,7,8
EndSplineSet
Validated: 1
Position2: "'cpsp' Capital Spacing lookup 3 subtable" dx=5 dy=0 dh=10 dv=0
EndChar

StartChar: Ubreve
Encoding: 364 364 125
Width: 607
Flags: MW
HStem: -20 84<254 323 254 331> 640 20G<126 295 295 295 485 613 613 613> 700 49<398 438 398 463>
VStem: 34 170<118 156> 255 117<788 805 788 811>
LayerCount: 2
UndoRedoHistory
Layer: 0
Undoes
EndUndoes
Redoes
EndRedoes
EndUndoRedoHistory
UndoRedoHistory
Layer: 1
Undoes
EndUndoes
Redoes
EndRedoes
EndUndoRedoHistory
Fore
SplineSet
376 833 m 1,0,1
 372 814 372 814 372 800 c 0,2,3
 372 779 372 779 382 764 c 128,-1,4
 392 749 392 749 415 749 c 0,5,6
 447 749 447 749 466 774 c 128,-1,7
 485 799 485 799 492 833 c 1,8,-1
 604 833 l 1,9,10
 591 772 591 772 540.5 736 c 128,-1,11
 490 700 490 700 405 700 c 0,12,13
 332 700 332 700 293.5 729 c 128,-1,14
 255 758 255 758 255 806 c 0,15,16
 255 818 255 818 258 833 c 1,17,-1
 376 833 l 1,0,1
537 263 m 2,18,19
 509 118 509 118 440.5 49 c 128,-1,20
 372 -20 372 -20 244 -20 c 0,21,22
 147 -20 147 -20 90.5 20 c 128,-1,23
 34 60 34 60 34 140 c 0,24,25
 34 184 34 184 48 255 c 2,26,-1
 126 660 l 1,27,-1
 295 660 l 1,28,-1
 217 243 l 1,29,30
 204 181 204 181 204 143 c 0,31,32
 204 105 204 105 223 84.5 c 128,-1,33
 242 64 242 64 279 64 c 0,34,35
 304 64 304 64 324.5 74 c 128,-1,36
 345 84 345 84 358 100.5 c 128,-1,37
 371 117 371 117 381.5 143 c 128,-1,38
 392 169 392 169 398.5 193.5 c 128,-1,39
 405 218 405 218 411 253 c 2,40,-1
 485 660 l 1,41,-1
 613 660 l 1,42,-1
 537 263 l 2,18,19
EndSplineSet
Validated: 1
Position2: "'cpsp' Capital Spacing lookup 3 subtable" dx=5 dy=0 dh=10 dv=0
EndChar

StartChar: Ucircumflex
Encoding: 219 219 126
Width: 607
Flags: MW
HStem: -20 84<254 323 254 331> 640 20G<126 295 295 295 485 613 613 613>
VStem: 34 170<118 156>
LayerCount: 2
UndoRedoHistory
Layer: 0
Undoes
EndUndoes
Redoes
EndRedoes
EndUndoRedoHistory
UndoRedoHistory
Layer: 1
Undoes
EndUndoes
Redoes
EndRedoes
EndUndoRedoHistory
Fore
SplineSet
515 681 m 1,0,-1
 404 743 l 1,1,-1
 265 681 l 1,2,-1
 236 729 l 1,3,-1
 401 845 l 1,4,-1
 427 845 l 1,5,-1
 560 728 l 1,6,-1
 515 681 l 1,0,-1
537 263 m 2,7,8
 509 118 509 118 440.5 49 c 128,-1,9
 372 -20 372 -20 244 -20 c 0,10,11
 147 -20 147 -20 90.5 20 c 128,-1,12
 34 60 34 60 34 140 c 0,13,14
 34 184 34 184 48 255 c 2,15,-1
 126 660 l 1,16,-1
 295 660 l 1,17,-1
 217 243 l 1,18,19
 204 181 204 181 204 143 c 0,20,21
 204 105 204 105 223 84.5 c 128,-1,22
 242 64 242 64 279 64 c 0,23,24
 304 64 304 64 324.5 74 c 128,-1,25
 345 84 345 84 358 100.5 c 128,-1,26
 371 117 371 117 381.5 143 c 128,-1,27
 392 169 392 169 398.5 193.5 c 128,-1,28
 405 218 405 218 411 253 c 2,29,-1
 485 660 l 1,30,-1
 613 660 l 1,31,-1
 537 263 l 2,7,8
EndSplineSet
Validated: 1
Position2: "'cpsp' Capital Spacing lookup 3 subtable" dx=5 dy=0 dh=10 dv=0
EndChar

StartChar: Udieresis
Encoding: 220 220 127
Width: 607
Flags: MW
HStem: -20 84<254 323 254 331> 640 20G<126 295 295 295 485 613 613 613> 709 139<277 325 500 546>
VStem: 34 170<118 156> 212 177<755 800> 434 177<755 800>
LayerCount: 2
UndoRedoHistory
Layer: 0
Undoes
EndUndoes
Redoes
EndRedoes
EndUndoRedoHistory
UndoRedoHistory
Layer: 1
Undoes
EndUndoes
Redoes
EndRedoes
EndUndoRedoHistory
Fore
SplineSet
303 848 m 0,0,1
 342 848 342 848 365.5 830 c 128,-1,2
 389 812 389 812 389 779 c 0,3,4
 389 745 389 745 364 727 c 128,-1,5
 339 709 339 709 299 709 c 0,6,7
 260 709 260 709 236 726.5 c 128,-1,8
 212 744 212 744 212 777 c 0,9,10
 212 811 212 811 237.5 829.5 c 128,-1,11
 263 848 263 848 303 848 c 0,0,1
525 848 m 0,12,13
 564 848 564 848 587.5 830 c 128,-1,14
 611 812 611 812 611 779 c 0,15,16
 611 745 611 745 586 727 c 128,-1,17
 561 709 561 709 521 709 c 0,18,19
 482 709 482 709 458 726.5 c 128,-1,20
 434 744 434 744 434 777 c 0,21,22
 434 811 434 811 459.5 829.5 c 128,-1,23
 485 848 485 848 525 848 c 0,12,13
537 263 m 2,24,25
 509 118 509 118 440.5 49 c 128,-1,26
 372 -20 372 -20 244 -20 c 0,27,28
 147 -20 147 -20 90.5 20 c 128,-1,29
 34 60 34 60 34 140 c 0,30,31
 34 184 34 184 48 255 c 2,32,-1
 126 660 l 1,33,-1
 295 660 l 1,34,-1
 217 243 l 1,35,36
 204 181 204 181 204 143 c 0,37,38
 204 105 204 105 223 84.5 c 128,-1,39
 242 64 242 64 279 64 c 0,40,41
 304 64 304 64 324.5 74 c 128,-1,42
 345 84 345 84 358 100.5 c 128,-1,43
 371 117 371 117 381.5 143 c 128,-1,44
 392 169 392 169 398.5 193.5 c 128,-1,45
 405 218 405 218 411 253 c 2,46,-1
 485 660 l 1,47,-1
 613 660 l 1,48,-1
 537 263 l 2,24,25
EndSplineSet
Validated: 1
Position2: "'cpsp' Capital Spacing lookup 3 subtable" dx=5 dy=0 dh=10 dv=0
EndChar

StartChar: Udotbelow
Encoding: 7908 7908 128
Width: 607
Flags: MW
HStem: -187 139<203 250> -20 84<254 323 254 331> 640 20G<126 295 295 295 485 613 613 613>
VStem: 34 170<118 156> 137 178<-141 -96>
LayerCount: 2
UndoRedoHistory
Layer: 0
Undoes
EndUndoes
Redoes
EndRedoes
EndUndoRedoHistory
UndoRedoHistory
Layer: 1
Undoes
EndUndoes
Redoes
EndRedoes
EndUndoRedoHistory
Fore
SplineSet
537 263 m 2,0,1
 509 118 509 118 440.5 49 c 128,-1,2
 372 -20 372 -20 244 -20 c 0,3,4
 147 -20 147 -20 90.5 20 c 128,-1,5
 34 60 34 60 34 140 c 0,6,7
 34 184 34 184 48 255 c 2,8,-1
 126 660 l 1,9,-1
 295 660 l 1,10,-1
 217 243 l 1,11,12
 204 181 204 181 204 143 c 0,13,14
 204 105 204 105 223 84.5 c 128,-1,15
 242 64 242 64 279 64 c 0,16,17
 304 64 304 64 324.5 74 c 128,-1,18
 345 84 345 84 358 100.5 c 128,-1,19
 371 117 371 117 381.5 143 c 128,-1,20
 392 169 392 169 398.5 193.5 c 128,-1,21
 405 218 405 218 411 253 c 2,22,-1
 485 660 l 1,23,-1
 613 660 l 1,24,-1
 537 263 l 2,0,1
228 -48 m 0,25,26
 267 -48 267 -48 291 -66 c 128,-1,27
 315 -84 315 -84 315 -117 c 0,28,29
 315 -151 315 -151 289.5 -169 c 128,-1,30
 264 -187 264 -187 224 -187 c 0,31,32
 185 -187 185 -187 161 -169.5 c 128,-1,33
 137 -152 137 -152 137 -119 c 0,34,35
 137 -85 137 -85 162.5 -66.5 c 128,-1,36
 188 -48 188 -48 228 -48 c 0,25,26
EndSplineSet
Validated: 8388609
Position2: "'cpsp' Capital Spacing lookup 3 subtable" dx=5 dy=0 dh=10 dv=0
EndChar

StartChar: Ugrave
Encoding: 217 217 129
Width: 607
Flags: MW
HStem: -20 84<254 323 254 331> 640 20G<126 295 295 295 485 613 613 613>
VStem: 34 170<118 156>
LayerCount: 2
UndoRedoHistory
Layer: 0
Undoes
EndUndoes
Redoes
EndRedoes
EndUndoRedoHistory
UndoRedoHistory
Layer: 1
Undoes
EndUndoes
Redoes
EndRedoes
EndUndoRedoHistory
Fore
SplineSet
494 712 m 1,0,-1
 377 717 l 2,1,2
 239 723 239 723 239 804 c 0,3,4
 239 835 239 835 264 854 c 1,5,-1
 504 758 l 1,6,-1
 494 712 l 1,0,-1
537 263 m 2,7,8
 509 118 509 118 440.5 49 c 128,-1,9
 372 -20 372 -20 244 -20 c 0,10,11
 147 -20 147 -20 90.5 20 c 128,-1,12
 34 60 34 60 34 140 c 0,13,14
 34 184 34 184 48 255 c 2,15,-1
 126 660 l 1,16,-1
 295 660 l 1,17,-1
 217 243 l 1,18,19
 204 181 204 181 204 143 c 0,20,21
 204 105 204 105 223 84.5 c 128,-1,22
 242 64 242 64 279 64 c 0,23,24
 304 64 304 64 324.5 74 c 128,-1,25
 345 84 345 84 358 100.5 c 128,-1,26
 371 117 371 117 381.5 143 c 128,-1,27
 392 169 392 169 398.5 193.5 c 128,-1,28
 405 218 405 218 411 253 c 2,29,-1
 485 660 l 1,30,-1
 613 660 l 1,31,-1
 537 263 l 2,7,8
EndSplineSet
Validated: 1
Position2: "'cpsp' Capital Spacing lookup 3 subtable" dx=5 dy=0 dh=10 dv=0
EndChar

StartChar: Uhungarumlaut
Encoding: 368 368 130
Width: 607
Flags: MW
HStem: -20 84<254 323 254 331> 640 20G<126 295 295 295 485 613 613 613>
VStem: 34 170<118 156>
LayerCount: 2
UndoRedoHistory
Layer: 0
Undoes
EndUndoes
Redoes
EndRedoes
EndUndoRedoHistory
UndoRedoHistory
Layer: 1
Undoes
EndUndoes
Redoes
EndRedoes
EndUndoRedoHistory
Fore
SplineSet
424 852 m 1,0,1
 457 833 457 833 457 800 c 0,2,3
 457 767 457 767 434.5 749.5 c 128,-1,4
 412 732 412 732 359 720 c 2,5,-1
 277 702 l 1,6,-1
 252 736 l 1,7,-1
 424 852 l 1,0,1
625 852 m 1,8,9
 658 833 658 833 658 801 c 0,10,11
 658 768 658 768 635.5 750 c 128,-1,12
 613 732 613 732 561 720 c 2,13,-1
 478 702 l 1,14,-1
 453 736 l 1,15,-1
 625 852 l 1,8,9
537 263 m 2,16,17
 509 118 509 118 440.5 49 c 128,-1,18
 372 -20 372 -20 244 -20 c 0,19,20
 147 -20 147 -20 90.5 20 c 128,-1,21
 34 60 34 60 34 140 c 0,22,23
 34 184 34 184 48 255 c 2,24,-1
 126 660 l 1,25,-1
 295 660 l 1,26,-1
 217 243 l 1,27,28
 204 181 204 181 204 143 c 0,29,30
 204 105 204 105 223 84.5 c 128,-1,31
 242 64 242 64 279 64 c 0,32,33
 304 64 304 64 324.5 74 c 128,-1,34
 345 84 345 84 358 100.5 c 128,-1,35
 371 117 371 117 381.5 143 c 128,-1,36
 392 169 392 169 398.5 193.5 c 128,-1,37
 405 218 405 218 411 253 c 2,38,-1
 485 660 l 1,39,-1
 613 660 l 1,40,-1
 537 263 l 2,16,17
EndSplineSet
Validated: 1
Position2: "'cpsp' Capital Spacing lookup 3 subtable" dx=5 dy=0 dh=10 dv=0
EndChar

StartChar: Umacron
Encoding: 362 362 131
Width: 607
Flags: MW
HStem: -20 84<254 323 254 331> 640 20G<126 295 295 295 485 613 613 613> 737 87<324 485 262 553>
VStem: 34 170<118 156>
LayerCount: 2
UndoRedoHistory
Layer: 0
Undoes
EndUndoes
Redoes
EndRedoes
EndUndoRedoHistory
UndoRedoHistory
Layer: 1
Undoes
EndUndoes
Redoes
EndRedoes
EndUndoRedoHistory
Fore
SplineSet
553 824 m 1,0,1
 557 810 557 810 557 798 c 0,2,3
 557 771 557 771 538.5 754 c 128,-1,4
 520 737 520 737 485 737 c 2,5,-1
 262 737 l 1,6,7
 260 748 260 748 260 763 c 0,8,9
 260 791 260 791 278 807.5 c 128,-1,10
 296 824 296 824 324 824 c 2,11,-1
 553 824 l 1,0,1
537 263 m 2,12,13
 509 118 509 118 440.5 49 c 128,-1,14
 372 -20 372 -20 244 -20 c 0,15,16
 147 -20 147 -20 90.5 20 c 128,-1,17
 34 60 34 60 34 140 c 0,18,19
 34 184 34 184 48 255 c 2,20,-1
 126 660 l 1,21,-1
 295 660 l 1,22,-1
 217 243 l 1,23,24
 204 181 204 181 204 143 c 0,25,26
 204 105 204 105 223 84.5 c 128,-1,27
 242 64 242 64 279 64 c 0,28,29
 304 64 304 64 324.5 74 c 128,-1,30
 345 84 345 84 358 100.5 c 128,-1,31
 371 117 371 117 381.5 143 c 128,-1,32
 392 169 392 169 398.5 193.5 c 128,-1,33
 405 218 405 218 411 253 c 2,34,-1
 485 660 l 1,35,-1
 613 660 l 1,36,-1
 537 263 l 2,12,13
EndSplineSet
Validated: 1
Position2: "'cpsp' Capital Spacing lookup 3 subtable" dx=5 dy=0 dh=10 dv=0
EndChar

StartChar: Uogonek
Encoding: 370 370 132
Width: 607
Flags: MW
HStem: -258 73<328 354> -20 84<182 323> 640 20G<126 295 295 295 485 613 613 613>
VStem: 34 170<118 156> 201 92<-149 -121>
LayerCount: 2
UndoRedoHistory
Layer: 0
Undoes
EndUndoes
Redoes
EndRedoes
EndUndoRedoHistory
UndoRedoHistory
Layer: 1
Undoes
EndUndoes
Redoes
EndRedoes
EndUndoRedoHistory
Fore
SplineSet
613 660 m 1,0,-1
 537 263 l 2,1,2
 518 166 518 166 482 103.5 c 128,-1,3
 446 41 446 41 387 10 c 1,4,5
 345 -16 345 -16 319 -53.5 c 128,-1,6
 293 -91 293 -91 293 -130 c 0,7,8
 293 -159 293 -159 305.5 -172 c 128,-1,9
 318 -185 318 -185 346 -185 c 0,10,11
 383 -185 383 -185 403 -160 c 1,12,13
 420 -177 420 -177 420 -198 c 0,14,15
 420 -224 420 -224 394 -241 c 128,-1,16
 368 -258 368 -258 324 -258 c 0,17,18
 267 -258 267 -258 234 -229.5 c 128,-1,19
 201 -201 201 -201 201 -148 c 0,20,21
 201 -72 201 -72 269 -19 c 1,22,-1
 244 -20 l 1,23,24
 147 -20 147 -20 90.5 20 c 128,-1,25
 34 60 34 60 34 140 c 0,26,27
 34 184 34 184 48 255 c 2,28,-1
 126 660 l 1,29,-1
 295 660 l 1,30,-1
 217 243 l 1,31,32
 204 181 204 181 204 143 c 0,33,34
 204 105 204 105 223 84.5 c 128,-1,35
 242 64 242 64 279 64 c 0,36,37
 304 64 304 64 324.5 74 c 128,-1,38
 345 84 345 84 358 100.5 c 128,-1,39
 371 117 371 117 381.5 143 c 128,-1,40
 392 169 392 169 398.5 193.5 c 128,-1,41
 405 218 405 218 411 253 c 2,42,-1
 485 660 l 1,43,-1
 613 660 l 1,0,-1
EndSplineSet
Validated: 8388609
Position2: "'cpsp' Capital Spacing lookup 3 subtable" dx=5 dy=0 dh=10 dv=0
EndChar

StartChar: Uring
Encoding: 366 366 133
Width: 607
Flags: MW
HStem: -20 84<254 323 254 331> 640 20G<126 295 295 295 485 613 613 613> 690 34<396 422 396 432> 818 37<410 437>
VStem: 34 170<118 156> 311 63<748 775 748 789> 460 64<767 794>
LayerCount: 2
UndoRedoHistory
Layer: 0
Undoes
EndUndoes
Redoes
EndRedoes
EndUndoRedoHistory
UndoRedoHistory
Layer: 1
Undoes
EndUndoes
Redoes
EndRedoes
EndUndoRedoHistory
Fore
SplineSet
524 786 m 0,0,1
 524 743 524 743 487 716.5 c 128,-1,2
 450 690 450 690 401 690 c 0,3,4
 359 690 359 690 335 708 c 128,-1,5
 311 726 311 726 311 759 c 0,6,7
 311 802 311 802 348.5 828.5 c 128,-1,8
 386 855 386 855 435 855 c 0,9,10
 476 855 476 855 500 837 c 128,-1,11
 524 819 524 819 524 786 c 0,0,1
460 783 m 0,12,13
 460 818 460 818 425 818 c 0,14,15
 403 818 403 818 388.5 801 c 128,-1,16
 374 784 374 784 374 758 c 0,17,18
 374 724 374 724 408 724 c 0,19,20
 429 724 429 724 444.5 741 c 128,-1,21
 460 758 460 758 460 783 c 0,12,13
537 263 m 2,22,23
 509 118 509 118 440.5 49 c 128,-1,24
 372 -20 372 -20 244 -20 c 0,25,26
 147 -20 147 -20 90.5 20 c 128,-1,27
 34 60 34 60 34 140 c 0,28,29
 34 184 34 184 48 255 c 2,30,-1
 126 660 l 1,31,-1
 295 660 l 1,32,-1
 217 243 l 1,33,34
 204 181 204 181 204 143 c 0,35,36
 204 105 204 105 223 84.5 c 128,-1,37
 242 64 242 64 279 64 c 0,38,39
 304 64 304 64 324.5 74 c 128,-1,40
 345 84 345 84 358 100.5 c 128,-1,41
 371 117 371 117 381.5 143 c 128,-1,42
 392 169 392 169 398.5 193.5 c 128,-1,43
 405 218 405 218 411 253 c 2,44,-1
 485 660 l 1,45,-1
 613 660 l 1,46,-1
 537 263 l 2,22,23
EndSplineSet
Validated: 1
Position2: "'cpsp' Capital Spacing lookup 3 subtable" dx=5 dy=0 dh=10 dv=0
EndChar

StartChar: Utilde
Encoding: 360 360 134
Width: 607
Flags: MW
HStem: -20 84<254 323 254 331> 640 20G<126 295 295 295 485 613 613 613> 724 96<494 528 494 528> 741 96<304 337>
VStem: 34 170<118 156>
LayerCount: 2
UndoRedoHistory
Layer: 0
Undoes
EndUndoes
Redoes
EndRedoes
EndUndoRedoHistory
UndoRedoHistory
Layer: 1
Undoes
EndUndoes
Redoes
EndRedoes
EndUndoRedoHistory
Fore
SplineSet
571 837 m 1,0,1
 589 815 589 815 589 791 c 0,2,3
 589 759 589 759 565.5 741.5 c 128,-1,4
 542 724 542 724 502 724 c 0,5,6
 480 724 480 724 408 732.5 c 128,-1,7
 336 741 336 741 317 741 c 0,8,9
 279 741 279 741 256 725 c 1,10,11
 237 750 237 750 237 776 c 0,12,13
 237 805 237 805 260.5 821 c 128,-1,14
 284 837 284 837 327 837 c 0,15,16
 352 837 352 837 423 828.5 c 128,-1,17
 494 820 494 820 516 820 c 0,18,19
 557 820 557 820 571 837 c 1,0,1
537 263 m 2,20,21
 509 118 509 118 440.5 49 c 128,-1,22
 372 -20 372 -20 244 -20 c 0,23,24
 147 -20 147 -20 90.5 20 c 128,-1,25
 34 60 34 60 34 140 c 0,26,27
 34 184 34 184 48 255 c 2,28,-1
 126 660 l 1,29,-1
 295 660 l 1,30,-1
 217 243 l 1,31,32
 204 181 204 181 204 143 c 0,33,34
 204 105 204 105 223 84.5 c 128,-1,35
 242 64 242 64 279 64 c 0,36,37
 304 64 304 64 324.5 74 c 128,-1,38
 345 84 345 84 358 100.5 c 128,-1,39
 371 117 371 117 381.5 143 c 128,-1,40
 392 169 392 169 398.5 193.5 c 128,-1,41
 405 218 405 218 411 253 c 2,42,-1
 485 660 l 1,43,-1
 613 660 l 1,44,-1
 537 263 l 2,20,21
EndSplineSet
Validated: 8388609
Position2: "'cpsp' Capital Spacing lookup 3 subtable" dx=5 dy=0 dh=10 dv=0
EndChar

StartChar: V
Encoding: 86 86 135
Width: 514
Flags: MW
HStem: 0 102<242 242 242 292> 640 20G<480 599 599 599> 660 20G
VStem: 20 579
LayerCount: 2
UndoRedoHistory
Layer: 0
Undoes
EndUndoes
Redoes
EndRedoes
EndUndoRedoHistory
UndoRedoHistory
Layer: 1
Undoes
EndUndoes
Redoes
EndRedoes
EndUndoRedoHistory
Fore
SplineSet
66 509 m 2,0,1
 60 595 60 595 20 625 c 1,2,3
 31 652 31 652 56 666 c 128,-1,4
 81 680 81 680 115 680 c 0,5,6
 148 680 148 680 170 668 c 128,-1,7
 192 656 192 656 204 633 c 128,-1,8
 216 610 216 610 221 583 c 128,-1,9
 226 556 226 556 227 518 c 2,10,-1
 242 102 l 1,11,-1
 480 660 l 1,12,-1
 599 660 l 1,13,-1
 292 0 l 1,14,-1
 97 0 l 1,15,-1
 66 509 l 2,0,1
EndSplineSet
Validated: 8388609
Position2: "'cpsp' Capital Spacing lookup 3 subtable" dx=5 dy=0 dh=10 dv=0
EndChar

StartChar: W
Encoding: 87 87 136
Width: 854
Flags: MW
HStem: 0 102<242 242 242 292> 640 20G<463 562 562 562 821 940 940 940> 660 20G
VStem: 20 920
LayerCount: 2
UndoRedoHistory
Layer: 0
Undoes
EndUndoes
Redoes
EndRedoes
EndUndoRedoHistory
UndoRedoHistory
Layer: 1
Undoes
EndUndoes
Redoes
EndRedoes
EndUndoRedoHistory
Fore
SplineSet
66 509 m 2,0,1
 60 595 60 595 20 625 c 1,2,3
 31 652 31 652 56 666 c 128,-1,4
 81 680 81 680 115 680 c 0,5,6
 148 680 148 680 170 668 c 128,-1,7
 192 656 192 656 204 633 c 128,-1,8
 216 610 216 610 221 583 c 128,-1,9
 226 556 226 556 227 518 c 2,10,-1
 242 102 l 1,11,-1
 463 660 l 1,12,-1
 562 660 l 1,13,-1
 595 102 l 1,14,-1
 821 660 l 1,15,-1
 940 660 l 1,16,-1
 645 0 l 1,17,-1
 460 0 l 1,18,-1
 442 365 l 1,19,-1
 292 0 l 1,20,-1
 97 0 l 1,21,-1
 66 509 l 2,0,1
EndSplineSet
Validated: 8388609
Position2: "'cpsp' Capital Spacing lookup 3 subtable" dx=5 dy=0 dh=10 dv=0
EndChar

StartChar: Wacute
Encoding: 7810 7810 137
Width: 854
Flags: MW
HStem: 0 102<242 242 242 292> 640 20G<463 562 562 562 821 940 940 940> 660 20G
VStem: 20 920
LayerCount: 2
UndoRedoHistory
Layer: 0
Undoes
EndUndoes
Redoes
EndRedoes
EndUndoRedoHistory
UndoRedoHistory
Layer: 1
Undoes
EndUndoes
Redoes
EndRedoes
EndUndoRedoHistory
Fore
SplineSet
449 758 m 1,0,-1
 688 853 l 1,1,2
 713 836 713 836 713 804 c 0,3,4
 713 721 713 721 576 717 c 1,5,-1
 459 712 l 1,6,-1
 449 758 l 1,0,-1
66 509 m 2,7,8
 60 595 60 595 20 625 c 1,9,10
 31 652 31 652 56 666 c 128,-1,11
 81 680 81 680 115 680 c 0,12,13
 148 680 148 680 170 668 c 128,-1,14
 192 656 192 656 204 633 c 128,-1,15
 216 610 216 610 221 583 c 128,-1,16
 226 556 226 556 227 518 c 2,17,-1
 242 102 l 1,18,-1
 463 660 l 1,19,-1
 562 660 l 1,20,-1
 595 102 l 1,21,-1
 821 660 l 1,22,-1
 940 660 l 1,23,-1
 645 0 l 1,24,-1
 460 0 l 1,25,-1
 442 365 l 1,26,-1
 292 0 l 1,27,-1
 97 0 l 1,28,-1
 66 509 l 2,7,8
EndSplineSet
Validated: 8388609
Position2: "'cpsp' Capital Spacing lookup 3 subtable" dx=5 dy=0 dh=10 dv=0
EndChar

StartChar: Wcircumflex
Encoding: 372 372 138
Width: 854
Flags: MW
HStem: 0 102<242 242 242 292> 640 20G<463 562 562 562 821 940 940 940> 660 20G
VStem: 20 920
LayerCount: 2
UndoRedoHistory
Layer: 0
Undoes
EndUndoes
Redoes
EndRedoes
EndUndoRedoHistory
UndoRedoHistory
Layer: 1
Undoes
EndUndoes
Redoes
EndRedoes
EndUndoRedoHistory
Fore
SplineSet
642 681 m 1,0,-1
 531 743 l 1,1,-1
 392 681 l 1,2,-1
 363 729 l 1,3,-1
 528 845 l 1,4,-1
 554 845 l 1,5,-1
 687 728 l 1,6,-1
 642 681 l 1,0,-1
66 509 m 2,7,8
 60 595 60 595 20 625 c 1,9,10
 31 652 31 652 56 666 c 128,-1,11
 81 680 81 680 115 680 c 0,12,13
 148 680 148 680 170 668 c 128,-1,14
 192 656 192 656 204 633 c 128,-1,15
 216 610 216 610 221 583 c 128,-1,16
 226 556 226 556 227 518 c 2,17,-1
 242 102 l 1,18,-1
 463 660 l 1,19,-1
 562 660 l 1,20,-1
 595 102 l 1,21,-1
 821 660 l 1,22,-1
 940 660 l 1,23,-1
 645 0 l 1,24,-1
 460 0 l 1,25,-1
 442 365 l 1,26,-1
 292 0 l 1,27,-1
 97 0 l 1,28,-1
 66 509 l 2,7,8
EndSplineSet
Validated: 8388609
Position2: "'cpsp' Capital Spacing lookup 3 subtable" dx=5 dy=0 dh=10 dv=0
EndChar

